<?xml version="1.0" encoding="utf-8"?>
<!-- Generator: Adobe Illustrator 25.3.1, SVG Export Plug-In . SVG Version: 6.00 Build 0)  -->
<svg version="1.1" id="Layer_1" xmlns="http://www.w3.org/2000/svg" xmlns:xlink="http://www.w3.org/1999/xlink" x="0px" y="0px"
	 viewBox="0 0 531.58 465.14" style="enable-background:new 0 0 531.58 465.14;" xml:space="preserve">
<style type="text/css">
	.st0{fill:transparent;}
	.st1{fill:#335A6F;}
	.st2{fill:#476B7D;}
	.st3{fill:#396074;}
	.st4{fill:#F9FAF1;}
	.st5{fill:#345B6E;}
	.st6{fill:#C29D63;}
	.st7{fill:#F9FAF0;}
	.st8{fill:#375E73;}
	.st9{fill:#E0E5EA;}
	.st10{fill:#D7DCDA;}
	.st11{fill:#EBEBEC;}
	.st12{fill:#B98C53;}
	.st13{fill:#FBFCFC;}
	.st14{fill:#DCB35F;}
	.st15{fill:#F8F9F9;}
	.st16{fill:#B37A4D;}
	.st17{fill:#CE9856;}
	.st18{fill:#C29E63;}
	.st19{fill:#ECB131;}
	.st20{fill:#FDC642;}
	.st21{fill:#BC9B62;}
	.st22{fill:#DBE0DD;}
	.st23{fill:#FFFFFF;}
	.st24{fill:#355A6B;}
	.st25{fill:#D1A644;}
	.st26{fill:#EBB031;}
	.st27{fill:#E9AF32;}
</style>
<g>
	<path class="st0" d="M9.53,199.24c0-76,0-152,0-228c170.67,0,341.33,0,512,0c0,89,0,178,0,267c-2.77-2.96-5.45-6.01-8.34-8.85
		c-4.84-4.73-9.81-9.31-14.73-13.95c-0.19-3.87-0.6-4.25-3.08-2.84c-3.31-3.05-6.61-6.1-9.92-9.15c0.35-2.59-0.88-3.48-3.32-3.07
		c-2.89-2.66-5.78-5.31-8.67-7.97c-0.22-3.86-0.62-4.22-3.09-2.81c-3.31-3.05-6.61-6.1-9.92-9.15c-0.25-3.88-0.54-4.15-3.08-2.84
		c-3.31-3.05-6.61-6.1-9.92-9.15c0.36-2.64-0.93-3.49-3.36-3.07c-2.87-2.66-5.75-5.32-8.62-7.98c-0.22-3.86-0.62-4.22-3.09-2.81
		c-3.31-3.05-6.61-6.1-9.92-9.15c0.35-2.59-0.88-3.48-3.32-3.07c-7.23-6.64-14.45-13.29-21.68-19.93c-0.25-3.88-0.54-4.15-3.08-2.84
		c-7.31-6.72-14.61-13.44-21.92-20.16c0.35-2.64-0.93-3.48-3.36-3.06c-0.54-0.38-1.12-0.71-1.61-1.15
		c-3.19-2.88-7.39-5.08-5.2-10.87c0.51-1.36-1.26-4.01-2.59-5.52c-1.6-1.81-3.85-3.04-7.16-5.52c2.97-2.06,4.66-2.91,5.94-4.18
		c15.57-15.48,31.14-30.97,46.54-46.63c1.61-1.64,2.11-4.38,3.13-6.61c-2.39-0.73-5.02-2.51-7.12-2.02
		c-8.18,1.92-16.2,4.56-24.27,6.94c-0.45-0.35-0.9-0.7-1.34-1.04c-0.23,0.68-0.46,1.36-0.69,2.04
		c-13.65,9.32-27.31,18.64-40.96,27.96c-1.14-0.49-2.28-0.97-3.42-1.46c-0.75-0.64-1.52-1.26-2.25-1.93
		c-6.74-6.2-10.08-6.16-16.43,0.2c-6.82,6.83-13.69,13.63-20.47,20.5c-4.49,4.54-4.7,7.68-0.76,12.66c1.93,2.44,4.2,4.61,6.39,6.98
		c-1.19,1.47-2.34,2.68-3.26,4.06c-8.95,13.39-18.3,26.53-26.62,40.31c-5.26,8.72-8.08,18.6-7.27,29.1
		c-1.04,1.02-2.07,2.03-3.11,3.05c-0.67,0.33-1.33,0.66-2,1c-2.27,0.33-4.53,0.66-6.8,1c-2.87-11.61-5.74-23.22-8.61-34.83
		c0.2-0.75,0.4-1.49,0.61-2.24c-1.31-0.13-2.61-0.26-3.92-0.39c-1.58-0.3-3.17-0.59-4.75-0.89c-11.73-2.23-23.38-5.42-35.22-6.49
		c-28.85-2.6-56.22,3.5-82.11,16.4c-0.45-0.34-0.91-0.67-1.36-1.01c-0.22,0.68-0.44,1.37-0.66,2.05c-2.77,1.46-2.95,3.67-1.79,6.25
		c-0.8,1.01-1.6,2.01-2.4,3.02c-1.23,0.76-2.46,1.52-3.7,2.27c-0.77-0.05-1.54-0.1-2.3-0.15c-1-0.33-2-0.66-3-1c-0.67,0-1.33,0-2,0
		c-1.33-0.33-2.67-0.67-4-1c-0.33,0-0.67,0-1,0c-2.78-3.59-3.2-3.68-5-1c-6,0-12,0-18,0c-2.19-3.11-3.15-1.26-4,1
		c-0.67,0-1.33,0-2,0c-2.85-1.9-4.79-1.05-6,2c-0.57,0.14-1.13,0.29-1.7,0.43c-2.45,1.19-4.9,2.38-7.34,3.57
		c-11.74,5.16-18.58,14.56-21.75,26.53c-1.58,5.98-1.65,12.37-2.4,18.58c-1.31-0.11-2.61-0.21-3.22-0.26
		c-1.16-1.93-2.02-3.35-2.87-4.78c-1,1.45-2,2.9-3.22,4.68C12.92,198.29,11.22,198.76,9.53,199.24z M226.39,98.81
		c2.09,7.04,3.75,13.28,5.91,19.35c0.38,1.06,3.16,2.17,4.35,1.79c1.2-0.39,2.78-2.84,2.51-4c-1.41-6.12-3.17-12.17-5.25-18.09
		c-0.4-1.13-2.92-2.29-4.26-2.08C228.34,95.97,227.29,97.9,226.39,98.81z"/>
	<path class="st0" d="M9.53,355.24c0-51.67,0-103.33,0-155c1.67,0.86,3.34,1.72,5.33,2.75c0.38,1.09,0.93,2.67,1.38,3.98
		c2.96-2.39,5.46-4.4,7.95-6.41c1.44,5.87,2.68,11.79,4.41,17.57c0.85,2.84,2.61,5.42,3.96,8.11c-0.33,1.33-0.65,2.67-0.98,4
		c-0.49,0.65-1.14,1.23-1.46,1.95c-12.6,28.29-15.97,57.83-10.28,88.08c7.08,37.62,26.15,68.4,56.84,91.25
		c31.99,23.82,68.33,33.48,107.96,28.5c26.85-3.37,51.18-13.75,72.66-30.38c1.37-1.06,1.95-3.13,2.9-4.73c0,0,0.07,0.01,0.07,0.01
		c1.06-0.63,2.11-1.25,3.17-1.88c11.33-9.28,22.66-18.57,33.99-27.85c4.2,2.35,8.65,4.34,12.56,7.1
		c15.84,11.18,33.3,14.14,52.11,10.94c32.91-5.6,55.61-32.2,55.33-65.49c-0.11-13.07-0.55-26.22-2.12-39.18
		c-1.83-15.11,0.34-29.75,3.36-44.29c2.35-11.33,6.13-22.36,9.12-33.56c1.09-4.08,1.76-8.28,2.62-12.42
		c1.27,1.05,2.58,2.06,3.79,3.17c20.04,18.43,40.05,36.9,60.12,55.3c6.46,5.92,10.99,6.05,17.33,0.02c3.65-3.47,6.6-7.67,9.86-11.54
		c0,79.33,0,158.67,0,238c-170.67,0-341.33,0-512,0c0-40.33,0-80.67,0-121c0.88,0.61,1.73,1.25,2.63,1.83
		c3.35,2.16,6.67,2.16,9.42-0.85c2.74-3,2.73-6.43-0.08-9.38c-2.78-2.92-6.09-3.04-9.39-0.66C11.22,353.83,10.39,354.55,9.53,355.24
		z"/>
	<path class="st1" d="M521.53,245.24c-3.26,3.87-6.21,8.08-9.86,11.54c-6.35,6.03-10.87,5.9-17.33-0.02
		c-20.07-18.4-40.08-36.87-60.12-55.3c-1.21-1.11-2.52-2.11-3.79-3.17c-18.6-17.08-37.2-34.17-55.8-51.25
		c-12.22-11.41-24.44-22.82-36.53-34.12c-7.58,5.26-7.75,5.22-18.48-3.3c-16.02,15.6-31.98,31.13-47.93,46.66
		c-3.56,1.88-5,7.66-10.61,5.77c-0.47-0.62-0.95-1.24-1.42-1.86c-0.81-10.51,2-20.39,7.27-29.1c8.32-13.77,17.67-26.92,26.62-40.31
		c0.92-1.37,2.07-2.59,3.26-4.06c-2.19-2.37-4.46-4.54-6.39-6.98c-3.94-4.97-3.72-8.12,0.76-12.66c6.79-6.87,13.65-13.67,20.47-20.5
		c6.35-6.36,9.69-6.4,16.43-0.2c0.73,0.67,1.5,1.29,2.25,1.93c1.14,0.49,2.28,0.97,3.42,1.46c13.65-9.32,27.31-18.64,40.96-27.96
		c0.68-0.33,1.36-0.66,2.03-0.99c8.08-2.37,16.09-5.01,24.27-6.94c2.1-0.49,4.73,1.28,7.12,2.02c-1.01,2.23-1.51,4.97-3.13,6.61
		c-15.39,15.66-30.96,31.15-46.54,46.63c-1.28,1.27-2.98,2.12-5.94,4.18c3.31,2.48,5.57,3.71,7.16,5.52
		c1.33,1.51,3.1,4.16,2.59,5.52c-2.19,5.79,2.01,7.99,5.2,10.87c0.49,0.44,1.07,0.77,1.61,1.15c1.12,1.02,2.24,2.04,3.36,3.06
		c7.31,6.72,14.61,13.44,21.92,20.16c1.03,0.95,2.06,1.89,3.08,2.84c7.23,6.64,14.45,13.29,21.68,19.93
		c1.11,1.02,2.21,2.05,3.32,3.07c3.31,3.05,6.61,6.1,9.92,9.15c1.03,0.94,2.06,1.88,3.09,2.81c2.87,2.66,5.75,5.32,8.62,7.98
		c1.12,1.02,2.24,2.05,3.36,3.07c3.31,3.05,6.61,6.1,9.92,9.15c1.03,0.95,2.06,1.89,3.08,2.84c3.31,3.05,6.61,6.1,9.92,9.15
		c1.03,0.94,2.06,1.88,3.09,2.81c2.89,2.66,5.78,5.31,8.67,7.97c1.11,1.02,2.21,2.05,3.32,3.07c3.31,3.05,6.61,6.1,9.92,9.15
		c1.03,0.95,2.06,1.89,3.08,2.84c4.92,4.64,9.9,9.23,14.73,13.95c2.9,2.83,5.57,5.89,8.34,8.85
		C521.53,240.57,521.53,242.91,521.53,245.24z M370.57,109.15l0.05,0.01c-4.79-4.73-9.59-9.46-14.75-14.55
		c-1.41,1.52-2.38,2.57-3.35,3.61c-1.69,1.64-3.38,3.28-5.07,4.92c-1.63,1.09-3.26,2.17-5.31,3.54c2.44,2.14,3.58,3.1,4.67,4.11
		c20.57,18.91,41.11,37.84,61.7,56.72c13.6,12.47,27.28,24.86,40.92,37.28c0.92,0.85,1.84,1.69,2.76,2.54
		c15.39,14.42,30.78,28.85,46.19,43.25c4.03,3.77,5.79,3.51,10.22-1.3c6.72-7.56,6.62-8.77-0.74-15.05
		c-4.56-3.88-9.09-7.81-13.5-11.86c-31.36-28.86-62.68-57.78-94.04-86.64c-8.93-8.22-17.98-16.32-26.97-24.48
		c-0.26-0.26-0.53-0.52-0.79-0.78c-0.22-0.19-0.47-0.3-0.75-0.34C371.4,109.82,370.99,109.48,370.57,109.15z M305.91,87.27
		c-1.52,1.98-3.01,3.98-4.57,5.92c-13.04,16.19-25.28,32.87-33.09,53.81c5.43-2.55,8.14-6.45,11.24-9.88
		c11.35-11.21,22.72-22.41,34.06-33.64c5.72-5.66,6.11-5.71,11.19,0.25c1.7,2,3.1,4.26,4.64,6.4c-0.14-1.01-0.28-2.02-0.41-3.02
		c8.62-7.38,17.25-14.76,25.67-21.97c-0.69-1.17-0.81-1.5-1.04-1.72c-1.74-1.79-3.5-3.56-5.25-5.34c-4.13-4.22-4.16-5.26-0.05-9.39
		c13.64-13.67,27.3-27.31,40.94-40.97c1.19-1.19,2.29-2.48,3.43-3.73c-0.31-0.45-0.61-0.9-0.92-1.35
		c-5.19,2.4-10.79,4.18-15.51,7.31c-13.41,8.9-26.58,18.19-39.59,27.68c-3.72,2.71-6.27,3.13-9.17-0.68
		c-1.39-1.82-3.23-3.31-4.86-4.95c-1.91-2.77-3.76-2.59-5.92-0.14c-2.83,3.22-5.91,6.23-8.83,9.37c-4.01,4.3-7.99,8.64-12.66,13.7
		c0.87,0.63,2.05,1.48,3.24,2.34C300.94,80.61,303.43,83.94,305.91,87.27z"/>
	<path class="st2" d="M9.53,355.24c0.86-0.69,1.69-1.41,2.58-2.06c3.31-2.38,6.61-2.25,9.39,0.66c2.8,2.94,2.82,6.37,0.08,9.38
		c-2.75,3.01-6.06,3.01-9.42,0.85c-0.9-0.58-1.76-1.22-2.63-1.83C9.53,359.91,9.53,357.57,9.53,355.24z M16.58,352.31
		c-2.07,2.94-4.25,4.69-4.01,6.01c0.31,1.72,2.53,3.09,3.94,4.61c1.38-1.37,3.79-2.68,3.88-4.12
		C20.49,357.16,18.51,355.39,16.58,352.31z"/>
	<path class="st3" d="M24.2,200.56c-2.49,2.01-4.98,4.02-7.95,6.41c-0.46-1.31-1-2.89-1.38-3.98c-1.99-1.03-3.66-1.89-5.33-2.75
		c0-0.33,0-0.67,0-1c1.69-0.48,3.39-0.95,4.49-1.27c1.22-1.78,2.22-3.23,3.22-4.68c0.86,1.43,1.72,2.85,2.87,4.78
		c0.61,0.05,1.92,0.16,3.22,0.26C23.63,199.08,23.91,199.82,24.2,200.56z"/>
	<path class="st4" d="M261.07,162.05c5.61,1.9,7.05-3.89,10.61-5.77c5.04-1.55,10.03-3.32,15.14-4.6c6.37-1.6,12.83-2.79,19.26-4.16
		c-2.77,1.79-5.52,3.62-8.33,5.35c-2.36,1.45-4.36,3.42-2.08,5.86c1.04,1.11,4.26,1.32,5.81,0.57c4.59-2.24,9.05-4.89,13.12-7.96
		c1.57-1.19,1.96-3.95,2.89-5.99c0.54-0.34,1.06-0.91,1.63-0.99c14.85-1.92,29.59-1.16,44.28,1.63c3.67,0.7,7.48,0.72,11.22,1.05
		c18.6,17.08,37.2,34.17,55.79,51.25c-0.86,4.14-1.53,8.34-2.62,12.42c-3,11.2-6.77,22.23-9.12,33.56
		c-3.02,14.54-5.19,29.18-3.36,44.29c1.57,12.96,2.01,26.11,2.12,39.18c0.28,33.29-22.42,59.89-55.33,65.49
		c-18.82,3.2-36.27,0.24-52.11-10.94c-3.91-2.76-8.36-4.75-12.56-7.1c1.32-1.65,2.64-3.3,3.98-4.94c3.24-3.99,2.92-5.43-1.79-8.27
		c12.38-15.46,20.87-32.87,25.93-51.99c5.36,2.97,6.74,2.36,8.04-3.75c9.81-46.19,0.73-88.42-26.84-126.65
		c-3.87-5.37-8.31-10.41-13-15.09c-3.85-3.85-5.77-3.21-8.19,1.68c-2.94,5.95-6.46,11.72-8.58,17.96
		c-4.65,13.7-13.38,22.69-27.29,26.85c-3.83,1.15-7.39,3.22-11.45,5.03c-1.08-4.72-1.45-8.79-2.94-12.41
		c-4.09-9.93-2.03-17.9,5.77-25.22c3.09-2.9,4.67-7.39,6.94-11.16c2.18-1,4.35-2,6.53-2.99c0.67-0.33,1.33-0.66,2-1
		C258.04,162.85,259.56,162.45,261.07,162.05z M367.64,336.36c-0.01-0.78-0.02-1.57-0.02-2.35c-2.16-1.5-4.2-3.97-6.52-4.26
		c-3.19-0.4-5.55,2-5.51,5.56c0.04,3.55,2.43,5.92,5.63,5.44C363.53,340.4,365.51,337.9,367.64,336.36z M344.98,191.23
		c-3.71-0.1-7.1,3.13-7.21,6.84c-0.11,3.69,3.14,7.07,6.87,7.16c3.87,0.09,6.97-2.91,7.06-6.83
		C351.78,194.46,348.85,191.33,344.98,191.23z M331.46,342.19c-0.12,1.92-0.23,3.52-0.33,5.12c1.55-0.55,3.11-1.1,5.19-1.83
		c0.67,0.31,1.97,0.9,3.85,1.75c-0.27-3.84,0.54-7.76-1.01-10.18c-1.67-2.6-5.23,3.81-8.22,0.17c-0.46,0.41-1.39,1-1.31,1.19
		C330.2,339.87,330.98,341.25,331.46,342.19z"/>
	<path class="st5" d="M248.01,167.24c-2.27,3.77-3.86,8.26-6.94,11.16c-7.8,7.32-9.86,15.3-5.77,25.22
		c1.49,3.62,1.86,7.7,2.94,12.41c4.05-1.81,7.61-3.88,11.45-5.03c13.91-4.16,22.64-13.15,27.29-26.85
		c2.12-6.24,5.63-12.01,8.58-17.96c2.42-4.89,4.34-5.53,8.19-1.68c4.69,4.68,9.13,9.72,13,15.09
		c27.57,38.23,36.65,80.46,26.84,126.65c-1.3,6.12-2.67,6.72-8.04,3.75c1.31-9.03,3.2-18.02,3.81-27.09
		c2.15-31.97-5.02-61.82-22.08-89.03c-4.68-7.47-10.32-14.34-15.97-22.09c-2.15,4.35-3.71,7.47-5.23,10.61
		c-0.36,0.74-0.55,1.56-0.82,2.34c-1.95,4.1-3.91,8.19-5.86,12.28c-1.18,2.36-2.13,4.88-3.61,7.04c-1.35,1.97-2.97,4.18-5.01,5.18
		c-10.75,5.25-21.67,10.14-32.52,15.19c-3.53,1.64-5.77,0.67-6.7-3.14c-2.26-9.36-4.53-18.72-6.75-28.09
		c-0.91-3.82-0.04-7.15,2.61-10.16c3.52-3.99,6.69-8.29,10.26-12.23c2.2-2.43,2.69-4.81,1.22-7.66c-1.8-7.3-3.6-14.59-5.41-21.89
		c-0.92-2.15-1.35-5.69-2.85-6.23c-12.35-4.43-25.07-7.32-38.32-7.08c-0.58-0.05-1.17-0.11-1.75-0.16c-1.03-0.07-2.07-0.14-3.1-0.21
		c-2.29-0.01-4.59-0.01-6.88-0.02c-1.09,0.14-2.19,0.28-3.28,0.41c-1.58,0.11-3.15,0.23-4.73,0.34c-0.35-0.03-0.7-0.05-1.05-0.08
		c-2.01,0.34-4.02,0.68-6.02,1.02c-0.62,0.06-1.24,0.13-1.86,0.19c-1.31-0.01-2.67-0.24-3.93,0c-14.16,2.75-27.86,6.83-40.78,13.4
		c-2.4,1.22-5.25,1.55-7.89,2.29c-0.37-0.36-0.74-0.71-1.11-1.07c-1.17-2.59-0.98-4.79,1.79-6.25c0.68-0.35,1.35-0.69,2.03-1.04
		c25.89-12.9,53.27-19,82.11-16.4c11.84,1.07,23.49,4.26,35.22,6.49c1.58,0.3,3.17,0.59,4.75,0.88c1.1,0.87,2.21,1.76,3.31,2.64
		c2.87,11.61,5.74,23.22,8.61,34.83C247.83,165.9,247.92,166.57,248.01,167.24z"/>
	<path class="st6" d="M111.04,145.16c2.64-0.74,5.49-1.07,7.89-2.29c12.92-6.57,26.63-10.66,40.78-13.4c1.26-0.24,2.62-0.01,3.93,0
		c-1.02,0.64-1.95,1.59-3.06,1.89c-30.21,8.24-55.81,24-75.63,48.2c-27.2,33.21-38.13,71.65-32.12,114.07
		c4.81,33.92,20.09,62.9,45.66,86.28c15.86,14.5,33.81,25.09,54.25,31.6c2.02,0.64,3.9,1.72,5.85,2.6c-3.1-0.49-6.25-0.74-9.28-1.49
		C91.26,398.15,48.22,350.1,40.42,290.06c-5.05-38.86,4.55-74.28,27.66-106c1.5-2.05,2.29-4.62,3.4-6.95
		c10.78-9.24,21.56-18.49,32.35-27.73c1.23-0.76,2.46-1.52,3.7-2.27C108.7,146.46,109.87,145.81,111.04,145.16z"/>
	<path class="st7" d="M103.84,149.38c-10.78,9.24-21.56,18.49-32.35,27.72c-3.44-3.99-4.72-4.21-7.47,0.04
		c-6.39,9.9-12.4,20.03-18.57,30.07c-1.24,1.24-2.76,2.3-3.68,3.75c-3.18,5.02-6.15,10.18-9.2,15.28c-1.35-2.7-3.11-5.27-3.96-8.11
		c-1.73-5.78-2.97-11.7-4.41-17.57c-0.29-0.74-0.57-1.48-0.85-2.22c0.75-6.21,0.81-12.59,2.4-18.58
		c3.17-11.97,10.01-21.37,21.75-26.53c0.15,5.76,2.92,8.95,6.88,7.42c1.7-0.66,4.11-2.95,3.95-4.21c-0.3-2.37-2.23-4.53-3.48-6.77
		c0.57-0.14,1.13-0.29,1.7-0.43c2-0.67,4-1.33,6-2c0.67,0,1.33,0,2,0c1.33-0.33,2.67-0.66,4-1c6,0,12,0,18,0
		c1.67,0.33,3.33,0.66,5,1c0.33,0,0.67,0,1,0c1.33,0.33,2.67,0.67,4,1c0.67,0,1.33,0,2,0c1,0.33,2,0.66,3,1
		C102.3,149.29,103.07,149.33,103.84,149.38z"/>
	<path class="st8" d="M226.39,98.81c0.91-0.91,1.95-2.84,3.26-3.05c1.33-0.21,3.86,0.95,4.26,2.08c2.09,5.92,3.85,11.98,5.25,18.09
		c0.27,1.16-1.31,3.61-2.51,4c-1.19,0.39-3.97-0.72-4.35-1.79C230.13,112.09,228.47,105.85,226.39,98.81z"/>
	<path class="st3" d="M54.83,149.67c1.25,2.25,3.19,4.41,3.48,6.77c0.16,1.27-2.25,3.56-3.95,4.21c-3.96,1.53-6.73-1.66-6.88-7.42
		C49.94,152.05,52.39,150.86,54.83,149.67z"/>
	<path class="st0" d="M248.01,167.24c-0.09-0.67-0.18-1.33-0.27-2c2.27-0.33,4.53-0.66,6.8-1
		C252.36,165.24,250.18,166.24,248.01,167.24z"/>
	<path class="st0" d="M62.53,147.24c-2,0.67-4,1.33-6,2C57.74,146.19,59.68,145.34,62.53,147.24z"/>
	<path class="st0" d="M91.53,147.24c-1.67-0.33-3.33-0.66-5-1C88.33,143.56,88.75,143.65,91.53,147.24z"/>
	<path class="st0" d="M68.53,146.24c-1.33,0.33-2.67,0.66-4,1C65.39,144.98,66.34,143.13,68.53,146.24z"/>
	<path class="st0" d="M261.07,162.05c-1.51,0.4-3.02,0.79-4.53,1.19c1.04-1.02,2.07-2.03,3.11-3.05
		C260.12,160.81,260.59,161.43,261.07,162.05z"/>
	<path class="st0" d="M460.45,180.44c-1.03-0.95-2.06-1.89-3.08-2.84C459.91,176.29,460.2,176.56,460.45,180.44z"/>
	<path class="st0" d="M239.13,130.41c-1.1-0.88-2.2-1.76-3.31-2.64c1.3,0.14,2.61,0.27,3.92,0.4
		C239.53,128.92,239.33,129.66,239.13,130.41z"/>
	<path class="st0" d="M397.45,122.44c-1.03-0.95-2.06-1.89-3.08-2.84C396.91,118.29,397.2,118.56,397.45,122.44z"/>
	<path class="st0" d="M498.46,215.44c-1.03-0.95-2.06-1.89-3.08-2.84C497.85,211.19,498.26,211.57,498.46,215.44z"/>
	<path class="st0" d="M435.47,157.41c-1.03-0.94-2.06-1.88-3.09-2.81C434.85,153.19,435.25,153.55,435.47,157.41z"/>
	<path class="st0" d="M473.47,192.41c-1.03-0.94-2.06-1.88-3.09-2.81C472.85,188.19,473.24,188.55,473.47,192.41z"/>
	<path class="st0" d="M111.04,145.16c-1.17,0.65-2.34,1.3-3.51,1.95c0.8-1.01,1.6-2.01,2.4-3.02
		C110.3,144.45,110.67,144.8,111.04,145.16z"/>
	<path class="st0" d="M96.53,148.24c-1.33-0.33-2.67-0.67-4-1C93.87,147.57,95.2,147.9,96.53,148.24z"/>
	<path class="st0" d="M447.45,168.45c-1.12-1.02-2.24-2.05-3.36-3.07C446.53,164.97,447.81,165.81,447.45,168.45z"/>
	<path class="st0" d="M372.45,99.45c-1.12-1.02-2.24-2.04-3.36-3.06C371.52,95.97,372.81,96.81,372.45,99.45z"/>
	<path class="st0" d="M422.45,145.45c-1.11-1.02-2.21-2.05-3.32-3.07C421.57,141.96,422.8,142.85,422.45,145.45z"/>
	<path class="st0" d="M485.45,203.45c-1.11-1.02-2.21-2.05-3.32-3.07C484.57,199.96,485.8,200.85,485.45,203.45z"/>
	<path class="st0" d="M101.53,149.24c-1-0.33-2-0.66-3-1C99.53,148.57,100.53,148.91,101.53,149.24z"/>
	<path class="st0" d="M333.74,49.78c-1.14-0.49-2.28-0.97-3.42-1.46C331.46,48.81,332.6,49.29,333.74,49.78z"/>
	<path class="st0" d="M113.74,136.8c-0.68,0.35-1.35,0.69-2.03,1.04c0.22-0.68,0.44-1.37,0.66-2.05
		C112.83,136.13,113.29,136.46,113.74,136.8z"/>
	<path class="st0" d="M376.74,20.83c-0.68,0.33-1.36,0.66-2.03,0.99c0.23-0.68,0.46-1.36,0.69-2.04
		C375.85,20.13,376.29,20.48,376.74,20.83z"/>
	<path class="st9" d="M260.21,404.93c-0.95,1.6-1.53,3.67-2.9,4.73c-21.48,16.63-45.81,27.01-72.66,30.38
		c-39.63,4.98-75.98-4.69-107.96-28.5C46,388.69,26.92,357.9,19.85,320.28c-5.69-30.26-2.33-59.8,10.28-88.08
		c0.32-0.72,0.97-1.31,1.46-1.95c1.4,1.69,2.81,3.39,4.21,5.08c-1.39,11.33-3.55,22.63-4.01,34c-0.92,22.87,4.19,44.74,13.16,65.74
		c-0.14,2.26-0.52,4.54-0.39,6.78c0.82,14.38,7.34,26.25,16.79,36.65c13.56,14.92,31,23.47,49.78,29.69
		c1.03,0.34,2.31-0.08,3.47-0.15c1.38,0.56,2.78,1.07,4.13,1.69c35.39,16.38,71.92,19.44,109.28,8.32
		C239.07,414.77,249.5,409.36,260.21,404.93z"/>
	<path class="st1" d="M44.96,335.07c-8.97-21-14.08-42.87-13.16-65.74c0.46-11.37,2.62-22.67,4.01-34
		c3.22-9.37,6.43-18.74,9.65-28.11c6.17-10.04,12.18-20.17,18.57-30.07c2.75-4.26,4.03-4.03,7.47-0.04c-1.12,2.33-1.91,4.9-3.4,6.95
		c-23.11,31.73-32.71,67.14-27.66,106c7.8,60.04,50.84,108.09,108.88,122.54c3.03,0.75,6.18,1.01,9.28,1.49
		c0.74,0.35,1.45,0.95,2.21,1.03c14.23,1.51,28.47,2.65,42.7-0.02c1.1-0.21,2.19-0.42,3.29-0.63c0.57-0.12,1.13-0.23,1.7-0.35
		c1.36-0.28,2.72-0.56,4.08-0.84c0.61-0.1,1.23-0.2,1.84-0.3c1.14-0.1,2.31-0.05,3.41-0.32c30.94-7.42,56.68-23.42,77.75-47.12
		c1.18-1.33,2.69-2.38,4.04-3.56c4.72,2.84,5.03,4.28,1.79,8.27c-1.33,1.64-2.65,3.29-3.98,4.94
		c-11.33,9.28-22.66,18.57-33.99,27.85c-1.06,0.63-2.11,1.25-3.17,1.88c0,0-0.07-0.01-0.07-0.01c-10.71,4.44-21.14,9.84-32.19,13.13
		c-37.35,11.12-73.88,8.06-109.28-8.32c-1.35-0.62-2.76-1.13-4.13-1.69c-5.5-3.39-11.13-6.59-16.47-10.21
		C74.6,381.86,57.26,360.59,44.96,335.07z"/>
	<path class="st10" d="M45.45,207.22c-3.22,9.37-6.43,18.74-9.65,28.11c-1.4-1.69-2.81-3.39-4.21-5.08c0.33-1.33,0.65-2.67,0.98-4
		c3.05-5.1,6.02-10.26,9.2-15.28C42.68,209.52,44.2,208.46,45.45,207.22z"/>
	<path class="st9" d="M260.28,404.93c1.06-0.63,2.11-1.25,3.17-1.88C262.39,403.68,261.33,404.31,260.28,404.93z"/>
	<path class="st11" d="M322.63,52.01c1.63,1.64,3.47,3.12,4.86,4.95c2.9,3.81,5.45,3.4,9.17,0.68
		c13.01-9.48,26.17-18.78,39.59-27.68c4.71-3.13,10.31-4.91,15.51-7.31c0.31,0.45,0.61,0.9,0.92,1.35
		c-1.14,1.24-2.24,2.53-3.43,3.73c-13.64,13.66-27.3,27.3-40.94,40.97c-4.11,4.12-4.08,5.16,0.05,9.39
		c1.75,1.78,3.51,3.55,5.25,5.34c0.22,0.23,0.34,0.56,1.04,1.72c-8.42,7.21-17.05,14.59-25.67,21.97c0.14,1.01,0.28,2.02,0.41,3.02
		c-1.54-2.14-2.93-4.4-4.64-6.4c-5.08-5.97-5.47-5.91-11.19-0.25c-11.34,11.23-22.7,22.42-34.06,33.64
		c4.8-8.57,9.16-17.42,14.51-25.63c4.9-7.51,10.87-14.33,16.89-22.12c-1.91-0.81-3.45-1.46-4.99-2.1c-2.48-3.33-4.97-6.66-7.45-9.99
		c7.69-7.52,15.4-15.03,23.04-22.61C322.13,54.04,322.26,52.91,322.63,52.01z"/>
	<path class="st12" d="M371.81,110.15c0.29,0.03,0.54,0.14,0.75,0.34c0.26,0.26,0.53,0.52,0.79,0.78
		c8.99,8.16,18.04,16.26,26.97,24.48c31.36,28.86,62.68,57.78,94.04,86.64c4.41,4.05,8.94,7.98,13.5,11.86
		c7.37,6.28,7.46,7.49,0.74,15.05c-1.45-1.91-2.67-4.05-4.38-5.69c-3.76-3.6-7.76-6.94-11.67-10.38c-0.03-0.32-0.05-0.64-0.08-0.96
		l0.04,0.03c-0.67-0.35-1.34-0.7-2.02-1.05c-2-1.97-3.99-3.94-5.99-5.91c0.43-1.1,0.86-2.2,1.52-3.92c-2.4-0.73-4.54-1.38-6.67-2.03
		c-1.79-1.07-3.79-1.89-5.32-3.25c-7.17-6.38-14.15-12.98-21.3-19.37c-8.76-7.82-17.56-15.59-26.47-23.25
		c-3.91-3.36-8.17-6.29-12.15-9.56c-3.05-2.5-5.91-5.24-8.85-7.87c2.97-3.96-1.65-5.15-2.78-7.62c-0.33-0.41-0.66-0.81-0.99-1.22
		c0,0,0.01,0.03,0.01,0.03c-0.35,0.01-0.69,0.01-1.04,0.02c-7.29-3.81-14.23-8.01-19.65-14.45c-3.46-4.12-7.39-7.87-11.3-11.58
		c-2.98-2.83-6.24-5.37-9.42-7.97c-4.19-3.42-8.43-6.78-12.64-10.16c1.69-1.64,3.38-3.28,5.07-4.92c1.7,1.2,3.32,2.52,5.11,3.57
		c4.29,2.52,8.66,4.92,12.99,7.36c0,0-0.05-0.01-0.05-0.01C370.99,109.48,371.4,109.82,371.81,110.15z M415.53,161.24
		c-0.14-0.08-0.28-0.16-0.42-0.24C415.25,161.08,415.39,161.16,415.53,161.24c0.33,0.33,0.67,0.67,1,1
		c0.14,0.08,0.28,0.15,0.42,0.23c-0.14-0.08-0.28-0.15-0.42-0.23C416.2,161.91,415.87,161.57,415.53,161.24z M446.53,183.24
		c-0.14-0.08-0.28-0.15-0.43-0.23C446.25,183.09,446.39,183.16,446.53,183.24c0.33,0.34,0.66,0.67,1,1c0.33,0.33,0.67,0.67,1,1
		c0.33,0.33,0.67,0.67,1,1c0.33,0.33,0.67,0.67,1,1c0.2,1.69-0.24,4.07,0.71,4.95c3.16,2.95,6.83,5.37,10.3,7.99
		c0.39-0.42,0.78-0.84,1.16-1.25c-4.05-3.9-8.11-7.8-12.16-11.7c-0.33-0.33-0.67-0.67-1-1c-0.33-0.33-0.67-0.67-1-1
		c-0.33-0.33-0.67-0.67-1-1C447.2,183.9,446.87,183.57,446.53,183.24z M464.82,201.86c-0.02-0.1-0.01-0.26-0.07-0.3
		c-0.09-0.07-0.24-0.06-0.37-0.08c0.03,0.17,0.07,0.35,0.1,0.52C464.6,201.95,464.71,201.9,464.82,201.86z"/>
	<path class="st13" d="M306.08,147.53c-6.42,1.37-12.89,2.56-19.26,4.16c-5.11,1.28-10.1,3.05-15.14,4.6
		c15.96-15.53,31.91-31.06,47.93-46.66c10.73,8.52,10.9,8.56,18.48,3.3c12.1,11.3,24.31,22.71,36.53,34.12
		c-3.74-0.33-7.55-0.35-11.22-1.05c-14.69-2.8-29.43-3.55-44.28-1.63c-0.58,0.07-1.09,0.65-1.63,0.99c-2.16-2.23-4.35-2.19-6.8-0.37
		C309.29,146.01,307.63,146.69,306.08,147.53z"/>
	<path class="st14" d="M347.45,103.15c4.22,3.38,8.46,6.74,12.64,10.16c3.19,2.6,6.44,5.15,9.42,7.97
		c3.91,3.71,7.84,7.46,11.3,11.58c5.42,6.44,12.36,10.64,19.65,14.45c0.35-0.01,0.69-0.01,1.03-0.02c0,0-0.01-0.03-0.01-0.03
		c0.33,0.41,0.66,0.81,0.99,1.22c1.14,2.46,5.75,3.65,2.78,7.62c2.94,2.63,5.81,5.36,8.85,7.87c3.98,3.27,8.25,6.2,12.15,9.56
		c8.9,7.65,17.71,15.42,26.47,23.25c7.16,6.39,14.13,12.99,21.3,19.37c1.53,1.36,3.53,2.18,5.32,3.25c1.72,1.98,3.43,3.96,5.15,5.94
		c2,1.97,3.99,3.94,5.99,5.91c0.67,0.35,1.34,0.7,2.02,1.05c0,0-0.04-0.03-0.04-0.03c-0.03,0.32,0,0.64,0.08,0.96
		c3.9,3.45,7.91,6.79,11.67,10.38c1.71,1.64,2.94,3.78,4.38,5.69c-4.43,4.81-6.19,5.06-10.22,1.3
		c-15.41-14.4-30.79-28.83-46.19-43.25c2.51-3.48-1.57-3.51-2.67-5.11c-0.33-0.33-0.67-0.66-1-1c-0.33-0.33-0.67-0.67-1-1
		c-0.14-0.08-0.29-0.16-0.43-0.24c0.14,0.08,0.28,0.17,0.42,0.25c0.33,0.33,0.67,0.67,1,1c0.33,0.33,0.66,0.67,1,1
		c-0.03,0.85-0.06,1.71-0.08,2.56c-13.64-12.43-27.32-24.81-40.92-37.28c-20.59-18.88-41.13-37.81-61.7-56.72
		c-1.1-1.01-2.23-1.97-4.67-4.11C344.19,105.32,345.82,104.24,347.45,103.15z M440.54,192.23c-0.33-0.33-0.67-0.67-1-1
		c-0.33-0.33-0.67-0.67-1-1c-0.05-0.11-0.09-0.24-0.17-0.33c-0.05-0.06-0.17-0.05-0.26-0.07c0.14,0.14,0.27,0.28,0.41,0.41
		c0.33,0.33,0.67,0.67,1,1c0.33,0.33,0.67,0.67,1,1c0.33,0.33,0.67,0.67,1,1c0.05,0.11,0.08,0.24,0.16,0.34
		c0.05,0.06,0.17,0.05,0.25,0.08c-0.13-0.14-0.27-0.28-0.4-0.42C441.2,192.9,440.87,192.57,440.54,192.23z M427.53,179.24
		c-0.15-0.08-0.29-0.15-0.44-0.23C427.24,179.09,427.39,179.16,427.53,179.24c0.33,0.34,0.66,0.67,0.99,1.01
		c0.33,0.33,0.67,0.67,1,1c0.33,0.33,0.67,0.67,1,1c0.05,0.11,0.08,0.25,0.16,0.34c0.05,0.06,0.17,0.05,0.26,0.07
		c-0.13-0.14-0.27-0.29-0.4-0.43c-0.33-0.33-0.67-0.67-1-1c-0.33-0.33-0.67-0.66-1-1C428.2,179.9,427.87,179.57,427.53,179.24z
		 M425.3,177.17c-0.08-0.1-0.15-0.21-0.23-0.31c-0.1,0.08-0.19,0.17-0.29,0.25c0.13,0.13,0.26,0.27,0.39,0.4
		C425.21,177.4,425.26,177.29,425.3,177.17z"/>
	<path class="st15" d="M305.91,87.27c1.54,0.65,3.08,1.3,4.99,2.1c-6.01,7.79-11.99,14.61-16.89,22.12
		c-5.35,8.21-9.72,17.06-14.51,25.63c-3.1,3.42-5.81,7.32-11.24,9.88c7.8-20.94,20.05-37.62,33.09-53.81
		C302.91,91.25,304.39,89.24,305.91,87.27z"/>
	<path class="st15" d="M322.63,52.01c-0.37,0.9-0.5,2.03-1.14,2.66c-7.64,7.58-15.34,15.08-23.04,22.61
		c-1.18-0.86-2.37-1.71-3.24-2.34c4.67-5.06,8.64-9.39,12.66-13.7c2.93-3.14,6-6.15,8.83-9.37
		C318.87,49.41,320.72,49.23,322.63,52.01z"/>
	<path class="st16" d="M370.62,109.16c-4.34-2.45-8.7-4.84-12.99-7.36c-1.78-1.05-3.41-2.37-5.11-3.57
		c0.97-1.05,1.94-2.09,3.35-3.61C361.03,99.7,365.83,104.43,370.62,109.16z"/>
	<path class="st17" d="M449.54,202.23c1.1,1.59,5.18,1.63,2.67,5.11c-0.92-0.85-1.84-1.69-2.77-2.53c0.03-0.85,0.06-1.71,0.09-2.56
		C449.52,202.25,449.54,202.23,449.54,202.23z"/>
	<path class="st16" d="M373.36,111.27c-0.26-0.26-0.53-0.52-0.79-0.78C372.83,110.75,373.09,111.01,373.36,111.27z"/>
	<path class="st16" d="M371.81,110.15c-0.41-0.33-0.83-0.67-1.24-1C370.99,109.48,371.4,109.82,371.81,110.15z"/>
	<path class="st15" d="M16.58,352.31c1.93,3.08,3.91,4.85,3.81,6.49c-0.09,1.45-2.5,2.76-3.88,4.12c-1.4-1.52-3.62-2.89-3.94-4.61
		C12.33,357.01,14.51,355.25,16.58,352.31z"/>
	<path class="st18" d="M299.61,361.99c-1.35,1.18-2.86,2.23-4.04,3.56c-21.08,23.71-46.82,39.7-77.75,47.12
		c-1.1,0.26-2.27,0.22-3.41,0.32c2.21-1.25,4.31-2.8,6.66-3.69c26.45-10.05,48.49-26.13,65.29-48.88
		c22.74-30.78,32.41-65.24,28.34-103.56c-2.14-20.17-8.34-38.89-18.22-56.42c-3.14-5.57-7.45-10.49-11.23-15.7
		c0.27-0.78,0.46-1.6,0.82-2.34c1.51-3.14,3.08-6.26,5.23-10.61c5.65,7.75,11.29,14.62,15.97,22.09
		c17.06,27.22,24.23,57.06,22.08,89.03c-0.61,9.07-2.51,18.06-3.81,27.09C320.48,329.12,311.99,346.53,299.61,361.99z"/>
	<path class="st8" d="M306.08,147.53c1.55-0.84,3.21-1.52,4.61-2.55c2.46-1.82,4.65-1.86,6.8,0.37c-0.93,2.04-1.31,4.8-2.89,5.99
		c-4.07,3.07-8.53,5.73-13.12,7.96c-1.56,0.76-4.78,0.54-5.81-0.57c-2.28-2.44-0.28-4.41,2.08-5.86
		C300.56,151.15,303.31,149.31,306.08,147.53z"/>
	<path class="st8" d="M367.64,336.36c-2.13,1.54-4.12,4.04-6.42,4.39c-3.2,0.48-5.58-1.88-5.63-5.44c-0.04-3.56,2.32-5.96,5.51-5.56
		c2.31,0.29,4.35,2.76,6.52,4.26C367.62,334.79,367.63,335.58,367.64,336.36z"/>
	<path class="st2" d="M344.98,191.23c3.87,0.1,6.8,3.23,6.72,7.17c-0.08,3.92-3.19,6.92-7.06,6.83c-3.73-0.09-6.98-3.47-6.87-7.16
		C337.87,194.36,341.27,191.14,344.98,191.23z M344.47,204.27c2.19-2.71,4.49-4.34,4.3-5.6c-0.26-1.69-2.24-3.88-3.88-4.3
		c-1.07-0.27-3.91,2.12-4.03,3.49C340.71,199.47,342.65,201.27,344.47,204.27z"/>
	<path class="st3" d="M331.46,342.19c-0.48-0.95-1.25-2.32-1.83-3.77c-0.08-0.19,0.85-0.78,1.31-1.19c2.99,3.64,6.55-2.77,8.22-0.17
		c1.55,2.42,0.74,6.34,1.01,10.18c-1.88-0.85-3.17-1.44-3.85-1.75c-2.08,0.73-3.63,1.28-5.19,1.83
		C331.23,345.71,331.34,344.11,331.46,342.19z"/>
	<path class="st19" d="M238.89,163.15c1.47,2.86,0.99,5.23-1.22,7.66c-3.57,3.94-6.75,8.24-10.26,12.23
		c-2.65,3.01-3.52,6.34-2.61,10.16c2.23,9.37,4.49,18.73,6.75,28.09c0.92,3.81,3.16,4.79,6.7,3.14
		c10.85-5.04,21.78-9.93,32.52-15.19c2.04-1,3.66-3.21,5.01-5.18c1.48-2.16,2.43-4.68,3.61-7.04
		c15.95,21.41,25.51,45.05,25.15,72.14c-0.34,1.6-0.72,3.19-1,4.8c-1.9,10.86-2.87,21.99-5.84,32.54
		c-6.34,22.53-19.95,40.7-37.75,55.42c-7.82,6.47-16.95,11.62-26.08,16.16c-14.83,7.38-30.83,10.81-47.45,11.26
		c-0.99,0.03-1.93,1.87-2.89,2.86c-6.73-0.68-13.54-0.91-20.17-2.1c-33.89-6.12-60.31-23.97-79.59-52.23
		c-13.01-19.07-18.81-40.68-20.24-63.56c1.65-1.44,4.49-2.73,4.69-4.35c0.44-3.54,2.08-8.28-3.69-9.73
		c0.04-2.09,0.08-4.18,0.12-6.27c4.16,1.09,5.19-1.51,5.82-4.8c10.43-54.59,58.39-94.14,112.32-95.35c2.01-0.04,3.98-1.71,5.98-2.62
		c7.66,0.97,15.48,1.24,22.93,3.08C220.93,156.57,229.84,160.14,238.89,163.15z M139.1,239.76c2.36,0,4.17-0.03,5.97,0
		c7.68,0.13,8.91,1.35,8.92,9.12c0.03,14.66,0.01,29.32,0.01,43.98c0,8.04-0.26,8.19-8.46,8.49c-1.53,0.05-4.09,0.86-4.34,1.81
		c-1.06,3.94-1.41,8.06-2.13,12.84c8.09,0,15.49,0,23.53,0c0,6.67,0,12.72,0,18.67c4.24,0,7.81,0,11.84,0c0-6.3,0-12.23,0-18.33
		c3.17,0,5.85,0,9.19,0c0,6.44,0,12.49,0,18.35c4.23,0,7.79,0,11.94,0c0-6.64,0-12.87,0-18.43c6.69-1.48,12.81-2.36,18.6-4.25
		c7.13-2.33,12.48-7.05,14.4-14.68c1.69-6.72,2.11-13.51-0.69-20.08c-2.55-5.99-7.98-8.45-13.4-10.27c2.42-2.93,5.35-5.39,6.87-8.53
		c5.52-11.37,0.47-23.64-11.49-28.06c-4.58-1.69-9.53-2.42-14.81-3.7c0-6.18,0-12.24,0-18.22c-4.15,0-7.73,0-11.88,0
		c0,6.42,0,12.48,0,18.44c-3.19,0-5.79,0-8.97,0c0-6.37,0-12.44,0-18.48c-4.19,0-7.77,0-11.93,0c0,6.38,0,12.45,0,18.9
		c-8.02,0-15.46,0-23.16,0C139.1,231.48,139.1,235.23,139.1,239.76z M294.8,238.76c-2.74-9.93-6.57-18.7-12.77-26.29
		c-0.46-0.56-1.95-0.28-2.97-0.39c0.04,0.89-0.19,1.91,0.16,2.67c3.76,8.08,7.59,16.13,11.5,24.14c0.43,0.88,1.54,1.43,2.34,2.14
		C293.69,240.21,294.32,239.39,294.8,238.76z"/>
	<path class="st20" d="M64.65,253.99c-0.04,2.09-0.08,4.18-0.12,6.27c-4.98,3.37-5.43,9.77-1,14.08
		c1.43,22.88,7.23,44.49,20.24,63.56c19.28,28.26,45.71,46.11,79.59,52.23c6.63,1.2,13.44,1.43,20.17,2.1
		c6.35-0.31,12.76-0.2,19.05-1.01c26.45-3.43,48.77-15.51,67.94-33.6c11.99-11.31,20.69-25.07,27.28-40.1
		c6.11-13.95,8.96-28.71,9.7-43.89c0.1-2.13,0.49-4.6-2.95-4.45c0.35-27.09-9.2-50.73-25.15-72.14c1.95-4.09,3.91-8.19,5.86-12.28
		c3.78,5.21,8.09,10.13,11.23,15.7c9.88,17.53,16.08,36.24,18.22,56.42c4.07,38.32-5.6,72.78-28.34,103.56
		c-16.8,22.75-38.84,38.83-65.29,48.88c-2.35,0.89-4.44,2.45-6.66,3.69c-0.61,0.1-1.23,0.2-1.84,0.3c-1.36,0.28-2.72,0.56-4.08,0.84
		c-0.57,0.12-1.13,0.23-1.7,0.34c-1.1,0.21-2.19,0.42-3.28,0.64c-14.23,2.67-28.47,1.53-42.7,0.02c-0.77-0.08-1.48-0.67-2.21-1.03
		c-1.94-0.88-3.83-1.96-5.84-2.6c-20.44-6.51-38.39-17.1-54.25-31.6c-25.56-23.38-40.85-52.36-45.66-86.28
		c-6.01-42.42,4.91-80.86,32.12-114.07c19.82-24.2,45.42-39.96,75.63-48.2c1.11-0.3,2.04-1.24,3.06-1.89
		c0.62-0.06,1.24-0.13,1.86-0.19c2.01-0.06,4.02-0.11,6.04-0.17c0.34-0.26,0.69-0.52,1.03-0.78c1.58-0.11,3.15-0.23,4.73-0.34
		c1.09-0.14,2.19-0.28,3.28-0.41c2.29,0.01,4.59,0.01,6.88,0.02c1.03,0.07,2.07,0.14,3.1,0.21c0.58,0.05,1.17,0.11,1.75,0.16
		c0.36,0.33,0.66,0.84,1.08,0.97c13.35,4.14,26.72,8.24,40.08,12.34c1.8,7.3,3.6,14.59,5.41,21.89c-9.05-3.01-17.96-6.58-27.2-8.85
		c-7.44-1.84-15.27-2.11-22.93-3.08c0.22-3.94-1.76-5.39-5.52-5.03c-4.14,0.39-8.3,0.52-12.43,0.99
		c-53.2,6.03-98.55,48.24-107.86,100.56C62.63,249.65,64.05,251.89,64.65,253.99z"/>
	<path class="st21" d="M233.49,141.26c-13.36-4.1-26.73-8.2-40.08-12.34c-0.42-0.13-0.73-0.64-1.08-0.97
		c13.25-0.24,25.97,2.65,38.32,7.08C232.14,135.57,232.57,139.11,233.49,141.26z"/>
	<path class="st6" d="M171.54,129.1c-2.01,0.06-4.02,0.11-6.04,0.17c2.01-0.34,4.01-0.68,6.02-1.02
		C171.53,128.53,171.54,128.82,171.54,129.1z"/>
	<path class="st21" d="M180.59,127.57c-1.09,0.14-2.19,0.28-3.28,0.41C178.4,127.84,179.49,127.7,180.59,127.57z"/>
	<path class="st21" d="M190.57,127.8c-1.03-0.07-2.07-0.14-3.1-0.21C188.51,127.65,189.54,127.73,190.57,127.8z"/>
	<path class="st21" d="M171.54,129.1c-0.01-0.28-0.01-0.57-0.01-0.85c0.35,0.03,0.7,0.05,1.05,0.08
		C172.23,128.58,171.89,128.84,171.54,129.1z"/>
	<path class="st22" d="M44.96,335.07c12.3,25.52,29.64,46.79,53.18,62.76c5.34,3.62,10.97,6.82,16.47,10.21
		c-1.16,0.07-2.45,0.49-3.47,0.15c-18.78-6.22-36.22-14.77-49.78-29.69c-9.45-10.4-15.97-22.26-16.79-36.65
		C44.43,339.61,44.81,337.34,44.96,335.07z"/>
	<path class="st18" d="M208.48,414.13c1.36-0.28,2.72-0.56,4.08-0.84C211.21,413.57,209.85,413.85,208.48,414.13z"/>
	<path class="st18" d="M203.5,415.11c1.09-0.21,2.19-0.42,3.28-0.64C205.69,414.69,204.59,414.9,203.5,415.11z"/>
	<path class="st16" d="M450.53,187.24c4.05,3.9,8.11,7.8,12.16,11.7c-0.39,0.42-0.78,0.84-1.16,1.25c-3.47-2.62-7.13-5.04-10.3-7.99
		C450.29,191.31,450.73,188.94,450.53,187.24L450.53,187.24z"/>
	<path class="st16" d="M484.51,225.33c-1.72-1.98-3.43-3.96-5.15-5.94c2.14,0.65,4.27,1.3,6.67,2.03
		C485.37,223.13,484.94,224.23,484.51,225.33z"/>
	<path class="st16" d="M492.51,232.29c-0.67-0.35-1.34-0.7-2.02-1.05C491.17,231.59,491.84,231.94,492.51,232.29z"/>
	<path class="st16" d="M464.82,201.86c-0.11,0.04-0.23,0.09-0.34,0.13c-0.03-0.17-0.07-0.35-0.1-0.52c0.12,0.02,0.27,0.02,0.37,0.08
		C464.81,201.6,464.8,201.75,464.82,201.86z"/>
	<path class="st16" d="M448.53,185.24c0.33,0.33,0.67,0.67,1,1c0,0-0.01,0.01-0.01,0.01C449.2,185.91,448.86,185.58,448.53,185.24
		C448.53,185.24,448.53,185.24,448.53,185.24z"/>
	<path class="st16" d="M450.53,187.24c-0.33-0.33-0.67-0.67-1-1c0,0,0.01-0.01,0.01-0.01C449.87,186.57,450.2,186.9,450.53,187.24
		C450.53,187.24,450.53,187.24,450.53,187.24z"/>
	<path class="st16" d="M447.53,184.24c0.33,0.33,0.67,0.67,1,1c0,0-0.01,0.01-0.01,0.01C448.2,184.91,447.86,184.58,447.53,184.24
		C447.53,184.24,447.53,184.24,447.53,184.24z"/>
	<path class="st16" d="M446.53,183.24c0.33,0.33,0.67,0.67,1,1c0,0,0,0.01,0,0.01C447.2,183.91,446.86,183.58,446.53,183.24
		L446.53,183.24z"/>
	<path class="st16" d="M446.53,183.24c-0.14-0.08-0.28-0.15-0.42-0.23C446.25,183.09,446.39,183.16,446.53,183.24
		C446.53,183.24,446.53,183.24,446.53,183.24z"/>
	<path class="st16" d="M492.56,233.23c-0.08-0.32-0.11-0.64-0.08-0.96C492.5,232.59,492.53,232.91,492.56,233.23z"/>
	<path class="st16" d="M416.53,162.24c0.14,0.08,0.28,0.15,0.42,0.23C416.81,162.39,416.67,162.31,416.53,162.24
		C416.53,162.24,416.53,162.24,416.53,162.24z"/>
	<path class="st16" d="M415.53,161.24c0.33,0.33,0.67,0.67,1,1c0,0,0,0,0,0C416.2,161.91,415.87,161.57,415.53,161.24L415.53,161.24
		z"/>
	<path class="st16" d="M415.53,161.24c-0.14-0.08-0.28-0.16-0.42-0.23C415.25,161.08,415.39,161.16,415.53,161.24L415.53,161.24z"/>
	<path class="st16" d="M402.48,148.48c-0.33-0.41-0.66-0.81-0.99-1.22C401.82,147.67,402.15,148.08,402.48,148.48z"/>
	<path class="st16" d="M401.5,147.29c-0.34,0.01-0.69,0.01-1.03,0.02C400.81,147.31,401.15,147.3,401.5,147.29z"/>
	<path class="st17" d="M425.3,177.17c-0.04,0.11-0.09,0.23-0.13,0.34c-0.13-0.13-0.26-0.27-0.39-0.4c0.1-0.08,0.19-0.17,0.29-0.25
		C425.14,176.96,425.22,177.07,425.3,177.17z"/>
	<path class="st17" d="M447.53,200.24c-0.14-0.08-0.28-0.17-0.42-0.25C447.25,200.08,447.39,200.16,447.53,200.24L447.53,200.24z"/>
	<path class="st17" d="M447.54,200.24c0.33,0.33,0.67,0.67,1,1c0,0-0.01,0.01-0.01,0.01C448.19,200.91,447.86,200.58,447.54,200.24
		C447.53,200.24,447.54,200.24,447.54,200.24z"/>
	<path class="st17" d="M448.54,201.23c0.33,0.33,0.67,0.66,1,1c0,0-0.01,0.01-0.01,0.01c-0.33-0.33-0.66-0.67-1-1
		C448.53,201.25,448.54,201.23,448.54,201.23z"/>
	<path class="st17" d="M430.54,182.23c0.13,0.14,0.27,0.29,0.4,0.43c-0.09-0.02-0.21-0.02-0.26-0.07c-0.08-0.09-0.11-0.22-0.16-0.34
		L430.54,182.23z"/>
	<path class="st17" d="M430.52,182.25c-0.33-0.33-0.67-0.67-1-1l0.01-0.01c0.33,0.33,0.67,0.67,1,1
		C430.54,182.23,430.52,182.25,430.52,182.25z"/>
	<path class="st17" d="M429.52,181.25c-0.33-0.33-0.67-0.67-1-1c0,0,0.01-0.01,0.01-0.01c0.33,0.33,0.67,0.66,1,1
		C429.54,181.23,429.52,181.25,429.52,181.25z"/>
	<path class="st17" d="M441.54,193.23c0.13,0.14,0.27,0.28,0.4,0.42c-0.09-0.02-0.2-0.02-0.25-0.08c-0.08-0.09-0.11-0.22-0.16-0.34
		L441.54,193.23z"/>
	<path class="st17" d="M428.53,180.24c-0.33-0.33-0.67-0.67-1-1l0,0C427.87,179.57,428.2,179.9,428.53,180.24
		C428.54,180.24,428.53,180.24,428.53,180.24z"/>
	<path class="st17" d="M439.53,191.25c-0.33-0.33-0.67-0.67-1-1l0.01-0.01c0.33,0.33,0.67,0.67,1,1L439.53,191.25z"/>
	<path class="st17" d="M438.52,190.25c-0.14-0.14-0.27-0.28-0.41-0.41c0.09,0.02,0.21,0.01,0.26,0.07c0.08,0.09,0.11,0.22,0.17,0.33
		C438.54,190.23,438.52,190.25,438.52,190.25z"/>
	<path class="st17" d="M441.53,193.24c-0.33-0.33-0.67-0.67-1-1c0,0,0.01-0.01,0.01-0.01c0.33,0.33,0.67,0.67,1,1
		C441.54,193.23,441.53,193.24,441.53,193.24z"/>
	<path class="st17" d="M439.54,191.23c0.33,0.33,0.67,0.67,1,1c0,0-0.01,0.01-0.01,0.01c-0.33-0.33-0.67-0.67-1-1
		C439.53,191.25,439.54,191.23,439.54,191.23z"/>
	<path class="st17" d="M427.53,179.24c-0.14-0.08-0.29-0.15-0.43-0.23C427.24,179.09,427.39,179.16,427.53,179.24
		C427.53,179.24,427.53,179.24,427.53,179.24z"/>
	<path class="st7" d="M344.47,204.27c-1.82-3.01-3.76-4.8-3.61-6.41c0.13-1.37,2.96-3.77,4.03-3.49c1.64,0.42,3.62,2.62,3.88,4.3
		C348.96,199.93,346.66,201.57,344.47,204.27z"/>
	<path class="st23" d="M139.1,239.76c0-4.53,0-8.28,0-12.45c7.7,0,15.14,0,23.16,0c0-6.46,0-12.52,0-18.9c4.16,0,7.75,0,11.93,0
		c0,6.04,0,12.11,0,18.48c3.18,0,5.78,0,8.97,0c0-5.96,0-12.02,0-18.44c4.16,0,7.73,0,11.88,0c0,5.98,0,12.05,0,18.22
		c5.29,1.29,10.23,2.01,14.81,3.7c11.96,4.42,17.01,16.69,11.49,28.06c-1.53,3.14-4.45,5.6-6.87,8.53
		c5.43,1.81,10.85,4.28,13.4,10.27c2.8,6.57,2.38,13.36,0.69,20.08c-1.92,7.63-7.28,12.35-14.4,14.68
		c-5.79,1.9-11.91,2.77-18.6,4.25c0,5.56,0,11.79,0,18.43c-4.15,0-7.71,0-11.94,0c0-5.86,0-11.91,0-18.35c-3.34,0-6.02,0-9.19,0
		c0,6.1,0,12.03,0,18.33c-4.03,0-7.6,0-11.84,0c0-5.95,0-12,0-18.67c-8.04,0-15.44,0-23.53,0c0.72-4.78,1.08-8.9,2.13-12.84
		c0.25-0.95,2.81-1.75,4.34-1.81c8.2-0.29,8.46-0.45,8.46-8.49c0.01-14.66,0.02-29.32-0.01-43.98c-0.01-7.77-1.24-8.99-8.92-9.12
		C143.26,239.73,141.46,239.76,139.1,239.76z M174.82,276.04c0,8.82,0,17.01,0,26.66c8.93-1.54,17.28-2.52,25.37-4.56
		c4.8-1.21,6.8-5.47,6.51-10.56c-0.28-4.76-2.94-7.64-7.17-9.2C191.57,275.44,183.35,275.23,174.82,276.04z M174.63,265.09
		c7.29-1.27,13.8-2.06,20.14-3.62c4.46-1.1,6.78-4.63,6.73-9.33c-0.04-4.67-2.45-8.37-6.77-9.41c-6.45-1.55-13.15-2.04-20.1-3.03
		C174.63,248.62,174.63,256.02,174.63,265.09z"/>
	<path class="st24" d="M64.65,253.99c-0.6-2.09-2.03-4.33-1.68-6.26c9.31-52.32,54.65-94.52,107.86-100.56
		c4.13-0.47,8.29-0.6,12.43-0.99c3.76-0.36,5.74,1.09,5.52,5.03c-1.99,0.91-3.97,2.58-5.98,2.62
		c-53.93,1.2-101.89,40.75-112.32,95.35C69.84,252.48,68.82,255.08,64.65,253.99z"/>
	<path class="st25" d="M304.55,269.17c3.44-0.15,3.06,2.32,2.95,4.45c-0.74,15.18-3.59,29.93-9.7,43.89
		c-6.58,15.03-15.28,28.79-27.28,40.1c-19.17,18.09-41.5,30.17-67.94,33.6c-6.29,0.81-12.69,0.7-19.05,1.01
		c0.96-1,1.9-2.83,2.89-2.86c16.62-0.45,32.62-3.88,47.45-11.26c9.13-4.55,18.26-9.7,26.08-16.16
		c17.8-14.72,31.41-32.89,37.75-55.42c2.97-10.56,3.94-21.68,5.84-32.54C303.83,272.36,304.21,270.77,304.55,269.17z"/>
	<path class="st7" d="M294.8,238.76c-0.49,0.63-1.11,1.45-1.74,2.27c-0.79-0.71-1.9-1.26-2.34-2.14
		c-3.91-8.01-7.74-16.06-11.5-24.14c-0.35-0.75-0.12-1.77-0.16-2.67c1.01,0.11,2.51-0.18,2.97,0.39
		C288.23,220.06,292.07,228.83,294.8,238.76z"/>
	<path class="st24" d="M63.53,274.34c-4.43-4.31-3.98-10.71,1-14.08c5.77,1.46,4.13,6.19,3.69,9.73
		C68.03,271.61,65.18,272.9,63.53,274.34z"/>
	<path class="st26" d="M174.82,276.04c8.54-0.81,16.75-0.6,24.71,2.35c4.23,1.57,6.89,4.45,7.17,9.2c0.3,5.09-1.71,9.35-6.51,10.56
		c-8.09,2.03-16.45,3.01-25.37,4.56C174.82,293.05,174.82,284.86,174.82,276.04z"/>
	<path class="st27" d="M174.63,265.09c0-9.07,0-16.47,0-25.39c6.95,0.99,13.65,1.48,20.1,3.03c4.32,1.04,6.73,4.74,6.77,9.41
		c0.04,4.7-2.27,8.24-6.73,9.33C188.43,263.03,181.92,263.83,174.63,265.09z"/>
</g>
</svg>
