<?xml version="1.0" encoding="utf-8"?>
<!-- Generator: Adobe Illustrator 25.3.1, SVG Export Plug-In . SVG Version: 6.00 Build 0)  -->
<svg version="1.1" xmlns="http://www.w3.org/2000/svg" xmlns:xlink="http://www.w3.org/1999/xlink" x="0px" y="0px"
	 viewBox="0 0 122.76 31.91" style="enable-background:new 0 0 122.76 31.91;" xml:space="preserve">
<style type="text/css">
	.st0{display:none;}
	.st1{fill:#2e2d76;}
</style>
<g id="Layer_2" class="st0">
</g>
<g id="Layer_1">
	<g>
		<path class="st1" d="M30.12,29.66h-1.75c-1.04,0-1.88-0.84-1.89-1.89c-0.03-3.8-0.14-7.47,0.06-11.12
			c0.17-3.12-0.71-4.52-3.49-4.01c-0.89,0.17-1.55,0.96-1.55,1.87v13.26c0,0.99-0.76,1.81-1.75,1.89l-1.92,0.15
			c-1.1,0.09-2.04-0.78-2.04-1.89V14.73c0-1.05-0.85-1.9-1.9-1.9h-1.38c-1.05,0-1.9,0.85-1.9,1.9v12.95c0,1.05-0.85,1.9-1.9,1.9
			H4.98c-1.05,0-1.9-0.85-1.9-1.9V4.73c0-1.05,0.85-1.9,1.9-1.9h112.89c1.05,0,1.9,0.85,1.9,1.9v23.01c0,1.05-0.85,1.9-1.9,1.9
			h-2.89c-1.05,0-1.9-0.85-1.9-1.9c0.02-3.9,0.06-7.83-0.14-11.75c-0.24-4.68-5.12-4.99-5.03-0.05c0.07,3.84-0.06,7.7-0.1,11.74
			c-0.01,1.04-0.85,1.89-1.89,1.89h-1.76c-1.04,0-1.89-0.84-1.89-1.89c-0.03-3.67-0.12-7.32,0.06-10.95c0.15-3.05-0.6-4.65-3.6-4.06
			c-0.88,0.17-1.52,0.96-1.52,1.86v13.23c0,1.05-0.85,1.9-1.9,1.9h-1.77c-1.05,0-1.9-0.85-1.9-1.9V14.62c0-0.89-0.63-1.67-1.5-1.86
			c-2.82-0.6-4,0.44-3.85,3.74c0.17,3.67,0.08,7.34,0.05,11.2c-0.01,1.04-0.85,1.89-1.89,1.89H39.19c-1.05,0-1.9-0.86-1.89-1.92
			c0.03-3.75,0.14-7.52-0.12-11.26c-0.09-1.34-0.26-3.22-1.32-3.47c-3.08-0.72-3.84,1.59-3.83,3.57c0,3.68,0,7.37,0,11.25
			C32.01,28.8,31.16,29.66,30.12,29.66z"/>
	</g>
</g>
</svg>
