<?xml version="1.0" encoding="utf-8"?>
<!-- Generator: Adobe Illustrator 25.3.1, SVG Export Plug-In . SVG Version: 6.00 Build 0)  -->
<svg version="1.1" id="Layer_1" xmlns="http://www.w3.org/2000/svg" xmlns:xlink="http://www.w3.org/1999/xlink" x="0px" y="0px"
	 viewBox="0 0 268.32 363.38" style="enable-background:new 0 0 268.32 363.38;" xml:space="preserve">
<style type="text/css">
	.st0{fill:transparent;}
	.st1{fill:#010101;}
	.st2{fill:#F5921B;}
	.st3{fill:#020101;}
	.st4{fill:#020202;}
	.st5{fill:#1D100C;}
	.st6{fill:#E3A150;}
	.st7{fill:#D39D53;}
	.st8{fill:#D6974C;}
	.st9{fill:#D49950;}
	.st10{fill:#F8F8F8;}
	.st11{fill:#D9984B;}
	.st12{fill:#D89546;}
	.st13{fill:#D49345;}
	.st14{fill:#ECA850;}
	.st15{fill:#DB9A4D;}
	.st16{fill:#D99B4F;}
	.st17{fill:#FEFDF9;}
	.st18{fill:#D99443;}
	.st19{fill:#D19349;}
	.st20{fill:#E4A558;}
	.st21{fill:#D79C54;}
	.st22{fill:#DE9D4E;}
	.st23{fill:#3E1C0A;}
	.st24{fill:#D1984B;}
	.st25{fill:#F19320;}
	.st26{fill:#F19321;}
</style>
<g>
	<path class="st0" d="M268.32,363.36c-89.44,0-178.88,0-268.32,0C0,242.24,0,121.12,0,0c89.44,0,178.88,0,268.32,0
		C268.32,121.12,268.32,242.24,268.32,363.36z M148.07,104.52c-0.05-0.17-0.1-0.34-0.15-0.51c0.62-4.61,0.1-5.64-3.87-7.55
		c-1.36-0.65-2.76-1.22-4.12-1.87c-17.86-8.56-35.72-17.11-53.57-25.69c-4.86-2.34-9.58-5.03-14.59-6.99
		c-5.15-2.02-10.57-2.12-13.92,3.53c-3.88,6.55-8.22,12.83-12.35,19.23c-10.13,15.68-20.18,31.43-30.46,47.02
		c-3.03,4.6-5.21,9.15-4.55,14.86c0.24,2.04,0.53,3.85,1.73,5.54c4.41,6.22,8.76,12.47,13.12,18.73
		c11.72,16.8,23.41,33.61,35.14,50.39c2.45,3.5,5.02,6.93,7.53,10.39c0.62,0.92,1.24,1.83,1.86,2.75c2.09,3.07,4.17,6.13,6.26,9.2
		c2.97,4.31,6.02,8.57,8.86,12.96c0.7,1.09,1.19,2.66,1.03,3.91c-1.05,8.07-2.29,16.11-3.51,24.15c-1.44,9.52-2.95,19.02-4.39,28.54
		c-1.58,10.46-3.12,20.92-4.66,31.38c-0.5,3.39-0.97,6.78-1.47,10.32c44.9,0,89.41,0,134.13,0c0-0.72,0-1.34,0-1.96
		c0-26.12-0.01-52.25,0.03-78.37c0-1.07,0.16-2.26,0.62-3.2c9.13-18.51,18.34-36.97,27.49-55.47c3.52-7.11,7.16-14.18,10.33-21.45
		c4.37-10.04,3.79-20.81,3.84-31.43c0-0.48-0.56-0.97-1.16-1.93c-0.74,0.96-1.16,1.65-1.71,2.21c-8.5,8.74-17.02,17.47-25.53,26.21
		c0.02-1.34,0.16-2.68,0.04-4.01c-0.18-2.06-0.53-4.11-0.81-6.17c0.22-0.33,0.39-0.72,0.68-0.97c11.9-10.66,23.78-21.33,35.73-31.92
		c1.87-1.66,3.46-3.25,2.82-5.99c-0.2-0.84-0.29-1.76-0.71-2.47c-1.88-3.22-3.72-6.48-5.84-9.53c-3.79-5.45-8.24-10.34-13.56-14.36
		c-2.18-1.65-4.15-1.28-5.88,0.64c-8.31,9.2-16.64,18.38-24.96,27.57c-0.63-0.77-1.26-1.54-1.9-2.3c-0.14-0.14-0.29-0.29-0.43-0.43
		c-0.18-0.33-0.36-0.67-0.54-1c-0.34-0.31-0.68-0.63-1.02-0.94c0.51-0.64,0.99-1.3,1.54-1.91c4.72-5.27,9.46-10.52,14.18-15.79
		c4.35-4.84,8.61-9.77,13.08-14.49c1.76-1.85,1.65-3.63,0.79-5.63c-0.44-1.02-1.01-1.99-1.62-2.92c-4.06-6.25-9.17-11.6-14.88-16.3
		c-4.27-3.52-8.8-6.75-13.43-9.79c-2.67-1.75-5.14-0.94-6.95,1.52c-9.11,12.4-18.22,24.81-27.32,37.21
		c-1.96-0.82-3.91-1.63-5.87-2.45c9.96-14.47,19.91-28.94,29.9-43.39c1.37-1.98,1.37-3.84-0.09-5.64c-1.45-1.79-2.85-3.7-4.63-5.11
		c-4.53-3.6-9.03-7.31-13.96-10.29c-5.45-3.3-11.25-6.11-17.12-8.6c-4.14-1.75-6.46-0.53-8.71,3.25c-1.02,1.71-1.98,3.44-3,5.15
		c-6.89,11.52-13.8,23.02-20.68,34.55c-1.38,2.3-1.17,2.87,1.1,4.05c6.42,3.32,12.78,6.75,19.26,9.92c4.11,2.01,7.17,4.65,7.67,9.46
		c0.16,1.56,0.22,3.13,0.33,4.7c-0.62-0.1-1.24-0.21-1.86-0.31c-0.47-0.03-0.94-0.06-1.4-0.09c-0.65-0.02-1.29-0.04-1.94-0.06
		L148.07,104.52z M106.23,11.43c-1.8,0-3.11-0.18-4.34,0.06c-0.88,0.17-2.01,0.7-2.41,1.41C91.96,26.34,84.52,39.81,77.1,53.3
		c-1.88,3.41-1.47,4.29,1.96,5.88c12.02,5.59,24.03,11.18,35.98,16.92c1.87,0.9,2.73,0.64,3.75-1.07
		c8.01-13.34,16.06-26.65,24.17-39.92c1.1-1.8,0.89-3.27-0.38-4.76c-0.57-0.67-1.15-1.33-1.76-1.96
		c-5.46-5.65-12.32-9.22-19.26-12.56C116.59,13.44,111.6,10.7,106.23,11.43z"/>
	<path class="st1" d="M220.03,189.38c8.51-8.73,17.03-17.46,25.53-26.2c0.55-0.57,0.97-1.25,1.71-2.21c0.6,0.97,1.16,1.45,1.16,1.93
		c-0.06,10.63,0.52,21.4-3.84,31.43c-3.16,7.27-6.81,14.34-10.33,21.45c-9.15,18.5-18.36,36.97-27.49,55.47
		c-0.47,0.94-0.62,2.13-0.62,3.2c-0.03,26.12-0.03,52.25-0.03,78.37c0,0.62,0,1.24,0,1.96c-44.72,0-89.22,0-134.13,0
		c0.5-3.54,0.97-6.94,1.47-10.32c1.55-10.46,3.08-20.92,4.66-31.38c1.44-9.52,2.95-19.02,4.39-28.54
		c1.22-8.04,2.46-16.09,3.51-24.15c0.16-1.25-0.32-2.82-1.03-3.91c-2.84-4.39-5.89-8.65-8.86-12.96c1.27,0.48,2.54,0.97,3.81,1.45
		c0.18,0.18,0.36,0.35,0.53,0.53c0.16,0.14,0.31,0.28,0.47,0.42c0,0,0.02,0.02,0.02,0.02c0.02,1.65,0.82,2.45,2.49,2.33
		c0.23,0.08,0.47,0.15,0.7,0.23l0.01-0.01c1.97,1.55,3.94,3.09,5.9,4.64c0,0-0.01-0.01-0.01-0.01c0.33,0.26,0.65,0.51,0.98,0.77
		c1.53,0.99,3.03,2.05,4.61,2.97c7.25,4.22,14.85,7.56,23.15,9.15c1.27,0.18,2.53,0.37,3.8,0.55c0.17,0.15,0.33,0.4,0.51,0.42
		c7.01,0.89,13.99,2.34,21.1,0.93c4.79-0.8,9.59-1.59,14.38-2.39c5.5-2.05,11.01-4.07,16.47-6.2c0.88-0.34,1.56-1.2,2.33-1.82
		c2.03-1.15,4.06-2.31,6.1-3.46c1.5-1.02,3-2.04,4.5-3.05c0,0,0.07-0.05,0.07-0.05c0.78-0.64,1.55-1.27,2.33-1.91l-0.16-0.14
		l0.17,0.12c1.08-1.05,2.16-2.09,3.24-3.14c0.78-0.75,1.57-1.5,2.35-2.25c0.17-0.18,0.35-0.36,0.52-0.55c0,0-0.04,0.04-0.04,0.04
		c0.17-0.17,0.35-0.34,0.52-0.52l-0.02,0.05c2.38-2.74,4.77-5.49,7.15-8.23l-0.02,0.03c0.4-0.58,0.79-1.15,1.19-1.73
		c0,0,0.04-0.03,0.04-0.03c0.25-0.37,0.49-0.75,0.74-1.12c0,0-0.02,0.02-0.02,0.02c0.4-0.56,0.79-1.13,1.19-1.69l0.06-0.09
		c1.47-2.62,2.93-5.24,4.4-7.87c0,0,0.04-0.07,0.04-0.07c0.56-1.13,1.18-2.23,1.67-3.4c3.18-7.64,5.58-15.49,6.02-23.83
		C219.63,192.88,219.83,191.13,220.03,189.38z M148.88,333.89c0.42-0.98,0.61-1.26,0.67-1.57c0.79-4.42,1.56-8.84,2.33-13.27
		c1.29-7.46,2.57-14.93,3.83-22.4c0.75-4.44,0.56-9.27,5.62-11.68c1.42-0.67,2.63-1.79,3.93-2.71c3.2-2.27,6.4-4.55,10.01-7.12
		c-3.52,0.52-6.46,1.12-9.42,1.37c-11.02,0.94-21.65-0.63-31.82-5.12c-0.93-0.41-2.01-0.49-3.02-0.73c4.59,5.13,9.39,9.78,14,14.61
		c0.98,1.03,1.74,2.68,1.83,4.09c0.52,8,0.85,16.01,1.16,24.01c0.24,6.12,0.35,12.24,0.53,18.36
		C148.55,332.21,148.69,332.69,148.88,333.89z"/>
	<path class="st2" d="M183.5,254.04c-2.03,1.15-4.06,2.31-6.1,3.46c-6.28,2.51-12.55,5.02-18.83,7.53
		c-1.62,0.32-3.24,0.67-4.87,0.94c-3.16,0.52-6.32,0.99-9.48,1.49c-7.21-0.3-14.41-0.6-21.62-0.9c-1.27-0.18-2.53-0.37-3.8-0.55
		c-1.22-0.53-2.4-1.15-3.66-1.57c-8.48-2.84-16.6-6.43-24.11-11.34c-0.33,0.01-0.65,0.01-0.98,0.02c0,0,0.01,0.01,0.01,0.01
		c-1.35-2.33-3.07-4.19-5.9-4.64c0,0-0.01,0.01-0.01,0.01c-0.47-2.33-2.15-3.36-4.24-3.95c0,0,0.05,0.01,0.05,0.01
		c-0.18-0.17-0.36-0.34-0.53-0.51l0.04,0.03c-0.17-0.18-0.34-0.35-0.5-0.53l0.04,0.04c-0.17-0.17-0.34-0.35-0.51-0.52l0.04,0.04
		c-0.17-0.18-0.33-0.35-0.5-0.53l0.02,0.03c-0.01-1.05,0.08-2.21-1.6-1.65l-0.07-0.13c-0.57-0.68-1.14-1.36-1.72-2.04
		c0,0,0.04-0.01,0.04-0.01c-0.16-0.17-0.32-0.35-0.48-0.52c0,0,0.02,0.02,0.02,0.02c-0.7-0.9-1.4-1.8-2.1-2.7
		c0,0-0.05-0.05-0.05-0.05c-0.69-2.71-2.2-4.83-4.54-6.36c-0.02-0.16-0.05-0.32-0.07-0.49c-0.16-0.31-0.32-0.61-0.48-0.92l0.01,0.01
		c-0.76-1.74-1.44-3.51-2.28-5.2c-2.87-5.77-5.29-11.7-6.4-18.07c-0.73-4.2-1.62-8.42-1.78-12.66c-0.23-5.83-0.31-11.74,0.42-17.51
		c0.73-5.77,2.53-11.41,3.87-17.11c1.58-3.7,3.17-7.39,4.75-11.09l-0.04,0.05c0.18-0.33,0.36-0.66,0.53-0.99
		c0,0-0.03,0.05-0.03,0.05c0.18-0.33,0.35-0.66,0.53-0.98l-0.02,0.03c0.15-0.2,0.29-0.39,0.44-0.59l-0.06,0.05
		c0.18-0.33,0.37-0.65,0.55-0.98c0,0-0.04,0.04-0.04,0.04c0.21-0.13,0.42-0.27,0.64-0.4c1.91-2.73,3.82-5.46,5.72-8.2
		c1.62-1.91,3.24-3.82,4.86-5.72c1.33-0.09,2.34-0.48,2.05-2.13l0.06-0.05c1.72-1.1,3.46-2.16,5.13-3.33
		c0.26-0.18,0.18-0.86,0.26-1.31c0,0-0.02,0.04-0.02,0.04c0.18-0.17,0.36-0.34,0.53-0.51l-0.03,0.02c1.56,0.47,3.11,0.96,4.68,1.39
		c1.35,0.37,2.72,0.68,4.08,1.02l-0.02-0.03c0.4,0.4,0.74,0.94,1.22,1.17c5.23,2.46,10.83,3.65,16.51,4.09
		c3.3,0.25,6.68-0.54,10.02-0.87c4.32-0.35,8-2.37,11.55-4.6c1.08-0.68,1.85-1.84,2.76-2.79c0.14-0.1,0.28-0.21,0.42-0.31
		c0.37-0.1,0.89-0.08,1.09-0.32c2.4-2.91,4.97-5.72,7.02-8.86c1.14-1.76,1.39-4.1,2.04-6.18l-0.03,0.03
		c0.66-0.13,1.32-0.26,1.97-0.39c0.47,0.03,0.94,0.06,1.4,0.09c0.31,1.19,1.04,2.44,0.86,3.55c-0.74,4.68-1.79,9.31-2.63,13.98
		c-0.14,0.76,0.22,1.6,0.35,2.41l0.07,0.05c0.47,0.2,1.32,0.62,1.36,0.56c0.79-1.34,1.48-2.73,2.2-4.11l0.06,0.19l-0.05-0.19
		c1.1-1.6,2.2-3.2,3.3-4.8l0.02-0.03c1.78-0.34,2.06-1.69,2.13-3.18l-0.02,0.02c1.76-0.2,2.06-1.4,1.97-2.87l-0.01,0.02
		c0.38-0.07,0.97-0.02,1.11-0.24c1.17-1.85,2.83-1.39,4.14-0.57c0.55,0.34,0.4,1.83,0.56,2.79l0.03-0.02
		c-0.27,0.36-0.54,0.73-0.81,1.09l-0.11-0.15c0,0,0.09,0.16,0.09,0.16c-1,1.32-1.99,2.64-2.99,3.96c-1.27,1.63-2.54,3.27-3.81,4.9
		c-0.18,0.36-0.36,0.72-0.54,1.08l0.03,0c-0.25,0.36-0.5,0.72-0.75,1.09l-0.08,0.12c-2.05-0.47-1.56,1.05-1.65,2.11l0.01-0.01
		c-0.49,0.32-1.12,0.55-1.46,0.99c-2.1,2.75-4.15,5.55-6.19,8.35c-0.11,0.15,0.04,0.49,0.07,0.74c-1.09,1.97-0.5,3.81,0.4,5.64
		c-0.72,2.69-1.43,5.38-2.2,8.27c-2.43-0.53-4.65-1.02-7.17-1.57c1.22-4.98,2.38-9.72,3.55-14.51c-3.13-0.8-5.94-1.51-8.91-2.27
		c-1.3,5.05-2.53,9.8-3.81,14.79c-6.17-1.48-12.09-2.9-18.22-4.37c-0.81,3.32-1.54,6.3-2.31,9.47c1.4,0.37,2.55,0.66,3.69,0.97
		c1.23,0.33,2.5,0.58,3.68,1.04c2.74,1.06,3.77,3.04,3.08,5.88c-1.02,4.18-2.11,8.35-3.14,12.53c-2.11,8.6-4.2,17.2-6.3,25.8
		c-0.81,3.32-2.2,4.2-5.56,3.46c-1.4-0.31-2.77-0.77-4.18-1.03c-0.53-0.1-1.51-0.01-1.65,0.3c-1.44,3.06-2.74,6.18-4.18,9.49
		c6.3,1.65,12.12,3.18,18.09,4.75c-1.23,5.05-2.4,9.88-3.62,14.89c3.12,0.8,5.87,1.5,8.9,2.28c1.28-5.03,2.51-9.85,3.78-14.79
		c2.5,0.64,4.7,1.2,7.14,1.83c-1.22,5-2.38,9.76-3.6,14.77c3.04,0.76,5.91,1.47,8.95,2.23c1.13-4.5,2.23-8.57,3.15-12.69
		c0.34-1.54,0.91-2.19,2.55-1.9c2.04,0.36,4.11,0.59,6.17,0.78c5.32,0.5,10.62,0.28,15.33-2.48c6.73-3.95,9.24-10.45,9.85-17.86
		c0.47-5.76-2.19-9.95-6.77-13.13c-0.75-0.52-1.49-1.06-2.47-1.77c8.52-2.84,11.49-9.02,11.13-17.16c-0.1-2.17-0.89-4.31-1.36-6.46
		c1.92,0.02,3.12,2.83,5.06,1.75c1.72-0.95,3.01-2.68,4.46-4.1c0.43-0.42,0.76-0.95,1.13-1.44c0.55-0.62,1.09-1.25,1.64-1.87
		l-0.02,0.02c0.17-0.17,0.34-0.34,0.5-0.5c0,0-0.02,0.01-0.02,0.01c0.91-1.01,1.82-2.02,2.73-3.03c0,0,0.04,0.16,0.04,0.16
		l-0.05-0.16c0.28-0.33,0.56-0.67,0.85-1l0.1-0.03c0.14-0.15,0.28-0.29,0.42-0.44l0.06-0.05c0.14-0.14,0.28-0.29,0.42-0.43
		l0.03-0.06c2.02-0.99,3.78-2.2,4.05-4.7c0.11-0.11,0.22-0.21,0.33-0.32c0.21-0.17,0.42-0.35,0.63-0.52l-0.04,0.02
		c0.16-0.18,0.33-0.36,0.49-0.54l-0.05,0.01c2.78-1.3,4.49-3.55,5.61-6.33l0.04-0.02c0.31-0.33,0.62-0.65,0.92-0.98l0.06,0.02
		c0.2-0.13,0.39-0.27,0.59-0.4c0.34-0.48,0.69-0.96,1.03-1.44c0.34,0.31,0.68,0.63,1.02,0.94c0.18,0.33,0.36,0.67,0.54,1
		c0.14,0.14,0.29,0.29,0.43,0.43c0.23,0.78,0.47,1.56,0.58,1.93c-0.81,1.57-1.47,2.83-2.12,4.1c-0.11,0.12-0.22,0.24-0.33,0.36
		c-0.2,0.18-0.4,0.36-0.59,0.54c0,0,0.05-0.03,0.05-0.03c-1.77,1.57-3.62,3.05-5.27,4.73c-0.8,0.82-1.23,2.02-1.82,3.05l-0.01-0.03
		c-0.37,0.39-0.74,0.79-1.1,1.18c-0.81,0.84-1.62,1.67-2.42,2.51c-0.64,0.81-1.28,1.62-1.91,2.42l0.02-0.02
		c-2.37,1.36-4.52,2.93-5.28,5.77l0.01-0.01c-1.48-0.09-1.89,0.76-1.81,2.05l-0.01-0.06c-0.66,1.04-2.02,2.22-1.84,3.09
		c0.49,2.43,1.14,5.05,3.89,6.16l-0.03,0.07c0.14,0.19,0.28,0.38,0.42,0.57c0,0,0.01-0.06,0.01-0.06c0.15,0.5,0.15,1.14,0.47,1.48
		c3.2,3.41,6.44,6.78,9.73,10.11c0.37,0.38,1.14,0.37,1.73,0.54c0.79,0.48,1.57,0.96,2.36,1.44c2.66,1.94,4.75,1.45,6.08-1.45
		c0.18-0.18,0.36-0.36,0.54-0.55c0.33-0.28,0.66-0.55,0.99-0.83c3.77-3.23,7.53-6.47,11.3-9.7c0.28,2.06,0.63,4.11,0.81,6.17
		c0.12,1.32-0.02,2.67-0.04,4.01c-0.2,1.75-0.39,3.51-0.59,5.26c-0.32,0.54-0.84,1.05-0.92,1.62c-0.81,6.18-2.06,12.23-4.46,18.03
		c-1,2.43-1.56,5.05-2.31,7.58c0,0-0.04,0.07-0.04,0.07c-1.47,2.62-2.93,5.24-4.4,7.87c0,0-0.06,0.09-0.06,0.09
		c-0.4,0.56-0.79,1.13-1.18,1.69c0,0,0.02-0.02,0.02-0.02c-0.25,0.37-0.49,0.75-0.74,1.12c0,0-0.04,0.03-0.04,0.03
		c-0.4,0.58-0.79,1.15-1.19,1.73c0,0,0.02-0.03,0.02-0.03c-0.53,0.29-1.2,0.46-1.58,0.89c-1.89,2.18-3.7,4.42-5.52,6.66
		c-0.12,0.15-0.04,0.45-0.06,0.69c0,0,0.02-0.05,0.02-0.05c-0.17,0.17-0.35,0.34-0.52,0.52c0,0,0.04-0.04,0.04-0.04
		c-0.17,0.18-0.35,0.36-0.52,0.55c-0.78,0.75-1.57,1.5-2.35,2.25c-1.08,1.05-2.16,2.09-3.24,3.14l-0.17-0.12
		c0,0,0.16,0.14,0.16,0.14c-0.78,0.64-1.55,1.27-2.33,1.91c0,0-0.07,0.05-0.07,0.05C185.82,251,184.36,252.08,183.5,254.04z"/>
	<path class="st3" d="M78.67,128.48c-1.62,1.91-3.24,3.82-4.86,5.72c-2.06,2.72-4.11,5.45-6.17,8.17c-0.06,0.14-0.13,0.28-0.19,0.43
		c0,0,0.04-0.04,0.04-0.04c-0.18,0.33-0.37,0.65-0.55,0.98c0,0,0.06-0.05,0.06-0.05c-0.15,0.2-0.29,0.39-0.44,0.59
		c0,0,0.02-0.03,0.02-0.03c-0.18,0.33-0.35,0.66-0.53,0.98c0,0,0.03-0.05,0.03-0.05c-0.18,0.33-0.36,0.66-0.53,0.99
		c0,0,0.04-0.05,0.04-0.05c-1.73,3.54-3.46,7.08-5.19,10.62c-0.14,0.46-0.28,0.92-0.43,1.37c-8.12,23.54-6.15,46.23,5.73,68.08
		c0.32,0.59,0.87,1.05,1.32,1.58c0,0-0.01-0.01-0.01-0.01c0.16,0.31,0.32,0.61,0.48,0.92c0.02,0.16,0.05,0.32,0.07,0.49
		c0.16,0.8,0.31,1.61,0.47,2.41c-2.51-3.46-5.08-6.88-7.53-10.39c-11.73-16.79-23.43-33.6-35.14-50.39
		c-4.36-6.25-8.71-12.51-13.12-18.73c-1.2-1.69-1.49-3.5-1.73-5.54c-0.66-5.7,1.52-10.26,4.55-14.86
		c10.28-15.59,20.32-31.33,30.46-47.02c4.13-6.4,8.47-12.68,12.35-19.23c3.35-5.65,8.77-5.55,13.92-3.53
		c5.01,1.97,9.72,4.66,14.59,6.99c17.85,8.57,35.71,17.13,53.57,25.69c1.36,0.65,2.76,1.22,4.12,1.87c3.97,1.91,4.49,2.94,3.87,7.55
		c-0.09,0.08-0.19,0.16-0.28,0.24c0.15,0.09,0.29,0.18,0.44,0.27c0,0-0.03-0.01-0.03-0.01c0.03,0.15,0.02,0.31-0.03,0.45
		c0,0,0.03-0.03,0.03-0.02c-2.3,5.83-5.7,10.94-10.15,15.36c-0.14,0.1-0.28,0.21-0.42,0.31c-4.28,2.97-8.82,5.4-13.9,6.7
		c-0.16,0.05-0.32,0.11-0.49,0.16l0-0.01c-6.19,0.9-12.34,0.75-18.39-0.93c-3.13-0.87-6.2-1.94-9.29-2.92c0,0,0.02,0.03,0.02,0.03
		c-2.11-1.07-4.17-2.26-6.35-3.13c-0.61-0.24-1.6,0.45-2.41,0.72c0,0,0.03-0.02,0.03-0.02c-0.18,0.17-0.36,0.34-0.53,0.51
		c0,0,0.02-0.04,0.02-0.04c-1.8,1.55-3.59,3.09-5.39,4.64c0,0-0.06,0.05-0.06,0.05C80.04,127.06,79.36,127.77,78.67,128.48z"/>
	<path class="st3" d="M194.37,147.64c-0.11,0.11-0.22,0.21-0.33,0.32c-1.35,1.57-2.7,3.13-4.05,4.7c0,0-0.03,0.06-0.03,0.06
		c-0.14,0.14-0.28,0.29-0.42,0.43c0,0-0.06,0.05-0.06,0.05c-0.14,0.15-0.28,0.29-0.42,0.44c0,0-0.1,0.03-0.1,0.03
		c-0.28,0.33-0.56,0.67-0.85,1l0.05,0.16c0,0-0.04-0.16-0.04-0.16c-0.91,1.01-1.82,2.02-2.73,3.02c0,0,0.02-0.01,0.02-0.01
		c-0.17,0.17-0.34,0.34-0.5,0.5c0,0,0.02-0.02,0.02-0.02c-0.55,0.62-1.09,1.25-1.64,1.87c-0.38,0.48-0.7,1.01-1.13,1.44
		c-1.45,1.42-2.74,3.15-4.46,4.1c-1.95,1.08-3.15-1.73-5.06-1.75c0,0-0.03-0.01-0.03-0.01c-0.13-0.1-0.26-0.19-0.38-0.29
		c-3.28-2.59-6.56-5.17-9.84-7.76c-1.85-1.64-3.7-3.29-5.55-4.93c-2.6-2.85-5.19-5.7-7.79-8.55c-0.9-1.82-1.49-3.67-0.4-5.64
		c2.53-3.36,5.06-6.72,7.58-10.08l-0.01,0.01c0.55-0.7,1.1-1.41,1.65-2.11c0,0,0.08-0.12,0.07-0.12c0.25-0.36,0.5-0.72,0.75-1.08
		c0,0-0.03,0-0.03,0c0.18-0.36,0.36-0.72,0.54-1.08c1.27-1.63,2.54-3.27,3.81-4.9c1-1.32,1.99-2.64,2.99-3.96l-0.09-0.16
		c0,0,0.11,0.15,0.11,0.15c0.27-0.36,0.54-0.73,0.81-1.09c0,0-0.03,0.02-0.03,0.02c0.75-0.96,1.5-1.91,2.25-2.87
		c9.11-12.4,18.22-24.81,27.32-37.21c1.81-2.46,4.28-3.27,6.95-1.52c4.63,3.04,9.16,6.27,13.43,9.79
		c5.71,4.7,10.82,10.05,14.88,16.3c0.61,0.93,1.18,1.9,1.62,2.92c0.86,2,0.97,3.78-0.79,5.63c-4.48,4.72-8.73,9.65-13.08,14.49
		c-4.73,5.26-9.46,10.52-14.18,15.79c-0.54,0.61-1.03,1.27-1.54,1.91c-0.34,0.48-0.69,0.96-1.03,1.44c-0.2,0.13-0.39,0.27-0.59,0.4
		c0,0-0.06-0.02-0.06-0.02c-0.31,0.33-0.62,0.65-0.92,0.98c0,0-0.04,0.02-0.04,0.02c-1.87,2.11-3.74,4.22-5.61,6.33
		c0,0,0.05-0.01,0.05-0.01c-0.16,0.18-0.33,0.36-0.49,0.54c0,0,0.04-0.02,0.04-0.02C194.79,147.29,194.58,147.47,194.37,147.64z"/>
	<path class="st4" d="M153.24,104.97c-0.11-1.57-0.17-3.14-0.33-4.7c-0.5-4.81-3.56-7.46-7.67-9.46c-6.49-3.17-12.85-6.6-19.26-9.92
		c-2.27-1.17-2.47-1.74-1.1-4.05c6.88-11.52,13.79-23.03,20.68-34.55c1.02-1.7,1.99-3.44,3-5.15c2.25-3.79,4.57-5.01,8.71-3.25
		c5.87,2.49,11.67,5.3,17.12,8.6c4.93,2.98,9.43,6.7,13.96,10.29c1.78,1.41,3.18,3.33,4.63,5.11c1.46,1.8,1.46,3.66,0.09,5.64
		c-9.99,14.45-19.94,28.92-29.89,43.39c-0.73,1.11-1.46,2.23-2.19,3.34c0,0,0.01-0.02,0.01-0.02c-0.66,0.96-1.31,1.91-1.97,2.87
		c0,0,0.02-0.02,0.02-0.02c-0.71,1.06-1.42,2.12-2.13,3.18c0,0-0.02,0.03-0.02,0.03c-1.1,1.6-2.2,3.2-3.3,4.8l0.05,0.19
		c0,0-0.06-0.19-0.06-0.19c-1.19,1.18-2.37,2.36-3.56,3.54c0,0-0.07-0.05-0.07-0.05c0.82-3.72,1.76-7.41,2.41-11.16
		C152.85,110.65,152.96,107.79,153.24,104.97z"/>
	<path class="st4" d="M206.97,189.73c-0.18,0.18-0.36,0.36-0.54,0.55c-1.91,0.95-3.72,2.35-6.08,1.45
		c-0.79-0.48-1.57-0.96-2.36-1.44c-3.97-4.04-7.95-8.08-11.92-12.12c0,0-0.01,0.06-0.01,0.06c-0.14-0.19-0.28-0.38-0.42-0.57
		c0,0,0.03-0.07,0.03-0.06c-0.8-1.27-1.64-2.51-2.37-3.81c-1.04-1.86-1.15-3.71,0.33-5.44c0,0,0.01,0.06,0.01,0.06
		c0.6-0.68,1.21-1.37,1.81-2.05c0,0-0.01,0.01-0.01,0.01c1.76-1.92,3.52-3.85,5.28-5.77c0,0-0.02,0.02-0.02,0.02
		c0.64-0.81,1.28-1.62,1.91-2.42c0.81-0.84,1.62-1.67,2.42-2.51c0.37-0.39,0.74-0.79,1.1-1.18c0,0,0.01,0.03,0.01,0.03
		c2.36-2.59,4.73-5.19,7.09-7.78c0,0-0.05,0.03-0.05,0.03c0.2-0.18,0.4-0.36,0.59-0.54c0.11-0.12,0.22-0.24,0.33-0.36
		c1.15-1.24,2.29-2.48,3.43-3.72c8.32-9.19,16.65-18.37,24.96-27.57c1.73-1.92,3.7-2.29,5.88-0.64c5.31,4.02,9.77,8.91,13.56,14.36
		c2.12,3.06,3.96,6.32,5.84,9.53c0.42,0.72,0.51,1.64,0.71,2.47c0.64,2.74-0.96,4.34-2.82,5.99c-11.95,10.6-23.83,21.27-35.73,31.92
		c-0.29,0.26-0.45,0.65-0.68,0.97c-3.77,3.23-7.53,6.47-11.3,9.7C207.63,189.18,207.3,189.45,206.97,189.73z"/>
	<path class="st4" d="M106.23,11.43c5.37-0.73,10.35,2.01,15.33,4.4c6.94,3.34,13.8,6.91,19.26,12.56c0.61,0.63,1.19,1.29,1.76,1.96
		c1.27,1.49,1.48,2.96,0.38,4.76c-8.11,13.28-16.16,26.59-24.17,39.92c-1.02,1.7-1.88,1.97-3.75,1.07
		c-11.95-5.73-23.97-11.33-35.98-16.92c-3.43-1.59-3.84-2.47-1.96-5.88c7.42-13.49,14.87-26.97,22.39-40.4
		c0.4-0.71,1.53-1.24,2.41-1.41C103.12,11.25,104.44,11.43,106.23,11.43z"/>
	<path class="st5" d="M79.95,244.98c-1.27-0.48-2.54-0.97-3.81-1.45c-2.09-3.07-4.17-6.13-6.26-9.2c0.74,0.4,1.48,0.8,2.22,1.2
		c0,0,0.05,0.05,0.05,0.05c0.7,0.9,1.4,1.8,2.1,2.7c0,0-0.02-0.02-0.02-0.02c0.16,0.17,0.32,0.35,0.48,0.52c0,0-0.04,0.01-0.04,0.01
		c0.57,0.68,1.14,1.36,1.72,2.05c0,0,0.07,0.13,0.07,0.13c0.53,0.55,1.06,1.1,1.6,1.65c0,0-0.02-0.03-0.02-0.03
		c0.17,0.18,0.33,0.35,0.5,0.53c0,0-0.04-0.04-0.04-0.04c0.17,0.17,0.34,0.35,0.51,0.52c0,0-0.04-0.04-0.04-0.04
		c0.17,0.18,0.34,0.35,0.5,0.53c0,0-0.04-0.03-0.04-0.03c0.18,0.17,0.36,0.34,0.53,0.51c0,0-0.05-0.01-0.05-0.01
		C79.94,244.69,79.95,244.83,79.95,244.98z"/>
	<path class="st6" d="M153.24,104.97c-0.28,2.83-0.38,5.68-0.87,8.47c-0.65,3.75-1.59,7.44-2.41,11.16
		c-0.13-0.81-0.48-1.65-0.35-2.41c0.84-4.67,1.89-9.3,2.63-13.98c0.18-1.11-0.55-2.36-0.86-3.55
		C152,104.76,152.62,104.86,153.24,104.97z"/>
	<path class="st7" d="M160.99,110.27c0.73-1.11,1.46-2.23,2.19-3.34c1.95,0.82,3.91,1.63,5.86,2.45c-0.75,0.96-1.5,1.91-2.25,2.87
		c-0.17-0.96-0.01-2.45-0.56-2.79c-1.31-0.81-2.97-1.28-4.14,0.57C161.95,110.25,161.37,110.19,160.99,110.27z"/>
	<path class="st8" d="M72.09,235.53c-0.74-0.4-1.48-0.8-2.22-1.2c-0.62-0.92-1.24-1.84-1.86-2.75c-0.16-0.8-0.31-1.61-0.47-2.41
		C69.89,230.69,71.4,232.82,72.09,235.53z"/>
	<path class="st9" d="M207.55,142.15c-1.14,1.24-2.29,2.48-3.43,3.72c0.65-1.26,1.31-2.52,2.12-4.09c-0.11-0.37-0.35-1.15-0.58-1.93
		C206.28,140.61,206.91,141.38,207.55,142.15z"/>
	<path class="st6" d="M148,104.96c0.05-0.15,0.07-0.3,0.03-0.45c0.65,0.02,1.29,0.04,1.94,0.06
		C149.32,104.69,148.66,104.83,148,104.96z"/>
	<path class="st9" d="M205.22,139.41c-0.18-0.33-0.36-0.67-0.54-1C204.86,138.74,205.04,139.08,205.22,139.41z"/>
	<path class="st6" d="M148.07,104.52c-0.15-0.09-0.29-0.18-0.44-0.27c0.1-0.08,0.19-0.16,0.28-0.24
		C147.97,104.17,148.02,104.35,148.07,104.52z"/>
	<path class="st10" d="M148.88,333.89c-0.2-1.2-0.33-1.68-0.34-2.17c-0.18-6.12-0.29-12.24-0.53-18.36
		c-0.31-8.01-0.64-16.02-1.16-24.01c-0.09-1.41-0.85-3.06-1.83-4.09c-4.61-4.83-11.92-14.29-10.99-13.88
		c10.16,4.49,20.8,6.06,31.82,5.12c2.97-0.25,5.91-0.85,9.42-1.37c-3.61,2.57-6.81,4.85-10.01,7.12c-1.3,0.92-2.51,2.03-3.93,2.71
		c-5.07,2.41-4.87,7.25-5.62,11.68c-1.26,7.47-2.55,14.93-3.83,22.4c-0.76,4.42-1.54,8.85-2.33,13.27
		C149.49,332.63,149.3,332.92,148.88,333.89z"/>
	<path class="st11" d="M91.04,253.1c7.5,4.91,15.63,8.5,24.11,11.34c1.25,0.42,2.44,1.04,3.66,1.57c-8.29-1.59-15.9-4.93-23.15-9.15
		c-1.58-0.92-3.08-1.97-4.61-2.97C91.04,253.62,91.04,253.36,91.04,253.1z"/>
	<path class="st12" d="M211.75,221.86c0.76-2.53,1.31-5.15,2.31-7.58c2.4-5.8,3.65-11.85,4.46-18.03c0.07-0.57,0.6-1.08,0.92-1.62
		c-0.44,8.34-2.84,16.19-6.02,23.83C212.93,219.63,212.31,220.73,211.75,221.86z"/>
	<path class="st13" d="M158.57,265.03c6.28-2.51,12.55-5.02,18.83-7.53c-0.77,0.62-1.45,1.48-2.33,1.82
		c-5.47,2.13-10.98,4.14-16.47,6.2C158.59,265.35,158.58,265.19,158.57,265.03z"/>
	<path class="st14" d="M122.6,266.55c7.21,0.3,14.41,0.6,21.62,0.9c0,0.15,0,0.3,0,0.44c-7.11,1.42-14.09-0.03-21.1-0.93
		C122.93,266.95,122.77,266.7,122.6,266.55z"/>
	<path class="st15" d="M144.22,267.9c0-0.15,0-0.3,0-0.44c3.16-0.49,6.33-0.97,9.48-1.49c1.63-0.27,3.25-0.63,4.87-0.94
		c0.01,0.16,0.02,0.33,0.02,0.49C153.8,266.31,149.01,267.11,144.22,267.9z"/>
	<path class="st15" d="M196.99,242.65c0.01-0.23-0.06-0.54,0.06-0.69c1.82-2.24,3.63-4.48,5.52-6.66c0.37-0.43,1.04-0.6,1.58-0.89
		C201.76,237.16,199.37,239.9,196.99,242.65z"/>
	<path class="st15" d="M207.31,229.8c1.47-2.62,2.93-5.24,4.4-7.87C210.24,224.55,208.77,227.17,207.31,229.8z"/>
	<path class="st8" d="M84.17,248.49c2.83,0.45,4.55,2.31,5.9,4.64C88.1,251.58,86.14,250.03,84.17,248.49z"/>
	<path class="st16" d="M183.5,254.04c0.86-1.97,2.32-3.04,4.5-3.06C186.5,252,185,253.02,183.5,254.04z"/>
	<path class="st8" d="M79.95,244.98c0-0.14,0-0.28-0.03-0.43c2.09,0.59,3.76,1.62,4.24,3.95c-0.23-0.08-0.47-0.15-0.7-0.23
		c-0.83-0.78-1.66-1.55-2.49-2.33c0,0-0.02-0.02-0.02-0.02c-0.16-0.14-0.31-0.28-0.47-0.42C80.3,245.33,80.13,245.15,79.95,244.98z"
		/>
	<path class="st16" d="M190.41,249.01c1.08-1.05,2.16-2.09,3.24-3.14C192.58,246.92,191.49,247.96,190.41,249.01z"/>
	<path class="st5" d="M80.97,245.94c0.83,0.78,1.66,1.55,2.49,2.33C81.79,248.39,80.98,247.59,80.97,245.94z"/>
	<path class="st16" d="M188.07,250.94c0.78-0.64,1.55-1.28,2.33-1.91C189.62,249.66,188.85,250.3,188.07,250.94z"/>
	<path class="st15" d="M204.12,234.44c0.4-0.58,0.79-1.15,1.19-1.73C204.92,233.29,204.52,233.87,204.12,234.44z"/>
	<path class="st15" d="M206.07,231.58c0.39-0.56,0.79-1.13,1.18-1.69C206.86,230.46,206.46,231.02,206.07,231.58z"/>
	<path class="st15" d="M205.35,232.69c0.25-0.37,0.49-0.75,0.74-1.12C205.84,231.94,205.6,232.31,205.35,232.69z"/>
	<path class="st8" d="M91.04,253.1c0,0.26,0,0.52,0,0.79c-0.33-0.26-0.65-0.51-0.98-0.77C90.39,253.11,90.71,253.1,91.04,253.1z"/>
	<path class="st15" d="M196.01,243.62c0.17-0.18,0.35-0.36,0.52-0.55C196.35,243.25,196.18,243.44,196.01,243.62z"/>
	<path class="st5" d="M80.48,245.5c0.16,0.14,0.31,0.28,0.47,0.42C80.79,245.78,80.64,245.64,80.48,245.5z"/>
	<path class="st15" d="M196.48,243.11c0.17-0.17,0.35-0.34,0.52-0.52C196.83,242.77,196.66,242.94,196.48,243.11z"/>
	<path class="st17" d="M149.04,142.28c2.6,2.85,5.19,5.7,7.79,8.55c-0.83,1.09-1.48,2.25,0.26,3.02c1.71,0.75,3.52,1.29,5.29,1.91
		c3.28,2.59,6.56,5.17,9.84,7.75c0.13,0.1,0.26,0.19,0.38,0.29c0,0,0.03,0.01,0.03,0.01c0.47,2.15,1.26,4.29,1.36,6.46
		c0.36,8.13-2.62,14.31-11.13,17.16c0.99,0.71,1.72,1.25,2.47,1.77c4.58,3.18,7.25,7.37,6.77,13.13
		c-0.61,7.41-3.12,13.91-9.85,17.86c-4.71,2.76-10.01,2.98-15.33,2.48c-2.06-0.2-4.13-0.42-6.17-0.78c-1.64-0.29-2.21,0.36-2.55,1.9
		c-0.92,4.12-2.02,8.19-3.15,12.69c-3.04-0.76-5.92-1.48-8.95-2.23c1.22-5.01,2.38-9.78,3.6-14.77c-2.45-0.63-4.64-1.19-7.14-1.83
		c-1.26,4.95-2.49,9.77-3.78,14.79c-3.03-0.78-5.78-1.48-8.9-2.28c1.22-5.01,2.39-9.84,3.62-14.89c-5.97-1.57-11.79-3.09-18.09-4.75
		c1.43-3.32,2.74-6.44,4.18-9.49c0.14-0.3,1.12-0.39,1.65-0.3c1.41,0.26,2.78,0.72,4.18,1.03c3.36,0.74,4.75-0.14,5.56-3.46
		c2.1-8.6,4.19-17.2,6.3-25.8c1.03-4.18,2.12-8.35,3.14-12.53c0.69-2.84-0.33-4.81-3.08-5.88c-1.18-0.46-2.45-0.7-3.68-1.04
		c-1.14-0.31-2.29-0.6-3.69-0.97c0.77-3.16,1.5-6.15,2.31-9.47c6.13,1.47,12.05,2.89,18.22,4.37c1.29-4.99,2.51-9.74,3.81-14.79
		c2.97,0.76,5.78,1.47,8.91,2.27c-1.17,4.8-2.33,9.53-3.55,14.51c2.52,0.55,4.74,1.04,7.17,1.57
		C147.61,147.66,148.33,144.97,149.04,142.28z M125.43,206.74c2.72,0.69,5.16,1.44,7.65,1.91c4.77,0.9,9.56,1.88,14.41,0.4
		c6.12-1.86,8.25-8.8,3.96-13.51c-1.46-1.6-3.33-3.12-5.32-3.88c-4.59-1.75-9.37-3.01-14.06-4.5c-1.19-0.38-1.81,0.03-2.09,1.18
		C128.49,194.37,127,200.38,125.43,206.74z M132.7,177.68c5.22,1.57,10.2,2.94,15.44,2.47c4.33-0.38,7.29-2.74,7.99-6.06
		c0.86-4.08-0.63-7.37-4.4-9.68c-4.42-2.71-9.41-3.62-14.56-4.78C135.68,165.68,134.23,171.53,132.7,177.68z"/>
	<path class="st18" d="M67.02,227.77c-0.44-0.52-0.99-0.99-1.32-1.58c-11.89-21.85-13.85-44.54-5.73-68.08
		c0.16-0.45,0.29-0.91,0.43-1.37c0.15,0.16,0.29,0.31,0.44,0.47c-1.33,5.7-3.14,11.34-3.87,17.11c-0.73,5.77-0.65,11.68-0.42,17.51
		c0.16,4.24,1.05,8.46,1.78,12.66c1.11,6.37,3.53,12.31,6.4,18.07C65.58,224.27,66.26,226.04,67.02,227.77z"/>
	<path class="st19" d="M95.39,123.6c3.1,0.98,6.17,2.05,9.29,2.92c6.05,1.68,12.2,1.83,18.39,0.93c0.02,0.18,0.05,0.36,0.07,0.54
		c-3.34,0.32-6.72,1.12-10.02,0.87c-5.68-0.44-11.28-1.63-16.51-4.09C96.13,124.54,95.8,124,95.39,123.6z"/>
	<path class="st20" d="M137.88,120.29c4.45-4.42,7.84-9.52,10.15-15.36c-0.65,2.08-0.89,4.42-2.04,6.18
		c-2.05,3.15-4.62,5.95-7.02,8.86C138.78,120.21,138.26,120.19,137.88,120.29z"/>
	<path class="st19" d="M186.09,178.16c3.97,4.04,7.95,8.08,11.92,12.12c-0.58-0.17-1.35-0.16-1.73-0.54
		c-3.29-3.32-6.52-6.7-9.73-10.11C186.23,179.3,186.23,178.66,186.09,178.16z"/>
	<path class="st8" d="M123.14,127.99c-0.02-0.18-0.05-0.36-0.07-0.54c0,0,0,0.01,0,0.01c0.16-0.05,0.32-0.11,0.49-0.16
		c5.08-1.3,9.62-3.74,13.9-6.7c-0.91,0.94-1.69,2.11-2.76,2.79C131.15,125.62,127.47,127.64,123.14,127.99z"/>
	<path class="st16" d="M156.23,126.57c-2.53,3.36-5.06,6.72-7.58,10.08c-0.03-0.25-0.18-0.59-0.07-0.74c2.04-2.8,4.08-5.6,6.19-8.35
		C155.1,127.11,155.73,126.89,156.23,126.57z"/>
	<path class="st6" d="M60.84,157.22c-0.15-0.16-0.29-0.31-0.44-0.47c1.73-3.54,3.46-7.08,5.19-10.62
		C64,149.82,62.42,153.52,60.84,157.22z"/>
	<path class="st9" d="M203.23,146.73c-2.36,2.59-4.73,5.19-7.09,7.78c0.59-1.03,1.02-2.23,1.82-3.05
		C199.61,149.78,201.46,148.3,203.23,146.73z"/>
	<path class="st11" d="M67.64,142.38c2.06-2.72,4.11-5.45,6.17-8.17c-1.91,2.73-3.82,5.46-5.72,8.2
		C67.94,142.39,67.79,142.38,67.64,142.38z"/>
	<path class="st6" d="M183.63,168.33c-1.47,1.73-1.36,3.59-0.33,5.44c0.73,1.31,1.58,2.54,2.37,3.81c-2.75-1.12-3.4-3.74-3.89-6.16
		C181.61,170.55,182.97,169.37,183.63,168.33z"/>
	<path class="st19" d="M86.65,121.22c0.81-0.27,1.8-0.96,2.41-0.72c2.19,0.87,4.25,2.06,6.35,3.13c-1.36-0.34-2.73-0.65-4.08-1.02
		C89.77,122.17,88.21,121.68,86.65,121.22z"/>
	<path class="st21" d="M195.4,146.62c1.87-2.11,3.74-4.22,5.61-6.33C199.89,143.07,198.18,145.32,195.4,146.62z"/>
	<path class="st22" d="M190.71,160.58c-1.76,1.92-3.52,3.85-5.28,5.77C186.19,163.52,188.34,161.95,190.71,160.58z"/>
	<path class="st19" d="M80.78,126.3c1.8-1.55,3.59-3.09,5.39-4.64c-0.08,0.45,0,1.12-0.26,1.31
		C84.25,124.14,82.5,125.21,80.78,126.3z"/>
	<path class="st23" d="M200.36,191.72c2.36,0.91,4.16-0.5,6.08-1.45C205.11,193.17,203.02,193.67,200.36,191.72z"/>
	<path class="st21" d="M189.99,152.66c1.35-1.56,2.7-3.13,4.05-4.7C193.77,150.45,192.01,151.67,189.99,152.66z"/>
	<path class="st7" d="M150.03,124.64c1.19-1.18,2.37-2.36,3.56-3.54c-0.72,1.38-1.41,2.77-2.2,4.11
		C151.35,125.27,150.5,124.84,150.03,124.64z"/>
	<path class="st7" d="M153.6,121.1c1.1-1.6,2.2-3.2,3.3-4.8C155.8,117.9,154.7,119.5,153.6,121.1z"/>
	<path class="st7" d="M166,113.33c-1,1.32-1.99,2.64-2.99,3.96C164.01,115.97,165.01,114.65,166,113.33z"/>
	<path class="st21" d="M185.39,157.69c0.91-1.01,1.82-2.02,2.73-3.02C187.21,155.67,186.3,156.68,185.39,157.69z"/>
	<path class="st7" d="M156.92,116.27c0.71-1.06,1.42-2.12,2.13-3.18C158.98,114.58,158.71,115.93,156.92,116.27z"/>
	<path class="st7" d="M159.03,113.11c0.66-0.96,1.31-1.91,1.97-2.87C161.09,111.71,160.79,112.91,159.03,113.11z"/>
	<path class="st8" d="M74.24,238.28c-0.7-0.9-1.4-1.8-2.1-2.7C72.84,236.48,73.54,237.38,74.24,238.28z"/>
	<path class="st22" d="M192.61,158.18c-0.64,0.81-1.28,1.62-1.91,2.42C191.33,159.79,191.97,158.99,192.61,158.18z"/>
	<path class="st16" d="M157.87,124.47c-0.55,0.7-1.1,1.41-1.65,2.11C156.31,125.51,155.82,124,157.87,124.47z"/>
	<path class="st19" d="M78.67,128.48c0.69-0.71,1.37-1.42,2.05-2.13C81.01,128,80,128.39,78.67,128.48z"/>
	<path class="st8" d="M76.38,240.84c-0.57-0.68-1.14-1.36-1.72-2.05C75.24,239.48,75.81,240.16,76.38,240.84z"/>
	<path class="st22" d="M185.45,166.34c-0.6,0.68-1.21,1.37-1.81,2.05C183.55,167.1,183.97,166.25,185.45,166.34z"/>
	<path class="st8" d="M78.05,242.62c-0.53-0.55-1.06-1.1-1.6-1.65C78.13,240.41,78.04,241.57,78.05,242.62z"/>
	<path class="st21" d="M183.29,160.03c0.55-0.62,1.09-1.25,1.64-1.87C184.38,158.78,183.84,159.4,183.29,160.03z"/>
	<path class="st21" d="M188.12,154.67c0.28-0.33,0.57-0.67,0.85-1C188.68,154,188.4,154.33,188.12,154.67z"/>
	<path class="st7" d="M166.83,112.22c-0.27,0.36-0.54,0.73-0.81,1.09C166.29,112.95,166.56,112.59,166.83,112.22z"/>
	<path class="st18" d="M67.48,228.68c-0.16-0.31-0.32-0.61-0.48-0.92C67.16,228.07,67.32,228.37,67.48,228.68z"/>
	<path class="st16" d="M158.7,123.27c-0.25,0.36-0.5,0.72-0.75,1.08C158.2,123.99,158.45,123.63,158.7,123.27z"/>
	<path class="st9" d="M196.14,154.49c-0.37,0.39-0.74,0.79-1.1,1.18C195.4,155.27,195.77,154.88,196.14,154.49z"/>
	<path class="st21" d="M201.06,140.27c0.31-0.33,0.62-0.65,0.92-0.98C201.67,139.61,201.36,139.94,201.06,140.27z"/>
	<path class="st23" d="M206.97,189.73c0.33-0.28,0.66-0.55,0.99-0.83C207.63,189.18,207.3,189.45,206.97,189.73z"/>
	<path class="st16" d="M159.2,122.19c-0.18,0.36-0.36,0.72-0.54,1.08C158.84,122.91,159.02,122.55,159.2,122.19z"/>
	<path class="st6" d="M65.55,146.18c0.18-0.33,0.36-0.66,0.53-0.99C65.9,145.52,65.72,145.85,65.55,146.18z"/>
	<path class="st6" d="M66.05,145.23c0.18-0.33,0.35-0.66,0.53-0.98C66.4,144.58,66.22,144.91,66.05,145.23z"/>
	<path class="st6" d="M66.94,143.74c0.18-0.33,0.37-0.65,0.55-0.98C67.31,143.09,67.12,143.42,66.94,143.74z"/>
	<path class="st8" d="M74.71,238.78c-0.16-0.17-0.32-0.35-0.48-0.52C74.39,238.43,74.55,238.61,74.71,238.78z"/>
	<path class="st21" d="M194.37,147.64c0.21-0.17,0.42-0.35,0.63-0.52C194.79,147.29,194.58,147.47,194.37,147.64z"/>
	<path class="st8" d="M78.54,243.12c-0.17-0.18-0.33-0.35-0.5-0.53C78.2,242.76,78.37,242.94,78.54,243.12z"/>
	<path class="st8" d="M79.01,243.6c-0.17-0.17-0.34-0.35-0.51-0.52C78.67,243.25,78.84,243.43,79.01,243.6z"/>
	<path class="st8" d="M79.48,244.09c-0.17-0.18-0.34-0.35-0.5-0.53C79.15,243.74,79.31,243.91,79.48,244.09z"/>
	<path class="st8" d="M79.97,244.56c-0.18-0.17-0.35-0.34-0.53-0.51C79.62,244.23,79.79,244.39,79.97,244.56z"/>
	<path class="st21" d="M202.03,139.31c0.2-0.13,0.39-0.27,0.59-0.4C202.43,139.04,202.23,139.17,202.03,139.31z"/>
	<path class="st6" d="M67.64,142.38c0.15,0.01,0.3,0.01,0.44,0.02c-0.21,0.13-0.42,0.27-0.64,0.4
		C67.52,142.66,67.58,142.52,67.64,142.38z"/>
	<path class="st21" d="M189.06,153.64c0.14-0.15,0.28-0.29,0.42-0.44C189.34,153.34,189.2,153.49,189.06,153.64z"/>
	<path class="st21" d="M189.54,153.15c0.14-0.14,0.28-0.29,0.42-0.43C189.82,152.86,189.68,153,189.54,153.15z"/>
	<path class="st21" d="M184.91,158.18c0.17-0.17,0.34-0.34,0.5-0.5C185.25,157.84,185.08,158.01,184.91,158.18z"/>
	<path class="st6" d="M185.65,177.65c0.14,0.19,0.28,0.38,0.42,0.57C185.93,178.03,185.79,177.84,185.65,177.65z"/>
	<path class="st6" d="M66.56,144.28c0.15-0.2,0.29-0.39,0.44-0.59C66.85,143.89,66.7,144.08,66.56,144.28z"/>
	<path class="st9" d="M203.78,146.22c-0.2,0.18-0.4,0.36-0.59,0.54C203.38,146.58,203.58,146.4,203.78,146.22z"/>
	<path class="st19" d="M86.15,121.7c0.18-0.17,0.36-0.34,0.53-0.51C86.51,121.37,86.33,121.54,86.15,121.7z"/>
	<path class="st21" d="M194.96,147.14c0.16-0.18,0.33-0.36,0.49-0.54C195.29,146.79,195.12,146.96,194.96,147.14z"/>
	<path class="st19" d="M123.56,127.3c-0.16,0.05-0.32,0.11-0.49,0.16C123.24,127.41,123.4,127.35,123.56,127.3z"/>
	<path class="st24" d="M162.38,155.76c-1.77-0.63-3.58-1.16-5.29-1.91c-1.74-0.76-1.08-1.93-0.26-3.02
		C158.68,152.47,160.53,154.11,162.38,155.76z"/>
	<path class="st2" d="M172.6,163.8c-0.13-0.1-0.26-0.19-0.38-0.29C172.34,163.61,172.47,163.71,172.6,163.8z"/>
	<path class="st25" d="M125.43,206.74c1.57-6.36,3.06-12.38,4.54-18.39c0.28-1.16,0.9-1.56,2.09-1.18c4.69,1.49,9.47,2.75,14.06,4.5
		c1.99,0.76,3.87,2.28,5.32,3.88c4.29,4.71,2.16,11.65-3.96,13.51c-4.86,1.48-9.64,0.5-14.41-0.4
		C130.59,208.19,128.15,207.43,125.43,206.74z"/>
	<path class="st26" d="M132.7,177.68c1.52-6.14,2.97-12,4.47-18.05c5.14,1.16,10.13,2.07,14.56,4.78c3.78,2.31,5.26,5.61,4.4,9.68
		c-0.7,3.32-3.66,5.67-7.99,6.06C142.9,180.61,137.92,179.24,132.7,177.68z"/>
</g>
</svg>
