<?xml version="1.0" encoding="utf-8"?>
<!-- Generator: Adobe Illustrator 25.3.1, SVG Export Plug-In . SVG Version: 6.00 Build 0)  -->
<svg version="1.1" id="Layer_1" xmlns="http://www.w3.org/2000/svg" xmlns:xlink="http://www.w3.org/1999/xlink" x="0px" y="0px"
	 viewBox="0 0 860.45 1015.87" xml:space="preserve">
<style type="text/css">
	.st0{fill:transparent;}
	.st1{fill:#F7931A;}
	.st2{fill:#010101;}
	.st3{fill:#FDFDFD;}
	.st69{fill:transparent;}
	.st4{fill:#6C6C6C;}
	.st5{fill:#FCFCFC;}
	.st6{fill:#FFFFFF;}
	.st7{font-family:'BalooDa-Regular';}
	.st8{font-size:129px;}
	.st9{letter-spacing:2;}
</style>
<g>
	<path class="st0" d="M27.22,754.8c0-245.24,0-490.48,0-736c189.33,0,378.67,0,568,0c-4.9,1.11-9.8,2.24-14.71,3.31
		c-115.92,25.3-192.31,135-168.47,254.26c19.44,97.25,105.5,170.1,204.8,172.15c54.62,1.13,103.31-15.55,144.74-51.2
		c39.39-33.89,64.27-76.6,73.2-128.14c0.89-5.11,1.62-10.25,2.43-15.38c0,248.24,0,496.48,0,745c-188.67,0-377.33,0-566,0
		c0.67-0.31,1.32-0.86,2-0.9c22.08-1.35,43.34-6.21,64.02-14.08c84.93-32.32,143.7-115.08,145.82-206
		c1.24-53.08-13.17-101.75-46.3-143.28c-59.77-74.93-137.81-104.88-231.9-85.15c-90.99,19.08-160.77,95.89-174.81,187.55
		C29.14,742.9,28.16,748.85,27.22,754.8z M58.78,519.67c20.76,0.67,40.7,1.3,60.64,1.98c3.48,0.12,4.15-2.43,4.53-4.86
		c1.16-7.4,2.01-14.84,3.12-22.24c10.35-69.17,45.46-121.44,106.75-155.61c9.55-5.32,19.58-9.86,29.61-14.23
		c7.01-3.05,10.2-1.43,12.75,5.52c1.6,4.36,2.74,8.88,4.12,13.32c2.44,7.86,4.89,15.72,7.34,23.58c0.64,0.15,1.27,0.31,1.91,0.46
		c22.95-35.27,45.91-70.53,69.41-106.63c-39.09-20.09-78.54-35.46-117.27-52.45c-0.54,0.37-1.07,0.75-1.61,1.12
		c4.72,15.95,9.43,31.91,14.14,47.82c-57.65,17.96-104.41,51.49-140.1,99.13C78.34,404.32,59.52,458.7,58.78,519.67z M607.91,681.32
		c-0.72,0.01-1.43,0.03-2.15,0.04c-13.48,40.22-26.97,80.43-40.83,121.78c43.83,6.31,86.28,12.41,128.73,18.52
		c0.2-0.51,0.4-1.02,0.6-1.53c-8.72-14.27-17.43-28.53-26.1-42.72c0.45-0.49,0.64-0.78,0.91-0.97c1.36-0.96,2.73-1.9,4.12-2.82
		c32.16-21.45,58.92-48.49,80.19-80.58c25.95-39.15,40.49-82.51,43.43-129.5c1.72-27.57-0.32-54.94-5.99-81.99
		c-1.54-7.36-2.64-8.14-9.9-6.29c-15.45,3.92-30.87,8.03-46.17,12.51c-9.03,2.64-8.92,3.03-7.67,12.18
		c0.25,1.81,0.46,3.63,0.76,5.44c3.92,23.33,4.95,46.73,0.99,70.13c-8.99,53.2-34.1,97.14-76.17,131.16
		c-5.9,4.77-12.15,9.1-18.99,14.18C624.69,707.1,616.3,694.21,607.91,681.32z"/>
	<path class="st1" d="M837.22,253.8c-0.81,5.13-1.55,10.26-2.43,15.38c-8.93,51.55-33.81,94.25-73.2,128.14
		c-41.43,35.65-90.12,52.33-144.74,51.2c-99.31-2.06-185.36-74.9-204.8-172.15C388.2,157.11,464.59,47.41,580.51,22.11
		c4.91-1.07,9.8-2.21,14.71-3.31c14.67,0,29.33,0,44,0c0.66,0.32,1.3,0.9,1.97,0.93c29.5,1.29,57,9.88,82.6,24.08
		c60.9,33.78,97.64,85.28,110.85,153.59c1.11,5.75,1.73,11.6,2.57,17.4c0,1,0,2,0,3c0,10.67,0,21.33,0,32
		C837.22,251.13,837.22,252.47,837.22,253.8z M645.19,326.24c14.19-3.65,27.77-6.3,40.76-10.7c15.51-5.25,26-16.25,28.82-32.81
		c1.38-8.12,1.34-16.58,1.06-24.86c-0.33-9.69-5.03-17.46-12.86-23.2c-4.16-3.05-8.45-5.91-12.66-8.87c-1.42-1-2.78-2.07-3.03-2.26
		c4.51-6.65,9.97-12.22,12.5-18.89c9.42-24.92-2.09-47.97-27.28-56.32c-3.15-1.04-6.39-1.81-9.63-2.55
		c-5.82-1.34-11.66-2.56-17.8-3.89c0-12.67,0-25.1,0-37.6c-8.44,0-16.5,0-25.07,0c0,12.18,0,24.07,0,35.97c-6.12,0-11.74,0-17.66,0
		c-1.1-12.06-2.18-23.94-3.29-36.03c-7.31,0-14.39,0-22.05,0c0,12.91,0,25.62,0,38.68c-16.17,0-31.76,0-47.38,0
		c0,8.25,0,16.14,0,24.19c6.07,0.6,11.87,0.97,17.61,1.78c9.2,1.29,9.77,2.02,10.4,11.14c0.16,2.33,0.37,4.66,0.37,6.99
		c-0.04,34.82-0.11,69.64-0.19,104.46c0,0.64-0.16,1.28-0.28,2.13c-4.9,0.42-9.69,0.75-14.45,1.27c-4.97,0.55-9.25,2.46-10.2,7.93
		c-1.15,6.63-1.8,13.35-2.82,21.26c16.23,0,31.46,0,47.22,0c0,13.68,0,26.23,0,38.62c7.65,0,14.77,0,22.02,0
		c1.09-12.8,2.15-25.36,3.23-38.03c6.02,0,11.63,0,17.67,0c0,12.75,0,25.33,0,38.06c8.5,0,16.56,0,24.97,0
		C645.19,350.22,645.19,337.95,645.19,326.24z"/>
	<path class="st2" d="M27.22,754.8c0.95-5.95,1.93-11.9,2.84-17.86c14.03-91.66,83.81-168.47,174.81-187.55
		c94.09-19.73,172.13,10.22,231.9,85.15c33.13,41.53,47.54,90.2,46.3,143.28c-2.12,90.92-60.9,173.67-145.82,206
		c-20.68,7.87-41.94,12.73-64.02,14.08c-0.68,0.04-1.34,0.59-2,0.9c-12.67,0-25.33,0-38,0c-0.52-0.31-1.01-0.85-1.55-0.9
		c-21.23-1.75-41.63-6.97-61.15-15.3C91.15,948.77,44.94,888.75,30.12,804.11c-1.01-5.76-1.94-11.54-2.9-17.31
		C27.22,776.13,27.22,765.47,27.22,754.8z M254.87,602.13c-83.84-4.57-168.9,67.85-169.93,168.01
		c-1,97.02,78.43,171.09,168.41,171.51c108.38,0.5,173.08-90.92,171.26-164.39C430.54,676.18,340.32,596.73,254.87,602.13z"/>
	<path class="st69" d="M27.22,786.8c0.97,5.77,1.89,11.55,2.9,17.31c14.82,84.64,61.04,144.66,140.39,178.49
		c19.53,8.33,39.93,13.55,61.15,15.3c0.54,0.04,1.04,0.59,1.55,0.9c-68.67,0-137.33,0-206,0C27.22,928.13,27.22,857.47,27.22,786.8z
		"/>
	<path class="st69" d="M837.22,214.8c-0.85-5.8-1.46-11.65-2.57-17.4c-13.21-68.31-49.95-119.81-110.85-153.59
		c-25.6-14.2-53.1-22.79-82.6-24.08c-0.67-0.03-1.32-0.61-1.97-0.93c66,0,132,0,198,0C837.22,84.13,837.22,149.47,837.22,214.8z"/>
	<path class="st4" d="M837.22,249.8c0-10.67,0-21.33,0-32C837.22,228.47,837.22,239.13,837.22,249.8z"/>
	<path class="st2" d="M58.78,519.67c0.73-60.96,19.56-115.34,55.33-163.09c35.69-47.63,82.46-81.17,140.1-99.13
		c-4.71-15.92-9.42-31.87-14.14-47.82c0.54-0.37,1.07-0.75,1.61-1.12c38.73,16.99,78.18,32.36,117.27,52.45
		c-23.5,36.1-46.45,71.37-69.41,106.63c-0.64-0.15-1.27-0.31-1.91-0.46c-2.45-7.86-4.91-15.72-7.34-23.58
		c-1.38-4.44-2.52-8.96-4.12-13.32c-2.55-6.96-5.74-8.58-12.75-5.52c-10.04,4.37-20.06,8.91-29.61,14.23
		c-61.29,34.17-96.4,86.44-106.75,155.61c-1.11,7.4-1.95,14.85-3.12,22.24c-0.38,2.43-1.05,4.98-4.53,4.86
		C99.48,520.97,79.54,520.34,58.78,519.67z"/>
	<path class="st9" d="M607.91,681.32c8.39,12.89,16.79,25.78,25.75,39.54c6.83-5.09,13.09-9.41,18.99-14.18
		c42.07-34.01,67.17-77.95,76.17-131.16c3.96-23.4,2.93-46.8-0.99-70.13c-0.3-1.8-0.51-3.63-0.76-5.44
		c-1.25-9.15-1.37-9.54,7.67-12.18c15.3-4.48,30.72-8.58,46.17-12.51c7.26-1.84,8.36-1.07,9.9,6.29
		c5.67,27.05,7.72,54.42,5.99,81.99c-2.94,47-17.47,90.35-43.43,129.5c-21.27,32.09-48.03,59.12-80.19,80.58
		c-1.38,0.92-2.76,1.87-4.12,2.82c-0.26,0.19-0.45,0.48-0.91,0.97c8.67,14.19,17.39,28.46,26.1,42.72c-0.2,0.51-0.4,1.02-0.6,1.53
		c-42.45-6.11-84.89-12.21-128.73-18.52c13.86-41.35,27.35-81.57,40.83-121.78C606.48,681.35,607.19,681.34,607.91,681.32z"/>
	<path class="st3" d="M645.19,326.24c0,11.72,0,23.99,0,36.47c-8.41,0-16.47,0-24.97,0c0-12.73,0-25.32,0-38.06
		c-6.04,0-11.65,0-17.67,0c-1.08,12.67-2.14,25.23-3.23,38.03c-7.25,0-14.37,0-22.02,0c0-12.4,0-24.95,0-38.62
		c-15.75,0-30.99,0-47.22,0c1.02-7.91,1.67-14.63,2.82-21.26c0.95-5.47,5.23-7.38,10.2-7.93c4.77-0.53,9.55-0.85,14.45-1.27
		c0.11-0.85,0.27-1.49,0.28-2.13c0.08-34.82,0.15-69.64,0.19-104.46c0-2.33-0.2-4.66-0.37-6.99c-0.64-9.12-1.2-9.86-10.4-11.14
		c-5.74-0.8-11.55-1.18-17.61-1.78c0-8.05,0-15.94,0-24.19c15.62,0,31.21,0,47.38,0c0-13.06,0-25.77,0-38.68c7.66,0,14.73,0,22.05,0
		c1.1,12.09,2.19,23.98,3.29,36.03c5.92,0,11.53,0,17.66,0c0-11.9,0-23.79,0-35.97c8.56,0,16.62,0,25.07,0c0,12.5,0,24.93,0,37.6
		c6.14,1.34,11.98,2.56,17.8,3.89c3.23,0.74,6.48,1.51,9.63,2.55c25.19,8.35,36.7,31.41,27.28,56.32
		c-2.52,6.67-7.99,12.24-12.5,18.89c0.25,0.19,1.62,1.26,3.03,2.26c4.21,2.97,8.51,5.83,12.66,8.87
		c7.83,5.74,12.53,13.52,12.86,23.2c0.28,8.28,0.32,16.74-1.06,24.86c-2.82,16.55-13.31,27.56-28.82,32.81
		C672.96,319.94,659.38,322.59,645.19,326.24z M602.33,294.63c9.58,0,18.73,0.34,27.84-0.09c11.06-0.52,21.83-2.45,30.62-10.1
		c4.42-3.85,7.47-8.35,7.53-14.54c0.13-12.01-5.31-19.27-17.94-23.01c-15.64-4.64-31.82-3.74-48.06-4.66
		C602.33,259.84,602.33,277.08,602.33,294.63z M602.49,168.74c0,17.41,0,33.11,0,49.38c9.34-0.47,18.34-0.48,27.23-1.49
		c10.14-1.14,19.45-4.5,25.57-13.57c4.07-6.03,4.22-12,0.16-18.13c-4.15-6.26-9.8-10.86-17.06-12.05
		C626.66,170.97,614.75,170.1,602.49,168.74z"/>
	<path class="st5" d="M254.87,602.13c85.45-5.4,175.66,74.05,169.75,175.12c1.83,73.47-62.88,164.89-171.26,164.39
		c-89.98-0.42-169.41-74.48-168.41-171.51C85.97,669.98,171.03,597.56,254.87,602.13z M256.24,912.46
		c76.74,0.04,139.19-63.25,140.01-140.52c0.78-73.67-61.41-141.58-142.59-141.38c-71.68,0.18-140.83,63.42-139.54,142.15
		C115.29,844.88,171.57,911.14,256.24,912.46z"/>
	<path class="st1" d="M602.33,294.63c0-17.55,0-34.79,0-52.4c16.24,0.91,32.42,0.02,48.06,4.66c12.63,3.74,18.08,11.01,17.94,23.01
		c-0.07,6.19-3.11,10.69-7.53,14.54c-8.79,7.65-19.56,9.58-30.62,10.1C621.06,294.97,611.91,294.63,602.33,294.63z"/>
	<path class="st1" d="M602.49,168.74c12.26,1.36,24.17,2.23,35.9,4.15c7.26,1.19,12.91,5.79,17.06,12.05
		c4.06,6.13,3.91,12.1-0.16,18.13c-6.12,9.07-15.43,12.42-25.57,13.57c-8.89,1-17.89,1.02-27.23,1.49
		C602.49,201.85,602.49,186.15,602.49,168.74z"/>
</g>
<circle class="st2" cx="254.17" cy="770.76" r="141.08"/>
<text transform="matrix(1 0 0 1 147.4473 805.5837)" class="st6 st7 st8 st9">ETB</text>
</svg>
