<?xml version="1.0" encoding="utf-8"?>
<!-- Generator: Adobe Illustrator 25.3.1, SVG Export Plug-In . SVG Version: 6.00 Build 0)  -->
<svg version="1.1" id="Layer_1" xmlns="http://www.w3.org/2000/svg" xmlns:xlink="http://www.w3.org/1999/xlink" x="0px" y="0px"
	 viewBox="0 0 518.39 476.76" style="enable-background:new 0 0 518.39 476.76;" xml:space="preserve">
<style type="text/css">
	.st0{fill:transparent;}
	.st1{fill:#335A6F;}
	.st2{fill:#476B7D;}
	.st3{fill:#396074;}
	.st4{fill:#F9FAF1;}
	.st5{fill:#345B6E;}
	.st6{fill:#C29D63;}
	.st7{fill:#F9FAF0;}
	.st8{fill:#375E73;}
	.st9{fill:#E0E5EA;}
	.st10{fill:#D7DCDA;}
	.st11{fill:#EBEBEC;}
	.st12{fill:#B98C53;}
	.st13{fill:#FBFCFC;}
	.st14{fill:#DCB35F;}
	.st15{fill:#F8F9F9;}
	.st16{fill:#B37A4D;}
	.st17{fill:#CE9856;}
	.st18{fill:#C29E63;}
	.st19{fill:#ECB131;}
	.st20{fill:#FDC642;}
	.st21{fill:#BC9B62;}
	.st22{fill:#DBE0DD;}
	.st23{fill:#2A4C5A;}
	.st24{fill:#355A6B;}
	.st25{fill:#D1A644;}
	.st26{fill:#EBB031;}
	.st27{fill:#E9AF32;}
</style>
<g>
	<path class="st0" d="M0,192.76c0-76,0-152,0-228c170.67,0,341.33,0,512,0c0,89,0,178,0,267c-2.77-2.96-5.45-6.01-8.34-8.85
		c-4.84-4.73-9.81-9.31-14.73-13.95c-0.19-3.87-0.6-4.25-3.08-2.84c-3.31-3.05-6.61-6.1-9.92-9.15c0.35-2.59-0.88-3.48-3.32-3.07
		c-2.89-2.66-5.78-5.31-8.67-7.97c-0.22-3.86-0.62-4.22-3.09-2.81c-3.31-3.05-6.61-6.1-9.92-9.15c-0.25-3.88-0.54-4.15-3.08-2.84
		c-3.31-3.05-6.61-6.1-9.92-9.15c0.36-2.64-0.93-3.49-3.36-3.07c-2.87-2.66-5.75-5.32-8.62-7.98c-0.22-3.86-0.62-4.22-3.09-2.81
		c-3.31-3.05-6.61-6.1-9.92-9.15c0.35-2.59-0.88-3.48-3.32-3.07c-7.23-6.64-14.45-13.29-21.68-19.93c-0.25-3.88-0.54-4.15-3.08-2.84
		c-7.31-6.72-14.61-13.44-21.92-20.16c0.35-2.64-0.93-3.48-3.36-3.06c-0.54-0.38-1.12-0.71-1.61-1.15
		c-3.19-2.88-7.39-5.08-5.2-10.87c0.51-1.36-1.26-4.01-2.59-5.52c-1.6-1.81-3.85-3.04-7.16-5.52c2.97-2.06,4.66-2.91,5.94-4.18
		c15.57-15.48,31.14-30.97,46.54-46.63c1.61-1.64,2.11-4.38,3.13-6.61c-2.39-0.73-5.02-2.51-7.12-2.02
		c-8.18,1.92-16.2,4.56-24.27,6.94c-0.45-0.35-0.9-0.7-1.34-1.04c-0.23,0.68-0.46,1.36-0.69,2.04
		c-13.65,9.32-27.31,18.64-40.96,27.96c-1.14-0.49-2.28-0.97-3.42-1.46c-0.75-0.64-1.52-1.26-2.25-1.93
		c-6.74-6.2-10.08-6.16-16.43,0.2c-6.82,6.83-13.69,13.63-20.47,20.5c-4.49,4.54-4.7,7.68-0.76,12.66c1.93,2.44,4.2,4.61,6.39,6.98
		c-1.19,1.47-2.34,2.68-3.26,4.06c-8.95,13.39-18.3,26.53-26.62,40.31c-5.26,8.72-8.08,18.6-7.27,29.1
		c-1.04,1.02-2.07,2.03-3.11,3.05c-0.67,0.33-1.33,0.66-2,1c-2.27,0.33-4.53,0.66-6.8,1c-2.87-11.61-5.74-23.22-8.61-34.83
		c0.2-0.75,0.4-1.49,0.61-2.24c-1.31-0.13-2.61-0.26-3.92-0.39c-1.58-0.3-3.17-0.59-4.75-0.89c-11.73-2.23-23.38-5.42-35.22-6.49
		c-28.85-2.6-56.22,3.5-82.11,16.4c-0.45-0.34-0.91-0.67-1.36-1.01c-0.22,0.68-0.44,1.37-0.66,2.05c-2.77,1.46-2.95,3.67-1.79,6.25
		c-0.8,1.01-1.6,2.01-2.4,3.02c-1.23,0.76-2.46,1.52-3.7,2.27c-0.77-0.05-1.54-0.1-2.3-0.15c-1-0.33-2-0.66-3-1c-0.67,0-1.33,0-2,0
		c-1.33-0.33-2.67-0.67-4-1c-0.33,0-0.67,0-1,0c-2.78-3.59-3.2-3.68-5-1c-6,0-12,0-18,0c-2.19-3.11-3.15-1.26-4,1
		c-0.67,0-1.33,0-2,0c-2.85-1.9-4.79-1.05-6,2c-0.57,0.14-1.13,0.29-1.7,0.43c-2.45,1.19-4.9,2.38-7.34,3.57
		c-11.74,5.16-18.58,14.56-21.75,26.53c-1.58,5.98-1.65,12.37-2.4,18.58c-1.31-0.11-2.61-0.21-3.22-0.26
		c-1.16-1.93-2.02-3.35-2.87-4.78c-1,1.45-2,2.9-3.22,4.68C3.39,191.81,1.69,192.29,0,192.76z M216.86,92.33
		c2.09,7.04,3.75,13.28,5.91,19.35c0.38,1.06,3.16,2.17,4.35,1.79c1.2-0.39,2.78-2.84,2.51-4c-1.41-6.12-3.17-12.17-5.25-18.09
		c-0.4-1.13-2.92-2.29-4.26-2.08C218.81,89.49,217.76,91.42,216.86,92.33z"/>
	<path class="st0" d="M0,348.76c0-51.67,0-103.33,0-155c1.67,0.86,3.34,1.72,5.33,2.75c0.38,1.09,0.93,2.67,1.38,3.98
		c2.96-2.39,5.46-4.4,7.95-6.41c1.44,5.87,2.68,11.79,4.41,17.57c0.85,2.84,2.61,5.42,3.96,8.11c-0.33,1.33-0.65,2.67-0.98,4
		c-0.49,0.65-1.14,1.23-1.46,1.95c-12.6,28.29-15.97,57.83-10.28,88.08c7.08,37.62,26.15,68.4,56.84,91.25
		c31.99,23.82,68.33,33.48,107.96,28.5c26.85-3.37,51.18-13.75,72.66-30.38c1.37-1.06,1.95-3.13,2.9-4.73c0,0,0.07,0.01,0.07,0.01
		c1.06-0.63,2.11-1.25,3.17-1.88c11.33-9.28,22.66-18.57,33.99-27.85c4.2,2.35,8.65,4.34,12.56,7.1
		c15.84,11.18,33.3,14.14,52.11,10.94c32.91-5.6,55.61-32.2,55.33-65.49c-0.11-13.07-0.55-26.22-2.12-39.18
		c-1.83-15.11,0.34-29.75,3.36-44.29c2.35-11.33,6.13-22.36,9.12-33.56c1.09-4.08,1.76-8.28,2.62-12.42
		c1.27,1.05,2.58,2.06,3.79,3.17c20.04,18.43,40.05,36.9,60.12,55.3c6.46,5.92,10.99,6.05,17.33,0.02c3.65-3.47,6.6-7.67,9.86-11.54
		c0,79.33,0,158.67,0,238c-170.67,0-341.33,0-512,0c0-40.33,0-80.67,0-121c0.88,0.61,1.73,1.25,2.63,1.83
		c3.35,2.16,6.67,2.16,9.42-0.85c2.74-3,2.73-6.43-0.08-9.38c-2.78-2.92-6.09-3.04-9.39-0.66C1.69,347.35,0.86,348.08,0,348.76z"/>
	<path class="st1" d="M512,238.76c-3.26,3.87-6.21,8.08-9.86,11.54c-6.35,6.03-10.87,5.9-17.33-0.02
		c-20.07-18.4-40.08-36.87-60.12-55.3c-1.21-1.11-2.52-2.11-3.79-3.17c-18.6-17.08-37.2-34.17-55.8-51.25
		c-12.22-11.41-24.44-22.82-36.53-34.12c-7.58,5.26-7.75,5.22-18.48-3.3c-16.02,15.6-31.98,31.13-47.93,46.66
		c-3.56,1.88-5,7.66-10.61,5.77c-0.47-0.62-0.95-1.24-1.42-1.86c-0.81-10.51,2-20.39,7.27-29.1c8.32-13.77,17.67-26.92,26.62-40.31
		c0.92-1.37,2.07-2.59,3.26-4.06c-2.19-2.37-4.46-4.54-6.39-6.98c-3.94-4.97-3.72-8.12,0.76-12.66c6.79-6.87,13.65-13.67,20.47-20.5
		c6.35-6.36,9.69-6.4,16.43-0.2c0.73,0.67,1.5,1.29,2.25,1.93c1.14,0.49,2.28,0.97,3.42,1.46c13.65-9.32,27.31-18.64,40.96-27.96
		c0.68-0.33,1.36-0.66,2.03-0.99c8.08-2.37,16.09-5.01,24.27-6.94c2.1-0.49,4.73,1.28,7.12,2.02c-1.01,2.23-1.51,4.97-3.13,6.61
		c-15.39,15.66-30.96,31.15-46.54,46.63c-1.28,1.27-2.98,2.12-5.94,4.18c3.31,2.48,5.57,3.71,7.16,5.52
		c1.33,1.51,3.1,4.16,2.59,5.52c-2.19,5.79,2.01,7.99,5.2,10.87c0.49,0.44,1.07,0.77,1.61,1.15c1.12,1.02,2.24,2.04,3.36,3.06
		c7.31,6.72,14.61,13.44,21.92,20.16c1.03,0.95,2.06,1.89,3.08,2.84c7.23,6.64,14.45,13.29,21.68,19.93
		c1.11,1.02,2.21,2.05,3.32,3.07c3.31,3.05,6.61,6.1,9.92,9.15c1.03,0.94,2.06,1.88,3.09,2.81c2.87,2.66,5.75,5.32,8.62,7.98
		c1.12,1.02,2.24,2.05,3.36,3.07c3.31,3.05,6.61,6.1,9.92,9.15c1.03,0.95,2.06,1.89,3.08,2.84c3.31,3.05,6.61,6.1,9.92,9.15
		c1.03,0.94,2.06,1.88,3.09,2.81c2.89,2.66,5.78,5.31,8.67,7.97c1.11,1.02,2.21,2.05,3.32,3.07c3.31,3.05,6.61,6.1,9.92,9.15
		c1.03,0.95,2.06,1.89,3.08,2.84c4.92,4.64,9.9,9.23,14.73,13.95c2.9,2.83,5.57,5.89,8.34,8.85C512,234.1,512,236.43,512,238.76z
		 M361.04,102.68l0.05,0.01c-4.79-4.73-9.59-9.46-14.75-14.55c-1.41,1.52-2.38,2.57-3.35,3.61c-1.69,1.64-3.38,3.28-5.07,4.92
		c-1.63,1.09-3.26,2.17-5.31,3.54c2.44,2.14,3.58,3.1,4.67,4.11c20.57,18.91,41.11,37.84,61.7,56.72
		c13.6,12.47,27.28,24.86,40.92,37.28c0.92,0.85,1.84,1.69,2.76,2.54c15.39,14.42,30.78,28.85,46.19,43.25
		c4.03,3.77,5.79,3.51,10.22-1.3c6.72-7.56,6.62-8.77-0.74-15.05c-4.56-3.88-9.09-7.81-13.5-11.86
		c-31.36-28.86-62.68-57.78-94.04-86.64c-8.93-8.22-17.98-16.32-26.97-24.48c-0.26-0.26-0.53-0.52-0.79-0.78
		c-0.22-0.19-0.47-0.3-0.75-0.34C361.87,103.34,361.45,103.01,361.04,102.68z M296.38,80.79c-1.52,1.98-3.01,3.98-4.57,5.92
		c-13.04,16.19-25.28,32.87-33.09,53.81c5.43-2.55,8.14-6.45,11.24-9.88c11.35-11.21,22.72-22.41,34.06-33.64
		c5.72-5.66,6.11-5.71,11.19,0.25c1.7,2,3.1,4.26,4.64,6.4c-0.14-1.01-0.28-2.02-0.41-3.02c8.62-7.38,17.25-14.76,25.67-21.97
		c-0.69-1.17-0.81-1.5-1.04-1.72c-1.74-1.79-3.5-3.56-5.25-5.34c-4.13-4.22-4.16-5.26-0.05-9.39c13.64-13.67,27.3-27.31,40.94-40.97
		c1.19-1.19,2.29-2.48,3.43-3.73c-0.31-0.45-0.61-0.9-0.92-1.35c-5.19,2.4-10.79,4.18-15.51,7.31
		c-13.41,8.9-26.58,18.19-39.59,27.68c-3.72,2.71-6.27,3.13-9.17-0.68c-1.39-1.82-3.23-3.31-4.86-4.95
		c-1.91-2.77-3.76-2.59-5.92-0.14c-2.83,3.22-5.91,6.23-8.83,9.37c-4.01,4.3-7.99,8.64-12.66,13.7c0.87,0.63,2.05,1.48,3.24,2.34
		C291.41,74.13,293.9,77.46,296.38,80.79z"/>
	<path class="st2" d="M0,348.76c0.86-0.69,1.69-1.41,2.58-2.06c3.31-2.38,6.61-2.25,9.39,0.66c2.8,2.94,2.82,6.37,0.08,9.38
		c-2.75,3.01-6.06,3.01-9.42,0.85c-0.9-0.58-1.76-1.22-2.63-1.83C0,353.43,0,351.1,0,348.76z M7.05,345.84
		c-2.07,2.94-4.25,4.69-4.01,6.01c0.31,1.72,2.53,3.09,3.94,4.61c1.38-1.37,3.79-2.68,3.88-4.12
		C10.96,350.69,8.98,348.92,7.05,345.84z"/>
	<path class="st3" d="M14.66,194.08c-2.49,2.01-4.98,4.02-7.95,6.41c-0.46-1.31-1-2.89-1.38-3.98c-1.99-1.03-3.66-1.89-5.33-2.75
		c0-0.33,0-0.67,0-1c1.69-0.48,3.39-0.95,4.49-1.27c1.22-1.78,2.22-3.23,3.22-4.68c0.86,1.43,1.72,2.85,2.87,4.78
		c0.61,0.05,1.92,0.16,3.22,0.26C14.1,192.6,14.38,193.34,14.66,194.08z"/>
	<path class="st4" d="M251.53,155.58c5.61,1.9,7.05-3.89,10.61-5.77c5.04-1.55,10.03-3.32,15.14-4.6c6.37-1.6,12.83-2.79,19.26-4.16
		c-2.77,1.79-5.52,3.62-8.33,5.35c-2.36,1.45-4.36,3.42-2.08,5.86c1.04,1.11,4.26,1.32,5.81,0.57c4.59-2.24,9.05-4.89,13.12-7.96
		c1.57-1.19,1.96-3.95,2.89-5.99c0.54-0.34,1.06-0.91,1.63-0.99c14.85-1.92,29.59-1.16,44.28,1.63c3.67,0.7,7.48,0.72,11.22,1.05
		c18.6,17.08,37.2,34.17,55.79,51.25c-0.86,4.14-1.53,8.34-2.62,12.42c-3,11.2-6.77,22.23-9.12,33.56
		c-3.02,14.54-5.19,29.18-3.36,44.29c1.57,12.96,2.01,26.11,2.12,39.18c0.28,33.29-22.42,59.89-55.33,65.49
		c-18.82,3.2-36.27,0.24-52.11-10.94c-3.91-2.76-8.36-4.75-12.56-7.1c1.32-1.65,2.64-3.3,3.98-4.94c3.24-3.99,2.92-5.43-1.79-8.27
		c12.38-15.46,20.87-32.87,25.93-51.99c5.36,2.97,6.74,2.36,8.04-3.75c9.81-46.19,0.73-88.42-26.84-126.65
		c-3.87-5.37-8.31-10.41-13-15.09c-3.85-3.85-5.77-3.21-8.19,1.68c-2.94,5.95-6.46,11.72-8.58,17.96
		c-4.65,13.7-13.38,22.69-27.29,26.85c-3.83,1.15-7.39,3.22-11.45,5.03c-1.08-4.72-1.45-8.79-2.94-12.41
		c-4.09-9.93-2.03-17.9,5.77-25.22c3.09-2.9,4.67-7.39,6.94-11.16c2.18-1,4.35-2,6.53-2.99c0.67-0.33,1.33-0.66,2-1
		C248.51,156.37,250.02,155.97,251.53,155.58z M358.11,329.88c-0.01-0.78-0.02-1.57-0.02-2.35c-2.16-1.5-4.2-3.97-6.52-4.26
		c-3.19-0.4-5.55,2-5.51,5.56c0.04,3.55,2.43,5.92,5.63,5.44C353.99,333.93,355.98,331.42,358.11,329.88z M335.45,184.76
		c-3.71-0.1-7.1,3.13-7.21,6.84c-0.11,3.69,3.14,7.07,6.87,7.16c3.87,0.09,6.97-2.91,7.06-6.83
		C342.25,187.99,339.31,184.86,335.45,184.76z M321.93,335.72c-0.12,1.92-0.23,3.52-0.33,5.12c1.55-0.55,3.11-1.1,5.19-1.83
		c0.67,0.31,1.97,0.9,3.85,1.75c-0.27-3.84,0.54-7.76-1.01-10.18c-1.67-2.6-5.23,3.81-8.22,0.17c-0.46,0.41-1.39,1-1.31,1.19
		C320.67,333.4,321.45,334.77,321.93,335.72z"/>
	<path class="st5" d="M238.48,160.76c-2.27,3.77-3.86,8.26-6.94,11.16c-7.8,7.32-9.86,15.3-5.77,25.22
		c1.49,3.62,1.86,7.7,2.94,12.41c4.05-1.81,7.61-3.88,11.45-5.03c13.91-4.16,22.64-13.15,27.29-26.85
		c2.12-6.24,5.63-12.01,8.58-17.96c2.42-4.89,4.34-5.53,8.19-1.68c4.69,4.68,9.13,9.72,13,15.09
		c27.57,38.23,36.65,80.46,26.84,126.65c-1.3,6.12-2.67,6.72-8.04,3.75c1.31-9.03,3.2-18.02,3.81-27.09
		c2.15-31.97-5.02-61.82-22.08-89.03c-4.68-7.47-10.32-14.34-15.97-22.09c-2.15,4.35-3.71,7.47-5.23,10.61
		c-0.36,0.74-0.55,1.56-0.82,2.34c-1.95,4.1-3.91,8.19-5.86,12.28c-1.18,2.36-2.13,4.88-3.61,7.04c-1.35,1.97-2.97,4.18-5.01,5.18
		c-10.75,5.25-21.67,10.14-32.52,15.19c-3.53,1.64-5.77,0.67-6.7-3.14c-2.26-9.36-4.53-18.72-6.75-28.09
		c-0.91-3.82-0.04-7.15,2.61-10.16c3.52-3.99,6.69-8.29,10.26-12.23c2.2-2.43,2.69-4.81,1.22-7.66c-1.8-7.3-3.6-14.59-5.41-21.89
		c-0.92-2.15-1.35-5.69-2.85-6.23c-12.35-4.43-25.07-7.32-38.32-7.08c-0.58-0.05-1.17-0.11-1.75-0.16c-1.03-0.07-2.07-0.14-3.1-0.21
		c-2.29-0.01-4.59-0.01-6.88-0.02c-1.09,0.14-2.19,0.28-3.28,0.41c-1.58,0.11-3.15,0.23-4.73,0.34c-0.35-0.03-0.7-0.05-1.05-0.08
		c-2.01,0.34-4.02,0.68-6.02,1.02c-0.62,0.06-1.24,0.13-1.86,0.19c-1.31-0.01-2.67-0.24-3.93,0c-14.16,2.75-27.86,6.83-40.78,13.4
		c-2.4,1.22-5.25,1.55-7.89,2.29c-0.37-0.36-0.74-0.71-1.11-1.07c-1.17-2.59-0.98-4.79,1.79-6.25c0.68-0.35,1.35-0.69,2.03-1.04
		c25.89-12.9,53.27-19,82.11-16.4c11.84,1.07,23.49,4.26,35.22,6.49c1.58,0.3,3.17,0.59,4.75,0.88c1.1,0.87,2.21,1.76,3.31,2.64
		c2.87,11.61,5.74,23.22,8.61,34.83C238.3,159.43,238.39,160.09,238.48,160.76z"/>
	<path class="st6" d="M101.51,138.68c2.64-0.74,5.49-1.07,7.89-2.29c12.92-6.57,26.63-10.66,40.78-13.4c1.26-0.24,2.62-0.01,3.93,0
		c-1.02,0.64-1.95,1.59-3.06,1.89c-30.21,8.24-55.81,24-75.63,48.2c-27.2,33.21-38.13,71.65-32.12,114.07
		c4.81,33.92,20.09,62.9,45.66,86.28c15.86,14.5,33.81,25.09,54.25,31.6c2.02,0.64,3.9,1.72,5.85,2.6c-3.1-0.49-6.25-0.74-9.28-1.49
		c-58.04-14.45-101.08-62.5-108.88-122.54c-5.05-38.86,4.55-74.28,27.66-106c1.5-2.05,2.29-4.62,3.4-6.95
		c10.78-9.24,21.56-18.49,32.35-27.73c1.23-0.76,2.46-1.52,3.7-2.27C99.17,139.98,100.34,139.33,101.51,138.68z"/>
	<path class="st7" d="M94.3,142.91c-10.78,9.24-21.56,18.49-32.35,27.72c-3.44-3.99-4.72-4.21-7.47,0.04
		c-6.39,9.9-12.4,20.03-18.57,30.07c-1.24,1.24-2.76,2.3-3.68,3.75c-3.18,5.02-6.15,10.18-9.2,15.28c-1.35-2.7-3.11-5.27-3.96-8.11
		c-1.73-5.78-2.97-11.7-4.41-17.57c-0.29-0.74-0.57-1.48-0.85-2.22c0.75-6.21,0.81-12.59,2.4-18.58
		c3.17-11.97,10.01-21.37,21.75-26.53c0.15,5.76,2.92,8.95,6.88,7.42c1.7-0.66,4.11-2.95,3.95-4.21c-0.3-2.37-2.23-4.53-3.48-6.77
		c0.57-0.14,1.13-0.29,1.7-0.43c2-0.67,4-1.33,6-2c0.67,0,1.33,0,2,0c1.33-0.33,2.67-0.66,4-1c6,0,12,0,18,0
		c1.67,0.33,3.33,0.66,5,1c0.33,0,0.67,0,1,0c1.33,0.33,2.67,0.67,4,1c0.67,0,1.33,0,2,0c1,0.33,2,0.66,3,1
		C92.77,142.81,93.54,142.86,94.3,142.91z"/>
	<path class="st8" d="M216.86,92.33c0.91-0.91,1.95-2.84,3.26-3.05c1.33-0.21,3.86,0.95,4.26,2.08c2.09,5.92,3.85,11.98,5.25,18.09
		c0.27,1.16-1.31,3.61-2.51,4c-1.19,0.39-3.97-0.72-4.35-1.79C220.6,105.62,218.94,99.37,216.86,92.33z"/>
	<path class="st3" d="M45.3,143.19c1.25,2.25,3.19,4.41,3.48,6.77c0.16,1.27-2.25,3.56-3.95,4.21c-3.96,1.53-6.73-1.66-6.88-7.42
		C40.41,145.57,42.86,144.38,45.3,143.19z"/>
	<path class="st0" d="M238.48,160.76c-0.09-0.67-0.18-1.33-0.27-2c2.27-0.33,4.53-0.66,6.8-1
		C242.83,158.76,240.65,159.76,238.48,160.76z"/>
	<path class="st0" d="M53,140.77c-2,0.67-4,1.33-6,2C48.21,139.72,50.15,138.86,53,140.77z"/>
	<path class="st0" d="M82,140.76c-1.67-0.33-3.33-0.66-5-1C78.8,137.09,79.22,137.17,82,140.76z"/>
	<path class="st0" d="M59,139.77c-1.33,0.33-2.67,0.66-4,1C55.85,138.5,56.81,136.65,59,139.77z"/>
	<path class="st0" d="M251.53,155.58c-1.51,0.4-3.02,0.79-4.53,1.19c1.04-1.02,2.07-2.03,3.11-3.05
		C250.59,154.34,251.06,154.96,251.53,155.58z"/>
	<path class="st0" d="M450.92,173.97c-1.03-0.95-2.06-1.89-3.08-2.84C450.38,169.82,450.67,170.08,450.92,173.97z"/>
	<path class="st0" d="M229.6,123.94c-1.1-0.88-2.2-1.76-3.31-2.64c1.3,0.14,2.61,0.27,3.92,0.4
		C230,122.44,229.8,123.19,229.6,123.94z"/>
	<path class="st0" d="M387.92,115.97c-1.03-0.95-2.06-1.89-3.08-2.84C387.38,111.82,387.67,112.08,387.92,115.97z"/>
	<path class="st0" d="M488.92,208.96c-1.03-0.95-2.06-1.89-3.08-2.84C488.32,204.72,488.73,205.09,488.92,208.96z"/>
	<path class="st0" d="M425.94,150.93c-1.03-0.94-2.06-1.88-3.09-2.81C425.32,146.71,425.71,147.07,425.94,150.93z"/>
	<path class="st0" d="M463.94,185.93c-1.03-0.94-2.06-1.88-3.09-2.81C463.32,181.71,463.71,182.07,463.94,185.93z"/>
	<path class="st0" d="M101.51,138.68c-1.17,0.65-2.34,1.3-3.51,1.95c0.8-1.01,1.6-2.01,2.4-3.02
		C100.77,137.97,101.14,138.33,101.51,138.68z"/>
	<path class="st0" d="M87,141.76c-1.33-0.33-2.67-0.67-4-1C84.33,141.09,85.67,141.43,87,141.76z"/>
	<path class="st0" d="M437.92,161.98c-1.12-1.02-2.24-2.05-3.36-3.07C436.99,158.49,438.28,159.34,437.92,161.98z"/>
	<path class="st0" d="M362.92,92.97c-1.12-1.02-2.24-2.04-3.36-3.06C361.99,89.49,363.27,90.33,362.92,92.97z"/>
	<path class="st0" d="M412.92,138.97c-1.11-1.02-2.21-2.05-3.32-3.07C412.04,135.49,413.27,136.38,412.92,138.97z"/>
	<path class="st0" d="M475.92,196.97c-1.11-1.02-2.21-2.05-3.32-3.07C475.04,193.49,476.27,194.38,475.92,196.97z"/>
	<path class="st0" d="M92,142.76c-1-0.33-2-0.66-3-1C90,142.1,91,142.43,92,142.76z"/>
	<path class="st0" d="M324.21,43.3c-1.14-0.49-2.28-0.97-3.42-1.46C321.93,42.33,323.07,42.82,324.21,43.3z"/>
	<path class="st0" d="M104.21,130.32c-0.68,0.35-1.35,0.69-2.03,1.04c0.22-0.68,0.44-1.37,0.66-2.05
		C103.3,129.65,103.75,129.99,104.21,130.32z"/>
	<path class="st0" d="M367.21,14.35c-0.68,0.33-1.36,0.66-2.03,0.99c0.23-0.68,0.46-1.36,0.69-2.04
		C366.31,13.66,366.76,14.01,367.21,14.35z"/>
	<path class="st9" d="M250.68,398.45c-0.95,1.6-1.53,3.67-2.9,4.73c-21.48,16.63-45.81,27.01-72.66,30.38
		c-39.63,4.98-75.98-4.69-107.96-28.5c-30.68-22.85-49.76-53.64-56.84-91.25c-5.69-30.26-2.33-59.8,10.28-88.08
		c0.32-0.72,0.97-1.31,1.46-1.95c1.4,1.69,2.81,3.39,4.21,5.08c-1.39,11.33-3.55,22.63-4.01,34c-0.92,22.87,4.19,44.74,13.16,65.74
		c-0.14,2.26-0.52,4.54-0.39,6.78c0.82,14.38,7.34,26.25,16.79,36.65c13.56,14.92,31,23.47,49.78,29.69
		c1.03,0.34,2.31-0.08,3.47-0.15c1.38,0.56,2.78,1.07,4.13,1.69c35.39,16.38,71.92,19.44,109.28,8.32
		C229.54,408.29,239.96,402.89,250.68,398.45z"/>
	<path class="st1" d="M35.42,328.6c-8.97-21-14.08-42.87-13.16-65.74c0.46-11.37,2.62-22.67,4.01-34
		c3.22-9.37,6.43-18.74,9.65-28.11c6.17-10.04,12.18-20.17,18.57-30.07c2.75-4.26,4.03-4.03,7.47-0.04c-1.12,2.33-1.91,4.9-3.4,6.95
		c-23.11,31.73-32.71,67.14-27.66,106c7.8,60.04,50.84,108.09,108.88,122.54c3.03,0.75,6.18,1.01,9.28,1.49
		c0.74,0.35,1.45,0.95,2.21,1.03c14.23,1.51,28.47,2.65,42.7-0.02c1.1-0.21,2.19-0.42,3.29-0.63c0.57-0.12,1.13-0.23,1.7-0.35
		c1.36-0.28,2.72-0.56,4.08-0.84c0.61-0.1,1.23-0.2,1.84-0.3c1.14-0.1,2.31-0.05,3.41-0.32c30.94-7.42,56.68-23.42,77.75-47.12
		c1.18-1.33,2.69-2.38,4.04-3.56c4.72,2.84,5.03,4.28,1.79,8.27c-1.33,1.64-2.65,3.29-3.98,4.94
		c-11.33,9.28-22.66,18.57-33.99,27.85c-1.06,0.63-2.11,1.25-3.17,1.88c0,0-0.07-0.01-0.07-0.01c-10.71,4.44-21.14,9.84-32.19,13.13
		c-37.35,11.12-73.88,8.06-109.28-8.32c-1.35-0.62-2.76-1.13-4.13-1.69c-5.5-3.39-11.13-6.59-16.47-10.21
		C65.07,375.38,47.72,354.12,35.42,328.6z"/>
	<path class="st10" d="M35.92,200.74c-3.22,9.37-6.43,18.74-9.65,28.11c-1.4-1.69-2.81-3.39-4.21-5.08c0.33-1.33,0.65-2.67,0.98-4
		c3.05-5.1,6.02-10.26,9.2-15.28C33.15,203.04,34.67,201.98,35.92,200.74z"/>
	<path class="st9" d="M250.74,398.46c1.06-0.63,2.11-1.25,3.17-1.88C252.85,397.2,251.8,397.83,250.74,398.46z"/>
	<path class="st11" d="M313.1,45.53c1.63,1.64,3.47,3.12,4.86,4.95c2.9,3.81,5.45,3.4,9.17,0.68c13.01-9.48,26.17-18.78,39.59-27.68
		c4.71-3.13,10.31-4.91,15.51-7.31c0.31,0.45,0.61,0.9,0.92,1.35c-1.14,1.24-2.24,2.53-3.43,3.73
		c-13.64,13.66-27.3,27.3-40.94,40.97c-4.11,4.12-4.08,5.16,0.05,9.39c1.75,1.78,3.51,3.55,5.25,5.34c0.22,0.23,0.34,0.56,1.04,1.72
		c-8.42,7.21-17.05,14.59-25.67,21.97c0.14,1.01,0.28,2.02,0.41,3.02c-1.54-2.14-2.93-4.4-4.64-6.4c-5.08-5.97-5.47-5.91-11.19-0.25
		c-11.34,11.23-22.7,22.42-34.06,33.64c4.8-8.57,9.16-17.42,14.51-25.63c4.9-7.51,10.87-14.33,16.89-22.12
		c-1.91-0.81-3.45-1.46-4.99-2.1c-2.48-3.33-4.97-6.66-7.45-9.99c7.69-7.52,15.4-15.03,23.04-22.61
		C312.6,47.56,312.73,46.43,313.1,45.53z"/>
	<path class="st12" d="M362.28,103.67c0.29,0.03,0.54,0.14,0.75,0.34c0.26,0.26,0.53,0.52,0.79,0.78
		c8.99,8.16,18.04,16.26,26.97,24.48c31.36,28.86,62.68,57.78,94.04,86.64c4.41,4.05,8.94,7.98,13.5,11.86
		c7.37,6.28,7.46,7.49,0.74,15.05c-1.45-1.91-2.67-4.05-4.38-5.69c-3.76-3.6-7.76-6.94-11.67-10.38c-0.03-0.32-0.05-0.64-0.08-0.96
		l0.04,0.03c-0.67-0.35-1.34-0.7-2.02-1.05c-2-1.97-3.99-3.94-5.99-5.91c0.43-1.1,0.86-2.2,1.52-3.92c-2.4-0.73-4.54-1.38-6.67-2.03
		c-1.79-1.07-3.79-1.89-5.32-3.25c-7.17-6.38-14.15-12.98-21.3-19.37c-8.76-7.82-17.56-15.59-26.47-23.25
		c-3.91-3.36-8.17-6.29-12.15-9.56c-3.05-2.5-5.91-5.24-8.85-7.87c2.97-3.96-1.65-5.15-2.78-7.62c-0.33-0.41-0.66-0.81-0.99-1.22
		c0,0,0.01,0.03,0.01,0.03c-0.35,0.01-0.69,0.01-1.04,0.02c-7.29-3.81-14.23-8.01-19.65-14.45c-3.46-4.12-7.39-7.87-11.3-11.58
		c-2.98-2.83-6.24-5.37-9.42-7.97c-4.19-3.42-8.43-6.78-12.64-10.16c1.69-1.64,3.38-3.28,5.07-4.92c1.7,1.2,3.32,2.52,5.11,3.57
		c4.29,2.52,8.66,4.92,12.99,7.36c0,0-0.05-0.01-0.05-0.01C361.45,103.01,361.87,103.34,362.28,103.67z M406,154.76
		c-0.14-0.08-0.28-0.16-0.42-0.24C405.72,154.61,405.86,154.69,406,154.76c0.33,0.33,0.67,0.67,1,1c0.14,0.08,0.28,0.15,0.42,0.23
		c-0.14-0.08-0.28-0.15-0.42-0.23C406.67,155.43,406.33,155.1,406,154.76z M437,176.76c-0.14-0.08-0.28-0.15-0.43-0.23
		C436.72,176.61,436.86,176.69,437,176.76c0.33,0.34,0.66,0.67,1,1c0.33,0.33,0.67,0.67,1,1c0.33,0.33,0.67,0.67,1,1
		c0.33,0.33,0.67,0.67,1,1c0.2,1.69-0.24,4.07,0.71,4.95c3.16,2.95,6.83,5.37,10.3,7.99c0.39-0.42,0.78-0.84,1.16-1.25
		c-4.05-3.9-8.11-7.8-12.16-11.7c-0.33-0.33-0.67-0.67-1-1c-0.33-0.33-0.67-0.67-1-1c-0.33-0.33-0.67-0.67-1-1
		C437.67,177.43,437.34,177.09,437,176.76z M455.29,195.38c-0.02-0.1-0.01-0.26-0.07-0.3c-0.09-0.07-0.24-0.06-0.37-0.08
		c0.03,0.17,0.07,0.35,0.1,0.52C455.06,195.47,455.18,195.42,455.29,195.38z"/>
	<path class="st13" d="M296.55,141.05c-6.42,1.37-12.89,2.56-19.26,4.16c-5.11,1.28-10.1,3.05-15.14,4.6
		c15.96-15.53,31.91-31.06,47.93-46.66c10.73,8.52,10.9,8.56,18.48,3.3c12.1,11.3,24.31,22.71,36.53,34.12
		c-3.74-0.33-7.55-0.35-11.22-1.05c-14.69-2.8-29.43-3.55-44.28-1.63c-0.58,0.07-1.09,0.65-1.63,0.99c-2.16-2.23-4.35-2.19-6.8-0.37
		C299.76,139.53,298.09,140.21,296.55,141.05z"/>
	<path class="st14" d="M337.92,96.68c4.22,3.38,8.46,6.74,12.64,10.16c3.19,2.6,6.44,5.15,9.42,7.97c3.91,3.71,7.84,7.46,11.3,11.58
		c5.42,6.44,12.36,10.64,19.65,14.45c0.35-0.01,0.69-0.01,1.03-0.02c0,0-0.01-0.03-0.01-0.03c0.33,0.41,0.66,0.81,0.99,1.22
		c1.14,2.46,5.75,3.65,2.78,7.62c2.94,2.63,5.81,5.36,8.85,7.87c3.98,3.27,8.25,6.2,12.15,9.56c8.9,7.65,17.71,15.42,26.47,23.25
		c7.16,6.39,14.13,12.99,21.3,19.37c1.53,1.36,3.53,2.18,5.32,3.25c1.72,1.98,3.43,3.96,5.15,5.94c2,1.97,3.99,3.94,5.99,5.91
		c0.67,0.35,1.34,0.7,2.02,1.05c0,0-0.04-0.03-0.04-0.03c-0.03,0.32,0,0.64,0.08,0.96c3.9,3.45,7.91,6.79,11.67,10.38
		c1.71,1.64,2.94,3.78,4.38,5.69c-4.43,4.81-6.19,5.06-10.22,1.3c-15.41-14.4-30.79-28.83-46.19-43.25
		c2.51-3.48-1.57-3.51-2.67-5.11c-0.33-0.33-0.67-0.66-1-1c-0.33-0.33-0.67-0.67-1-1c-0.14-0.08-0.29-0.16-0.43-0.24
		c0.14,0.08,0.28,0.17,0.42,0.25c0.33,0.33,0.67,0.67,1,1c0.33,0.33,0.66,0.67,1,1c-0.03,0.85-0.06,1.71-0.08,2.56
		c-13.64-12.43-27.32-24.81-40.92-37.28c-20.59-18.88-41.13-37.81-61.7-56.72c-1.1-1.01-2.23-1.97-4.67-4.11
		C334.66,98.85,336.29,97.76,337.92,96.68z M431.01,185.76c-0.33-0.33-0.67-0.67-1-1c-0.33-0.33-0.67-0.67-1-1
		c-0.05-0.11-0.09-0.24-0.17-0.33c-0.05-0.06-0.17-0.05-0.26-0.07c0.14,0.14,0.27,0.28,0.41,0.41c0.33,0.33,0.67,0.67,1,1
		c0.33,0.33,0.67,0.67,1,1c0.33,0.33,0.67,0.67,1,1c0.05,0.11,0.08,0.24,0.16,0.34c0.05,0.06,0.17,0.05,0.25,0.08
		c-0.13-0.14-0.27-0.28-0.4-0.42C431.67,186.42,431.34,186.09,431.01,185.76z M418,172.76c-0.15-0.08-0.29-0.15-0.44-0.23
		C417.71,172.61,417.85,172.69,418,172.76c0.33,0.34,0.66,0.67,0.99,1.01c0.33,0.33,0.67,0.67,1,1c0.33,0.33,0.67,0.67,1,1
		c0.05,0.11,0.08,0.25,0.16,0.34c0.05,0.06,0.17,0.05,0.26,0.07c-0.13-0.14-0.27-0.29-0.4-0.43c-0.33-0.33-0.67-0.67-1-1
		c-0.33-0.33-0.67-0.66-1-1C418.67,173.43,418.34,173.09,418,172.76z M415.77,170.7c-0.08-0.1-0.15-0.21-0.23-0.31
		c-0.1,0.08-0.19,0.17-0.29,0.25c0.13,0.13,0.26,0.27,0.39,0.4C415.68,170.93,415.72,170.81,415.77,170.7z"/>
	<path class="st15" d="M296.38,80.79c1.54,0.65,3.08,1.3,4.99,2.1c-6.01,7.79-11.99,14.61-16.89,22.12
		c-5.35,8.21-9.72,17.06-14.51,25.63c-3.1,3.42-5.81,7.32-11.24,9.88c7.8-20.94,20.05-37.62,33.09-53.81
		C293.37,84.77,294.86,82.77,296.38,80.79z"/>
	<path class="st15" d="M313.1,45.53c-0.37,0.9-0.5,2.03-1.14,2.66c-7.64,7.58-15.34,15.08-23.04,22.61
		c-1.18-0.86-2.37-1.71-3.24-2.34c4.67-5.06,8.64-9.39,12.66-13.7c2.93-3.14,6-6.15,8.83-9.37
		C309.34,42.94,311.19,42.76,313.1,45.53z"/>
	<path class="st16" d="M361.09,102.69c-4.34-2.45-8.7-4.84-12.99-7.36c-1.78-1.05-3.41-2.37-5.11-3.57
		c0.97-1.05,1.94-2.09,3.35-3.61C351.5,93.23,356.3,97.96,361.09,102.69z"/>
	<path class="st17" d="M440.01,195.76c1.1,1.59,5.18,1.63,2.67,5.11c-0.92-0.85-1.84-1.69-2.77-2.53c0.03-0.85,0.06-1.71,0.09-2.56
		C439.99,195.77,440.01,195.76,440.01,195.76z"/>
	<path class="st16" d="M363.82,104.79c-0.26-0.26-0.53-0.52-0.79-0.78C363.3,104.27,363.56,104.53,363.82,104.79z"/>
	<path class="st16" d="M362.28,103.67c-0.41-0.33-0.83-0.67-1.24-1C361.45,103.01,361.87,103.34,362.28,103.67z"/>
	<path class="st15" d="M7.05,345.84c1.93,3.08,3.91,4.85,3.81,6.49c-0.09,1.45-2.5,2.76-3.88,4.12c-1.4-1.52-3.62-2.89-3.94-4.61
		C2.8,350.53,4.97,348.78,7.05,345.84z"/>
	<path class="st18" d="M290.08,355.52c-1.35,1.18-2.86,2.23-4.04,3.56c-21.08,23.71-46.82,39.7-77.75,47.12
		c-1.1,0.26-2.27,0.22-3.41,0.32c2.21-1.25,4.31-2.8,6.66-3.69c26.45-10.05,48.49-26.13,65.29-48.88
		c22.74-30.78,32.41-65.24,28.34-103.56c-2.14-20.17-8.34-38.89-18.22-56.42c-3.14-5.57-7.45-10.49-11.23-15.7
		c0.27-0.78,0.46-1.6,0.82-2.34c1.51-3.14,3.08-6.26,5.23-10.61c5.65,7.75,11.29,14.62,15.97,22.09
		c17.06,27.22,24.23,57.06,22.08,89.03c-0.61,9.07-2.51,18.06-3.81,27.09C310.95,322.64,302.46,340.05,290.08,355.52z"/>
	<path class="st8" d="M296.55,141.05c1.55-0.84,3.21-1.52,4.61-2.55c2.46-1.82,4.65-1.86,6.8,0.37c-0.93,2.04-1.31,4.8-2.89,5.99
		c-4.07,3.07-8.53,5.73-13.12,7.96c-1.56,0.76-4.78,0.54-5.81-0.57c-2.28-2.44-0.28-4.41,2.08-5.86
		C291.03,144.67,293.78,142.84,296.55,141.05z"/>
	<path class="st8" d="M358.11,329.88c-2.13,1.54-4.12,4.04-6.42,4.39c-3.2,0.48-5.58-1.88-5.63-5.44c-0.04-3.56,2.32-5.96,5.51-5.56
		c2.31,0.29,4.35,2.76,6.52,4.26C358.09,328.32,358.1,329.1,358.11,329.88z"/>
	<path class="st2" d="M335.45,184.76c3.87,0.1,6.8,3.23,6.72,7.17c-0.08,3.92-3.19,6.92-7.06,6.83c-3.73-0.09-6.98-3.47-6.87-7.16
		C328.34,187.88,331.74,184.66,335.45,184.76z M334.94,197.8c2.19-2.71,4.49-4.34,4.3-5.6c-0.26-1.69-2.24-3.88-3.88-4.3
		c-1.07-0.27-3.91,2.12-4.03,3.49C331.18,193,333.12,194.79,334.94,197.8z"/>
	<path class="st3" d="M321.93,335.72c-0.48-0.95-1.25-2.32-1.83-3.77c-0.08-0.19,0.85-0.78,1.31-1.19c2.99,3.64,6.55-2.77,8.22-0.17
		c1.55,2.42,0.74,6.34,1.01,10.18c-1.88-0.85-3.17-1.44-3.85-1.75c-2.08,0.73-3.63,1.28-5.19,1.83
		C321.7,339.24,321.8,337.63,321.93,335.72z"/>
	<path class="st19" d="M229.36,156.67c1.47,2.86,0.99,5.23-1.22,7.66c-3.57,3.94-6.75,8.24-10.26,12.23
		c-2.65,3.01-3.52,6.34-2.61,10.16c2.23,9.37,4.49,18.73,6.75,28.09c0.92,3.81,3.16,4.79,6.7,3.14
		c10.85-5.04,21.78-9.93,32.52-15.19c2.04-1,3.66-3.21,5.01-5.18c1.48-2.16,2.43-4.68,3.61-7.04
		c15.95,21.41,25.51,45.05,25.15,72.14c-0.34,1.6-0.72,3.19-1,4.8c-1.9,10.86-2.87,21.99-5.84,32.54
		c-6.34,22.53-19.95,40.7-37.75,55.42c-7.82,6.47-16.95,11.62-26.08,16.16c-14.83,7.38-30.83,10.81-47.45,11.26
		c-0.99,0.03-1.93,1.87-2.89,2.86c-6.73-0.68-13.54-0.91-20.17-2.1c-33.89-6.12-60.31-23.97-79.59-52.23
		C61.23,312.35,55.43,290.74,54,267.86c1.65-1.44,4.49-2.73,4.69-4.35c0.44-3.54,2.08-8.28-3.69-9.73c0.04-2.09,0.08-4.18,0.12-6.27
		c4.16,1.09,5.19-1.51,5.82-4.8c10.43-54.59,58.39-94.14,112.32-95.35c2.01-0.04,3.98-1.71,5.98-2.62
		c7.66,0.97,15.48,1.24,22.93,3.08C211.4,150.09,220.31,153.66,229.36,156.67z M129.56,233.28c2.36,0,4.17-0.03,5.97,0
		c7.68,0.13,8.91,1.35,8.92,9.12c0.03,14.66,0.01,29.32,0.01,43.98c0,8.04-0.26,8.19-8.46,8.49c-1.53,0.05-4.09,0.86-4.34,1.81
		c-1.06,3.94-1.41,8.06-2.13,12.84c8.09,0,15.49,0,23.53,0c0,6.67,0,12.72,0,18.67c4.24,0,7.81,0,11.84,0c0-6.3,0-12.23,0-18.33
		c3.17,0,5.85,0,9.19,0c0,6.44,0,12.49,0,18.35c4.23,0,7.79,0,11.94,0c0-6.64,0-12.87,0-18.43c6.69-1.48,12.81-2.36,18.6-4.25
		c7.13-2.33,12.48-7.05,14.4-14.68c1.69-6.72,2.11-13.51-0.69-20.08c-2.55-5.99-7.98-8.45-13.4-10.27c2.42-2.93,5.35-5.39,6.87-8.53
		c5.52-11.37,0.47-23.64-11.49-28.06c-4.58-1.69-9.53-2.42-14.81-3.7c0-6.18,0-12.24,0-18.22c-4.15,0-7.73,0-11.88,0
		c0,6.42,0,12.48,0,18.44c-3.19,0-5.79,0-8.97,0c0-6.37,0-12.44,0-18.48c-4.19,0-7.77,0-11.93,0c0,6.38,0,12.45,0,18.9
		c-8.02,0-15.46,0-23.16,0C129.56,225,129.56,228.76,129.56,233.28z M285.27,232.28c-2.74-9.93-6.57-18.7-12.77-26.29
		c-0.46-0.56-1.95-0.28-2.97-0.39c0.04,0.89-0.19,1.91,0.16,2.67c3.76,8.08,7.59,16.13,11.5,24.14c0.43,0.88,1.54,1.43,2.34,2.14
		C284.16,233.73,284.79,232.92,285.27,232.28z"/>
	<path class="st20" d="M55.12,247.51c-0.04,2.09-0.08,4.18-0.12,6.27c-4.98,3.37-5.43,9.77-1,14.08
		c1.43,22.88,7.23,44.49,20.24,63.56c19.28,28.26,45.71,46.11,79.59,52.23c6.63,1.2,13.44,1.43,20.17,2.1
		c6.35-0.31,12.76-0.2,19.05-1.01c26.45-3.43,48.77-15.51,67.94-33.6c11.99-11.31,20.69-25.07,27.28-40.1
		c6.11-13.95,8.96-28.71,9.7-43.89c0.1-2.13,0.49-4.6-2.95-4.45c0.35-27.09-9.2-50.73-25.15-72.14c1.95-4.09,3.91-8.19,5.86-12.28
		c3.78,5.21,8.09,10.13,11.23,15.7c9.88,17.53,16.08,36.24,18.22,56.42c4.07,38.32-5.6,72.78-28.34,103.56
		c-16.8,22.75-38.84,38.83-65.29,48.88c-2.35,0.89-4.44,2.45-6.66,3.69c-0.61,0.1-1.23,0.2-1.84,0.3c-1.36,0.28-2.72,0.56-4.08,0.84
		c-0.57,0.12-1.13,0.23-1.7,0.34c-1.1,0.21-2.19,0.42-3.28,0.64c-14.23,2.67-28.47,1.53-42.7,0.02c-0.77-0.08-1.48-0.67-2.21-1.03
		c-1.94-0.88-3.83-1.96-5.84-2.6c-20.44-6.51-38.39-17.1-54.25-31.6c-25.56-23.38-40.85-52.36-45.66-86.28
		c-6.01-42.42,4.91-80.86,32.12-114.07c19.82-24.2,45.42-39.96,75.63-48.2c1.11-0.3,2.04-1.24,3.06-1.89
		c0.62-0.06,1.24-0.13,1.86-0.19c2.01-0.06,4.02-0.11,6.04-0.17c0.34-0.26,0.69-0.52,1.03-0.78c1.58-0.11,3.15-0.23,4.73-0.34
		c1.09-0.14,2.19-0.28,3.28-0.41c2.29,0.01,4.59,0.01,6.88,0.02c1.03,0.07,2.07,0.14,3.1,0.21c0.58,0.05,1.17,0.11,1.75,0.16
		c0.36,0.33,0.66,0.84,1.08,0.97c13.35,4.14,26.72,8.24,40.08,12.34c1.8,7.3,3.6,14.59,5.41,21.89c-9.05-3.01-17.96-6.58-27.2-8.85
		c-7.44-1.84-15.27-2.11-22.93-3.08c0.22-3.94-1.76-5.39-5.52-5.03c-4.14,0.39-8.3,0.52-12.43,0.99
		c-53.2,6.03-98.55,48.24-107.86,100.56C53.09,243.18,54.52,245.42,55.12,247.51z"/>
	<path class="st21" d="M223.96,134.79c-13.36-4.1-26.73-8.2-40.08-12.34c-0.42-0.13-0.73-0.64-1.08-0.97
		c13.25-0.24,25.97,2.65,38.32,7.08C222.61,129.1,223.03,132.64,223.96,134.79z"/>
	<path class="st6" d="M162.01,122.62c-2.01,0.06-4.02,0.11-6.04,0.17c2.01-0.34,4.01-0.68,6.02-1.02
		C162,122.06,162.01,122.34,162.01,122.62z"/>
	<path class="st21" d="M171.06,121.09c-1.09,0.14-2.19,0.28-3.28,0.41C168.87,121.37,169.96,121.23,171.06,121.09z"/>
	<path class="st21" d="M181.04,121.32c-1.03-0.07-2.07-0.14-3.1-0.21C178.97,121.18,180.01,121.25,181.04,121.32z"/>
	<path class="st21" d="M162.01,122.62c-0.01-0.28-0.01-0.57-0.01-0.85c0.35,0.03,0.7,0.05,1.05,0.08
		C162.7,122.11,162.36,122.36,162.01,122.62z"/>
	<path class="st22" d="M35.42,328.6c12.3,25.52,29.64,46.79,53.18,62.76c5.34,3.62,10.97,6.82,16.47,10.21
		c-1.16,0.07-2.45,0.49-3.47,0.15c-18.78-6.22-36.22-14.77-49.78-29.69c-9.45-10.4-15.97-22.26-16.79-36.65
		C34.9,333.14,35.28,330.86,35.42,328.6z"/>
	<path class="st18" d="M198.95,407.65c1.36-0.28,2.72-0.56,4.08-0.84C201.68,407.1,200.31,407.38,198.95,407.65z"/>
	<path class="st18" d="M193.97,408.63c1.09-0.21,2.19-0.42,3.28-0.64C196.16,408.21,195.06,408.42,193.97,408.63z"/>
	<path class="st16" d="M441,180.76c4.05,3.9,8.11,7.8,12.16,11.7c-0.39,0.42-0.78,0.84-1.16,1.25c-3.47-2.62-7.13-5.04-10.3-7.99
		C440.76,184.83,441.19,182.46,441,180.76L441,180.76z"/>
	<path class="st16" d="M474.98,218.86c-1.72-1.98-3.43-3.96-5.15-5.94c2.14,0.65,4.27,1.3,6.67,2.03
		C475.83,216.66,475.41,217.76,474.98,218.86z"/>
	<path class="st16" d="M482.98,225.81c-0.67-0.35-1.34-0.7-2.02-1.05C481.64,225.12,482.31,225.47,482.98,225.81z"/>
	<path class="st16" d="M455.29,195.38c-0.11,0.04-0.23,0.09-0.34,0.13c-0.03-0.17-0.07-0.35-0.1-0.52c0.12,0.02,0.27,0.02,0.37,0.08
		C455.28,195.12,455.27,195.27,455.29,195.38z"/>
	<path class="st16" d="M439,178.76c0.33,0.33,0.67,0.67,1,1c0,0-0.01,0.01-0.01,0.01C439.66,179.43,439.33,179.1,439,178.76
		C439,178.77,439,178.76,439,178.76z"/>
	<path class="st16" d="M441,180.77c-0.33-0.33-0.67-0.67-1-1c0,0,0.01-0.01,0.01-0.01C440.34,180.09,440.67,180.43,441,180.77
		C441,180.76,441,180.77,441,180.77z"/>
	<path class="st16" d="M438,177.76c0.33,0.33,0.67,0.67,1,1c0,0-0.01,0.01-0.01,0.01C438.66,178.43,438.33,178.1,438,177.76
		C438,177.77,438,177.76,438,177.76z"/>
	<path class="st16" d="M437,176.76c0.33,0.33,0.67,0.67,1,1c0,0,0,0.01,0,0.01C437.66,177.43,437.33,177.1,437,176.76L437,176.76z"
		/>
	<path class="st16" d="M437,176.77c-0.14-0.08-0.28-0.15-0.42-0.23C436.72,176.61,436.86,176.69,437,176.77
		C437,176.76,437,176.77,437,176.77z"/>
	<path class="st16" d="M483.02,226.75c-0.08-0.32-0.11-0.64-0.08-0.96C482.97,226.11,483,226.43,483.02,226.75z"/>
	<path class="st16" d="M407,155.76c0.14,0.08,0.28,0.15,0.42,0.23C407.28,155.92,407.14,155.84,407,155.76
		C407,155.76,407,155.76,407,155.76z"/>
	<path class="st16" d="M406,154.76c0.33,0.33,0.67,0.67,1,1c0,0,0,0,0,0C406.67,155.43,406.33,155.1,406,154.76L406,154.76z"/>
	<path class="st16" d="M406,154.76c-0.14-0.08-0.28-0.16-0.42-0.23C405.72,154.61,405.86,154.69,406,154.76L406,154.76z"/>
	<path class="st16" d="M392.95,142.01c-0.33-0.41-0.66-0.81-0.99-1.22C392.29,141.2,392.62,141.6,392.95,142.01z"/>
	<path class="st16" d="M391.97,140.82c-0.34,0.01-0.69,0.01-1.03,0.02C391.28,140.83,391.62,140.82,391.97,140.82z"/>
	<path class="st17" d="M415.77,170.7c-0.04,0.11-0.09,0.23-0.13,0.34c-0.13-0.13-0.26-0.27-0.39-0.4c0.1-0.08,0.19-0.17,0.29-0.25
		C415.61,170.49,415.69,170.59,415.77,170.7z"/>
	<path class="st17" d="M438,193.77c-0.14-0.08-0.28-0.17-0.42-0.25C437.72,193.6,437.86,193.68,438,193.77L438,193.77z"/>
	<path class="st17" d="M438,193.76c0.33,0.33,0.67,0.67,1,1c0,0-0.01,0.01-0.01,0.01C438.66,194.44,438.33,194.1,438,193.76
		C438,193.77,438,193.76,438,193.76z"/>
	<path class="st17" d="M439.01,194.76c0.33,0.33,0.67,0.66,1,1c0,0-0.01,0.01-0.01,0.01c-0.33-0.33-0.66-0.67-1-1
		C439,194.77,439.01,194.76,439.01,194.76z"/>
	<path class="st17" d="M421.01,175.75c0.13,0.14,0.27,0.29,0.4,0.43c-0.09-0.02-0.21-0.02-0.26-0.07c-0.08-0.09-0.11-0.22-0.16-0.34
		L421.01,175.75z"/>
	<path class="st17" d="M420.99,175.77c-0.33-0.33-0.67-0.67-1-1l0.01-0.01c0.33,0.33,0.67,0.67,1,1
		C421.01,175.75,420.99,175.77,420.99,175.77z"/>
	<path class="st17" d="M419.99,174.77c-0.33-0.33-0.67-0.67-1-1c0,0,0.01-0.01,0.01-0.01c0.33,0.33,0.67,0.66,1,1
		C420.01,174.76,419.99,174.77,419.99,174.77z"/>
	<path class="st17" d="M432,186.76c0.13,0.14,0.27,0.28,0.4,0.42c-0.09-0.02-0.2-0.02-0.25-0.08c-0.08-0.09-0.11-0.22-0.16-0.34
		L432,186.76z"/>
	<path class="st17" d="M419,173.77c-0.33-0.33-0.67-0.67-1-1l0,0C418.34,173.09,418.67,173.43,419,173.77
		C419,173.76,419,173.77,419,173.77z"/>
	<path class="st17" d="M429.99,184.77c-0.33-0.33-0.67-0.67-1-1l0.01-0.01c0.33,0.33,0.67,0.67,1,1L429.99,184.77z"/>
	<path class="st17" d="M428.99,183.77c-0.14-0.14-0.27-0.28-0.41-0.41c0.09,0.02,0.21,0.01,0.26,0.07c0.08,0.09,0.11,0.22,0.17,0.33
		C429.01,183.76,428.99,183.77,428.99,183.77z"/>
	<path class="st17" d="M431.99,186.77c-0.33-0.33-0.67-0.67-1-1c0,0,0.01-0.01,0.01-0.01c0.33,0.33,0.67,0.67,1,1
		C432,186.76,431.99,186.77,431.99,186.77z"/>
	<path class="st17" d="M430.01,184.76c0.33,0.33,0.67,0.67,1,1c0,0-0.01,0.01-0.01,0.01c-0.33-0.33-0.67-0.67-1-1
		C429.99,184.77,430.01,184.76,430.01,184.76z"/>
	<path class="st17" d="M418,172.77c-0.14-0.08-0.29-0.15-0.43-0.23C417.71,172.61,417.86,172.69,418,172.77
		C418,172.76,418,172.77,418,172.77z"/>
	<path class="st7" d="M334.94,197.8c-1.82-3.01-3.76-4.8-3.61-6.41c0.13-1.37,2.96-3.77,4.03-3.49c1.64,0.42,3.62,2.62,3.88,4.3
		C339.43,193.45,337.13,195.09,334.94,197.8z"/>
	<path class="st23" d="M129.56,233.28c0-4.53,0-8.28,0-12.45c7.7,0,15.14,0,23.16,0c0-6.46,0-12.52,0-18.9c4.16,0,7.75,0,11.93,0
		c0,6.04,0,12.11,0,18.48c3.18,0,5.78,0,8.97,0c0-5.96,0-12.02,0-18.44c4.16,0,7.73,0,11.88,0c0,5.98,0,12.05,0,18.22
		c5.29,1.29,10.23,2.01,14.81,3.7c11.96,4.42,17.01,16.69,11.49,28.06c-1.53,3.14-4.45,5.6-6.87,8.53
		c5.43,1.81,10.85,4.28,13.4,10.27c2.8,6.57,2.38,13.36,0.69,20.08c-1.92,7.63-7.28,12.35-14.4,14.68
		c-5.79,1.9-11.91,2.77-18.6,4.25c0,5.56,0,11.79,0,18.43c-4.15,0-7.71,0-11.94,0c0-5.86,0-11.91,0-18.35c-3.34,0-6.02,0-9.19,0
		c0,6.1,0,12.03,0,18.33c-4.03,0-7.6,0-11.84,0c0-5.95,0-12,0-18.67c-8.04,0-15.44,0-23.53,0c0.72-4.78,1.08-8.9,2.13-12.84
		c0.25-0.95,2.81-1.75,4.34-1.81c8.2-0.29,8.46-0.45,8.46-8.49c0.01-14.66,0.02-29.32-0.01-43.98c-0.01-7.77-1.24-8.99-8.92-9.12
		C133.73,233.26,131.93,233.28,129.56,233.28z M165.28,269.57c0,8.82,0,17.01,0,26.66c8.93-1.54,17.28-2.52,25.37-4.56
		c4.8-1.21,6.8-5.47,6.51-10.56c-0.28-4.76-2.94-7.64-7.17-9.2C182.04,268.97,173.82,268.75,165.28,269.57z M165.1,258.62
		c7.29-1.27,13.8-2.06,20.14-3.62c4.46-1.1,6.78-4.63,6.73-9.33c-0.04-4.67-2.45-8.37-6.77-9.41c-6.45-1.55-13.15-2.04-20.1-3.03
		C165.1,242.14,165.1,249.54,165.1,258.62z"/>
	<path class="st24" d="M55.12,247.51c-0.6-2.09-2.03-4.33-1.68-6.26c9.31-52.32,54.65-94.52,107.86-100.56
		c4.13-0.47,8.29-0.6,12.43-0.99c3.76-0.36,5.74,1.09,5.52,5.03c-1.99,0.91-3.97,2.58-5.98,2.62
		c-53.93,1.2-101.89,40.75-112.32,95.35C60.31,246,59.28,248.61,55.12,247.51z"/>
	<path class="st25" d="M295.01,262.7c3.44-0.15,3.06,2.32,2.95,4.45c-0.74,15.18-3.59,29.93-9.7,43.89
		c-6.58,15.03-15.28,28.79-27.28,40.1c-19.17,18.09-41.5,30.17-67.94,33.6c-6.29,0.81-12.69,0.7-19.05,1.01
		c0.96-1,1.9-2.83,2.89-2.86c16.62-0.45,32.62-3.88,47.45-11.26c9.13-4.55,18.26-9.7,26.08-16.16
		c17.8-14.72,31.41-32.89,37.75-55.42c2.97-10.56,3.94-21.68,5.84-32.54C294.29,265.89,294.68,264.3,295.01,262.7z"/>
	<path class="st7" d="M285.27,232.28c-0.49,0.63-1.11,1.45-1.74,2.27c-0.79-0.71-1.9-1.26-2.34-2.14
		c-3.91-8.01-7.74-16.06-11.5-24.14c-0.35-0.75-0.12-1.77-0.16-2.67c1.01,0.11,2.51-0.18,2.97,0.39
		C278.7,213.58,282.53,222.35,285.27,232.28z"/>
	<path class="st24" d="M54,267.86c-4.43-4.31-3.98-10.71,1-14.08c5.77,1.46,4.13,6.19,3.69,9.73
		C58.49,265.13,55.65,266.42,54,267.86z"/>
	<path class="st26" d="M165.28,269.57c8.54-0.81,16.75-0.6,24.71,2.35c4.23,1.57,6.89,4.45,7.17,9.2c0.3,5.09-1.71,9.35-6.51,10.56
		c-8.09,2.03-16.45,3.01-25.37,4.56C165.28,286.57,165.28,278.39,165.28,269.57z"/>
	<path class="st27" d="M165.1,258.62c0-9.07,0-16.47,0-25.39c6.95,0.99,13.65,1.48,20.1,3.03c4.32,1.04,6.73,4.74,6.77,9.41
		c0.04,4.7-2.27,8.24-6.73,9.33C178.9,256.55,172.39,257.35,165.1,258.62z"/>
</g>
</svg>
