<?xml version="1.0" encoding="utf-8"?>
<!-- Generator: Adobe Illustrator 25.3.1, SVG Export Plug-In . SVG Version: 6.00 Build 0)  -->
<svg version="1.1" id="Layer_1" xmlns="http://www.w3.org/2000/svg" xmlns:xlink="http://www.w3.org/1999/xlink" x="0px" y="0px"
	 viewBox="0 0 1440 438.05" style="enable-background:new 0 0 1440 438.05;" xml:space="preserve">
<style type="text/css">
	.st0{fill:#303793;}
</style>
<path class="st0" d="M0,278.05l34.3,10.7c34.3,10.3,102.7,32.3,171.7,10.6c68.3-21.3,147.68-93.01,215.68-98.31
	c69-5.7,173.02,2.42,241.02,28.72c68.7,26.7,108.95,42,177.95,47.3c68.4,5.7,103.61,2.25,177.95-42.8
	c81.84-46.93,65.32-72.08,139.65-135.15C1203.29,57.44,1440,15.77,1440,15.77v422.28h-34.3c-34.3,0-102.7,0-171.7,0
	c-68.3,0-137,0-205,0c-69,0-138,0-206,0c-68.7,0-137,0-206,0c-68.4,0-137,0-206,0c-68.1,0-137,0-205,0c-68.9,0-137,0-172,0H0V278.05
	z"/>
</svg>
