<?xml version="1.0" encoding="utf-8"?>
<!-- Generator: Adobe Illustrator 23.0.6, SVG Export Plug-In . SVG Version: 6.00 Build 0)  -->
<svg version="1.1" id="Layer_1" xmlns="http://www.w3.org/2000/svg" xmlns:xlink="http://www.w3.org/1999/xlink" x="0px" y="0px"
	 viewBox="0 0 201.5 159.3" style="enable-background:new 0 0 201.5 159.3;" xml:space="preserve">
<style type="text/css">
	.st0{fill:url(#SVGID_1_);}
	.st1{fill:url(#SVGID_2_);}
	.st2{fill:url(#SVGID_3_);}
	.st3{fill:url(#SVGID_4_);}
</style>
<path d="M121.6,80.1c-2.3-5-6.3-7.5-11.7-7.8c-1.1-0.1-2.2-0.1-3.4-0.1c0.3-0.4,0.4-0.6,0.6-0.7c5.9-6.8,2.5-15.6-1.6-19.6
	c-3.2-3.1-7.2-4-11.5-3.8c-2.8,0.2-5.5,0.6-8.3,1c-0.7,0.1-1.4-0.3-1.6-1c-0.7-2.4-1.5-4.8-2.4-7.1c-0.4-1.3-0.9-2.5-1.4-3.8
	c-0.2-0.5-0.8-0.8-1.3-0.6c-2.1,0.7-4.1,1.4-6.1,2c-0.8,0.2-0.7,0.7-0.5,1.4c0.7,2.2,1.4,4.3,2.1,6.5c0.6,1.7,1.1,3.5,1.7,5.3
	c-2.2,0.8-4.2,1.5-6.3,2.2c-1.4-4.1-2.7-8-4.1-12c-0.2-0.5-0.8-0.8-1.3-0.6c-2.1,0.7-4,1.3-6,2c-0.5,0.2-0.8,0.8-0.7,1.3
	c1.2,3.6,2.3,7.1,3.5,10.5c0.4,1-0.2,2.1-1.2,2.4c-4.4,1.4-8.7,2.9-13,4.3c-1.1,0.3-1.4,0.8-1,1.9c0.8,2.3,1.6,4.7,2.4,7.1
	c1.2-0.3,2.2-0.7,3.3-1c1.1-0.3,2.1-0.7,3.2-1c2.4-0.7,4.5,0.4,5.3,2.7c1.8,5.4,3.6,10.8,5.4,16.2c2.1,6.4,4.2,12.8,6.3,19.1
	c0.7,2.2,0,3.5-2.2,4.3c-1.8,0.6-3.6,1.2-5.5,1.8c0.5,3.3,1,6.5,1.5,9.9c0.5-0.1,0.8-0.2,1.2-0.3c4.6-1.4,9.2-2.9,13.8-4.4
	c1-0.3,1.5-0.2,1.9,1c1.1,3.6,2.5,7.2,3.6,10.9c0.2,0.7,0.9,1,1.5,0.8c1.7-0.6,3.5-1.3,5.3-1.8c1.4-0.4,1.5-1,1.1-2.3
	c-1.3-3.8-2.5-7.6-3.8-11.5c2.2-0.7,4.2-1.3,6.4-2c1.4,4.1,2.8,8.1,4.2,12.1c0.2,0.5,0.8,0.8,1.3,0.6c2-0.7,4-1.4,6-2.1
	c0.5-0.2,0.8-0.8,0.6-1.3c-1.4-4.2-2.7-8.2-4-12.2c0.7-0.4,1.3-0.7,1.9-0.9c4.2-1.4,7.8-3.9,11.2-6.5c2.5-1.9,4.3-4.3,5.2-7.4
	C124.6,90.1,123.8,85.1,121.6,80.1z M78.6,79.3c-1.8-5.4-3.5-10.6-5.3-16c5.2-2,10.3-4,15.9-3.2c2.9,0.4,4.8,2.2,5.6,5.1
	c0.9,3,0,5.5-2.2,7.5c-2.9,2.7-6.5,4-10.1,5.3C81.2,78.6,79.9,78.9,78.6,79.3z M103.9,97.6c-4.8,3.9-10.6,5.8-16.7,7.6
	c-2-5.9-4-11.8-6-17.7c6-1.9,11.6-4.4,17.9-4c5.2,0.3,8.4,3.7,8,8.5C107,94.3,105.7,96.1,103.9,97.6z"/>
<g>
	<linearGradient id="SVGID_1_" gradientUnits="userSpaceOnUse" x1="-20.9097" y1="43.1656" x2="89.7727" y2="195.4188">
		<stop  offset="0" style="stop-color:#FADB01"/>
		<stop  offset="1" style="stop-color:#0D8844"/>
	</linearGradient>
	<polygon class="st0" points="46.6,136 46.7,136.2 46.7,136.2 46.7,136.2 46.7,136 	"/>
	<linearGradient id="SVGID_2_" gradientUnits="userSpaceOnUse" x1="87.5346" y1="7.5635" x2="97.3261" y2="21.0327">
		<stop  offset="0" style="stop-color:#FADB01"/>
		<stop  offset="1" style="stop-color:#0D8844"/>
	</linearGradient>
	<polygon class="st1" points="92.4,14.3 92.4,14.3 92.4,14.3 	"/>
	<linearGradient id="SVGID_3_" gradientUnits="userSpaceOnUse" x1="46.248" y1="135.6634" x2="47.0994" y2="136.8346">
		<stop  offset="0" style="stop-color:#FADB01"/>
		<stop  offset="1" style="stop-color:#0D8844"/>
	</linearGradient>
	<rect x="46.7" y="136.2" class="st2" width="0" height="0"/>
	<linearGradient id="SVGID_4_" gradientUnits="userSpaceOnUse" x1="33.6802" y1="3.4807" x2="144.3627" y2="155.734">
		<stop  offset="0" style="stop-color:#FADB01"/>
		<stop  offset="1" style="stop-color:#0D8844"/>
	</linearGradient>
	<path class="st3" d="M195.5,91.9l-0.7,0c-2.2,0-4.3,0-6.3,0c-0.3,0-0.6,0-0.9,0c-1.2,0-1.8,0-2.3-0.2c-10.3-3.4-20.5-6.8-30.8-10.3
		l-6.1-2l-0.3-0.4c-1.2-1.3-2.6-2.3-4-3.2c-1.5-1-3-1.9-3.8-3.3c-0.2-0.3-0.3-0.6-0.5-0.9l-0.1-0.2c-0.9-1.6-1.9-3.3-3.5-4.9
		c-1.1-1-2.1-2.6-3.1-4.7l-0.4-1l0.8-1.1c0.5-0.7,0.8-1.3,0.9-1.9c0.4-2.4-0.9-4.7-3.1-5.5l-0.4-0.1c-0.9-0.3-2.2-0.7-3.6-0.4
		c-1.5,0.3-3,0.6-4.3,0.9l-2,0.5l-0.3-2c-0.1-0.5-0.1-0.9-0.1-1.2c0-0.4,0.1-0.7,0.1-1.1l-0.2-0.4l0.7-1c1.5-2.3,3.2-4.4,4.9-6.7
		l0.9-1.1c1.8-2.4,1.6-5-0.6-7c-1-0.9-2.4-2.1-3.6-3.4c-0.1-0.1-0.3-0.3-0.4-0.4l-0.3-0.3l-0.3-0.5c-1.3-3.1-3.7-5.6-7.1-7.5
		c-1.3-0.8-2.4-1.9-3.5-3.8c-1.2-2-3.2-4.8-6.7-6c-1.1-0.4-2.2-1-3.2-1.7c-2.1-1.6-4.2-2.2-6.4-2l-0.3,0l-0.3-0.1
		c-0.4-0.1-0.8-0.2-1.1-0.2C93,7,92.6,6.9,92.2,6.8c-1.6-0.3-3.3-0.6-5.1-0.3l-0.6,0.1l-0.8-0.4c-2.1-1.2-3.7-1.6-5.1-0.2
		C80,6.7,79.1,7,77.8,7.3l-1.6,0.4l-0.7-1.1c-0.4-0.6-1-1.4-1.9-1.9c-1.8-1-3.9-1.2-5.8-0.5c-1.5,0.5-2.9,1.6-3.7,3l-0.8,1.3
		l-1.4-0.6c-0.7-0.3-1.5-0.4-2.4-0.4c-1.1,0.1-2,0.5-2.8,1.2L56,9.2L55.1,9c-2.1-0.3-4,0.1-5.6,1.2c-2,1.4-3,3.9-2.9,6.7
		c0.1,1.7-0.5,3.1-1.5,5.2l-0.3,0.7c-1,2.1-1.5,4.5-1.8,6.2l-0.2,1.2l-1.2,0.2c-2.9,0.6-5.1,2.4-6.6,5.6c-0.4,0.8-0.8,1.5-1.2,2.1
		l-0.6,0.9c-0.7,1.1-1.4,2.1-2.2,2.8c-1.6,1.5-2.3,3-2.2,5c0,0.5,0,1.1-0.1,1.7c-0.3,1.5-0.6,3-0.9,4.5l-0.3,1.6l-1.6-0.1
		c-1.3-0.1-2.5,0.4-3.5,1.4c-2.1,2.1-4.3,4.8-3.1,8.7l0.1,0.4l-0.1,0.4c0,0.3-0.2,0.7-0.7,1.7c-1.2,2.2-2.7,5.7-2.4,9.7
		c0.2,2.4,0.3,4.9,0.4,8.1l0,2.3l-2.3-0.5c-1.9-0.4-3.8-0.5-5.7-0.6c-1.2,0-2.3,0.4-3,1.3c-0.8,0.9-1.1,2-0.9,3.1l0.1,0.5l-0.2,0.5
		c-0.1,0.4-0.4,0.8-1.1,1.7c-1,1.2-1.4,2.6-1.1,3.9c0.3,1.2,1.1,2.2,2.2,2.7c2,0.9,3.7,1.4,5.3,1.4c2,0,3.6,0.9,5.5,2.8l0.3,0.3
		l0.1,0.4c0.1,0.4,0.3,1,0.6,1.5c1,1.8,2.5,2.9,3.8,3.8c1.2,0.9,1.9,1.4,2.3,2.2c0.3,0.7,0.9,1.2,1.6,1.5l0.7,0.3l0.8,2.2
		c1.1,3.1,2.2,6.3,3.6,9.5c0.6,1.5,1.6,2.7,2.4,3.8l0.6,0.8c0.9,1.2,2.4,1.4,2.6,1.4c0.2,0,0.5,0,0.7,0l2.1-0.1l-0.1,2.1
		c-0.2,2.7,1.4,4.9,2.4,6.3c0.4,0.6,0.8,1.1,1.1,1.6c0.7,1.3,2.1,1.8,3.3,1.9c0.7,0,1.5,0,2.2,0.1c1.2,0,2.2,0,3.3,0.1
		c0.6,0.1,1.2,0.1,1.8,0.1c1.9,0.1,3.1,0.3,4,0.7c3,1.7,5.7,3.7,8.7,5.7c1.5,1,2.8,2,4.2,3c1,0.7,2.2,0.9,2.9,1
		c0.8,0.1,1.7,0.1,2.5,0.1c1.3,0.1,2.5,0.1,3.6,0.3c2.1,0.3,4.2,0.8,6.2,1.2c1.5,0.3,3,0.6,4.6,0.9c1.3,0.2,2.7-0.4,3.7-1.7
		c0.6-0.8,1.3-1.7,1.9-2.5c0.4-0.6,0.8-1.1,1.3-1.7l0.4-0.4l0.3-0.1c2.5-1.1,5.1-2.3,7.7-3.4l1.1-0.5l0.9,0.8
		c0.2,0.2,0.4,0.4,0.6,0.6c1.6,1.9,3.7,2.7,6.3,2.4c0.9-0.1,1.8-0.1,2.8-0.2c1.2,0,2.3-0.1,3.4-0.2c1.1-0.1,1.9-0.7,2.4-1.1l0.4-0.3
		c0.4-0.2,0.8-0.5,1.2-0.7c0.8-0.6,1.2-0.8,1.5-0.9l0.2-0.1c1.2-0.3,2.6-0.5,4-0.6c0.7-0.1,1.4-0.1,2-0.2c2.7-0.4,4.5-1.7,5.3-3.9
		l0.2-0.6l0.5-0.3c4.5-2.9,8.5-4.1,12.8-3.9c0.5,0,1,0,1.5,0c1.2,0,2.4,0,3.3,0.3c4.9,1.3,7.8-1.5,10.1-4.3c1.8-1.9,3.4-3.7,5-5.4
		c3.8-4.1,7.7-8.4,11.6-12.4c3.8-3.8,7.7-7.6,11.5-11.2c2-1.9,3.9-3.8,5.9-5.6c0.8-0.7,1.2-1.7,1.2-2.8c0-1.1-0.5-2.1-1.3-3
		C197.5,92.2,196.6,91.9,195.5,91.9z M84.8,150.4c-2.1-0.4-4.2-0.8-6.4-1.2c-1.5-0.2-2.9-0.3-4.3-0.3l-1.2-0.1l-2.7-1
		c-0.9-0.6-1.8-1.3-2.7-1.9c-3-2.1-6-4.2-9.1-6c-2-1.1-4.3-1.3-6.3-1.5c-0.5,0-1.1-0.1-1.6-0.1c-1.3-0.1-2.6-0.2-3.8-0.2l-0.9,0
		l-0.9-0.8l-0.4-0.5c-0.9-1.2-1.1-1.6-1.3-2.1l-0.7-2.4h1.2c0.3-1.2,0.3-2.3-0.2-3.3c-0.7-1.4-2-2.3-4-2.8l-0.4-0.1
		c-0.5-0.2-1.4-0.4-2.3-0.4l-1,0l-0.6-0.8c-0.4-0.6-0.7-1-0.9-1.5c-1.3-3-2.3-6-3.4-9.1l-0.5-1.4c-0.3-1-1-3-3-4l-0.4-0.2l-0.3-0.4
		c-1-1.3-2.2-2.1-3.2-2.9c-0.9-0.7-1.6-1.2-2-1.7l-0.2-0.2l-0.2-0.5c-0.2-0.6-0.5-1.4-1.1-2.2c-1.8-2.1-4.5-4.6-8.7-5.1l-2.3-0.3
		l1.4-3.9l1.5,0.2c0.6,0.1,1.1,0.2,1.6,0.3c1.9,0.5,4.3-0.1,6.1-1.5c1.6-1.3,2.5-3,2.5-4.7c0-2.6-0.1-6.1-0.4-9.6
		c-0.2-2,0.4-4,1.7-6.6c0.7-1.2,1.9-3.6,1-6.4c0,0-1.8-2.9-1.1-3.5c0.7-0.7,3.8,1.3,3.8,1.3c0.3,0.1,0.4,0.1,0.6,0.2l1.1,0.5
		c0.8,0.3,1.7,0,2.1-0.9l0.5-1.1c0.1-0.2,0.2-0.4,0.3-0.6c0.3-0.8,0.7-1.5,0.9-2.4c0.6-2.4,1.1-4.9,1.5-7.2c0.2-0.9,0.2-1.8,0.2-2.4
		l0-0.8l0.6-0.5c1.2-1.2,2.1-2.5,2.9-3.8l0.5-0.8c0.6-0.9,1.1-1.9,1.6-2.9c0.9-2,2-2.7,3.7-2.6c1.4,0.1,3.9-0.3,4.5-3.9l0-0.2
		c0.4-2.4,0.8-4.7,1.7-6.6l0.3-0.6c1.1-2.3,2.1-4.6,2-7.7c0-0.2,0-0.4,0-0.5l0.2-2.1l2,0.4c0.2,0,0.4,0.1,0.6,0.2
		c1.6,0.6,2.9,0.5,4-0.3l1-0.7l1.1,0.6c1.1,0.7,2.4,0.9,3.7,0.6c1.4-0.4,2.7-1.5,3.3-3l1.6-3.9l1.9,2.7c1.6,2.3,4,3.1,6.8,2.3
		c0.3-0.1,0.5-0.1,0.8-0.2l0.4-0.1l6.5-0.1c0.3-0.1,0.7-0.2,1-0.3c0.5-0.2,1.1-0.3,1.3-0.3l0.2,0c0.8,0,1.8,0.2,2.8,0.3l0.2,0
		c0.4,0.1,0.8,0.1,1.2,0.2c0.2,0,0.3,0.1,0.5,0.1c0.6,0.2,1.5,0.4,2.5,0.2c1-0.2,1.7,0.2,2.6,0.9c1.4,1.1,3,2,4.7,2.5
		c1.8,0.6,2.9,2.1,3.8,3.6c1.1,1.9,2.7,4.2,5.5,5.8c2.5,1.4,4,3,4.8,5.1c0.4,1,1.2,1.8,1.7,2.2l0.2,0.2c0.8,0.8,1.6,1.6,2.4,2.3
		l1.2,1.1l-1,1.3c-1.7,2.2-3.3,4.3-4.8,6.5c-1.1,1.7-1.3,3.7-1.4,5.1c-0.1,1.1,0.1,2.1,0.2,2.9l0,0.2c0.1,0.4,0.1,0.9,0.1,1.3
		c0,1.8,0.6,3.1,1.7,4c1.1,0.8,2.4,1.1,4.1,0.7c0.9-0.2,1.8-0.4,2.7-0.6L125,58l2.4,1.8l0,0.9c0,1,0.2,2,0.7,3.2
		c1.3,2.9,2.7,5.1,4.4,6.6c1,1,1.7,2.3,2.5,3.6c0.2,0.4,0.4,0.8,0.7,1.2c1.4,2.5,3.6,3.9,5.5,5.1c1.3,0.9,2.5,1.6,3.3,2.6
		c0.9,1.1,2.1,1.4,3,1.7l5.2,1.7c10.3,3.5,20.7,7,31,10.4c1.2,0.4,2.8,0.9,3.3,2.6c0.4,1.7-1,3.2-1.4,3.7c-1.7,1.8-3.1,3.1-4.6,4.5
		c-1.2,1.2-2.5,2.4-3.9,3.8c-4,4-7.8,8.2-11.6,12.3l-0.1,0.2c-1.6,1.8-3.3,3.6-4.9,5.3c-0.2,0.2-0.3,0.4-0.5,0.6
		c-1.3,1.7-2.4,2.9-4.3,2.3c-1.6-0.4-3.2-0.4-4.7-0.5c-0.6,0-1,0-1.4,0c-5.7-0.2-11.1,1.5-16.7,5.3c-0.4,0.3-1.5,1.1-2,2.3l-0.4,1
		l-1.1,0.1c-0.5,0.1-1,0.1-1.5,0.2c-1.6,0.2-3.2,0.3-4.8,0.8c-1.4,0.4-2.4,1.1-3.4,1.7c-0.4,0.2-0.6,0.4-0.9,0.6
		c-0.2,0.1-0.4,0.2-0.5,0.4l-0.4,0.3l-0.5,0c-0.6,0-1.3,0.1-1.9,0.1c-1.2,0-2.3,0.1-3.4,0.2l-1,0.1l-0.6-0.7
		c-0.8-0.9-1.8-1.8-3.2-2.7c-1.3-0.9-3.1-0.8-4.2-0.3c-3.3,1.4-6.4,2.8-9.6,4.2c-0.9,0.4-1.6,1-2.2,1.8c-0.5,0.6-1,1.3-1.4,1.9
		l-1.5,2L84.8,150.4z"/>
</g>
</svg>
