<svg version="1.1" id="b7d5ffe4-d82c-44d1-8d1d-fd48d095fddc"
          xmlns="http://www.w3.org/2000/svg" xmlns:xlink="http://www.w3.org/1999/xlink" x="0px" y="0px" viewBox="0 0 709.4 473.4"
          xml:space="preserve">
                <style type="text/css">
                .st0{display:none;fill:#3F3D56;}
                .st1{fill:#E6E6E6;}
                .st2{fill:#FFB300;}
                .st3{fill:#3F3D56;}
                .st4{fill:#FFBC1F;}
                .st5{fill:#9FF2FF;}
                .st6{fill:#7F8DFF;}
                .st7{fill:#F4DC00;}
                .st8{display:none;}
                .st9{display:inline;fill:#A0616A;}
                .st10{display:inline;fill:#2F2E41;}
            </style>
            <polygon class="st0" points="885.1,641.9 617.7,641.9 617.7,639.7 885.5,639.7 "/>
            <circle class="st1" cx="42.9" cy="7.7" r="7.7"/>
            <circle class="st1" cx="81.9" cy="7.7" r="7.7"/>
            <circle class="st1" cx="120.9" cy="7.7" r="7.7"/>
            <circle class="st1" cx="160" cy="7.7" r="7.7"/>
            <circle class="st1" cx="199" cy="7.7" r="7.7"/>
            <circle class="st1" cx="238" cy="7.7" r="7.7"/>
            <circle class="st1" cx="277" cy="7.7" r="7.7"/>
            <circle class="st1" cx="316" cy="7.7" r="7.7"/>
            <circle class="st1" cx="355" cy="7.7" r="7.7"/>
            <circle class="st1" cx="394" cy="7.7" r="7.7"/>
            <circle class="st1" cx="42.9" cy="47.2" r="7.7"/>
            <circle class="st1" cx="81.9" cy="47.2" r="7.7"/>
            <circle class="st1" cx="120.9" cy="47.2" r="7.7"/>
            <circle class="st2" cx="160" cy="47.2" r="7.7"/>
            <circle class="st1" cx="199" cy="47.2" r="7.7"/>
            <circle class="st1" cx="238" cy="47.2" r="7.7"/>
            <circle class="st1" cx="277" cy="47.2" r="7.7"/>
            <circle class="st1" cx="316" cy="47.2" r="7.7"/>
            <circle class="st1" cx="355" cy="47.2" r="7.7"/>
            <circle class="st1" cx="394" cy="47.2" r="7.7"/>
            <circle class="st1" cx="42.9" cy="86.7" r="7.7"/>
            <circle class="st1" cx="81.9" cy="86.7" r="7.7"/>
            <circle class="st1" cx="120.9" cy="86.7" r="7.7"/>
            <circle class="st1" cx="160" cy="86.7" r="7.7"/>
            <circle class="st1" cx="199" cy="86.7" r="7.7"/>
            <circle class="st1" cx="238" cy="86.7" r="7.7"/>
            <circle class="st1" cx="277" cy="86.7" r="7.7"/>
            <circle class="st1" cx="316" cy="86.7" r="7.7"/>
            <circle class="st1" cx="355" cy="86.7" r="7.7"/>
            <circle class="st1" cx="394" cy="86.7" r="7.7"/>
            <circle class="st1" cx="42.9" cy="126.2" r="7.7"/>
            <circle class="st1" cx="81.9" cy="126.2" r="7.7"/>
            <circle class="st1" cx="120.9" cy="126.2" r="7.7"/>
            <circle class="st1" cx="160" cy="126.2" r="7.7"/>
            <circle class="st1" cx="199" cy="126.2" r="7.7"/>
            <circle class="st1" cx="238" cy="126.2" r="7.7"/>
            <circle class="st1" cx="277" cy="126.2" r="7.7"/>
            <circle class="st1" cx="316" cy="126.2" r="7.7"/>
            <circle class="st1" cx="355" cy="126.2" r="7.7"/>
            <circle class="st1" cx="394" cy="126.2" r="7.7"/>
            <circle class="st1" cx="42.9" cy="165.7" r="7.7"/>
            <circle class="st2" cx="81.9" cy="165.7" r="7.7"/>
            <circle class="st1" cx="120.9" cy="165.7" r="7.7"/>
            <circle class="st1" cx="160" cy="165.7" r="7.7"/>
            <circle class="st1" cx="199" cy="165.7" r="7.7"/>
            <circle class="st1" cx="238" cy="165.7" r="7.7"/>
            <circle class="st1" cx="277" cy="165.7" r="7.7"/>
            <circle class="st1" cx="316" cy="165.7" r="7.7"/>
            <circle class="st1" cx="355" cy="165.7" r="7.7"/>
            <circle class="st1" cx="394" cy="165.7" r="7.7"/>
            <circle class="st1" cx="42.9" cy="205.2" r="7.7"/>
            <circle class="st1" cx="81.9" cy="205.2" r="7.7"/>
            <circle class="st1" cx="120.9" cy="205.2" r="7.7"/>
            <circle class="st1" cx="160" cy="205.2" r="7.7"/>
            <circle class="st1" cx="199" cy="205.2" r="7.7"/>
            <circle class="st1" cx="238" cy="205.2" r="7.7"/>
            <circle class="st1" cx="277" cy="205.2" r="7.7"/>
            <circle class="st1" cx="316" cy="205.2" r="7.7"/>
            <circle class="st1" cx="355" cy="205.2" r="7.7"/>
            <circle class="st1" cx="394" cy="205.2" r="7.7"/>
            <circle class="st1" cx="42.9" cy="244.7" r="7.7"/>
            <circle class="st1" cx="81.9" cy="244.7" r="7.7"/>
            <circle class="st2" cx="120.9" cy="244.7" r="7.7"/>
            <circle class="st1" cx="160" cy="244.7" r="7.7"/>
            <circle class="st1" cx="199" cy="244.7" r="7.7"/>
            <circle class="st1" cx="238" cy="244.7" r="7.7"/>
            <circle class="st1" cx="277" cy="244.7" r="7.7"/>
            <circle class="st1" cx="316" cy="244.7" r="7.7"/>
            <circle class="st1" cx="355" cy="244.7" r="7.7"/>
            <circle class="st1" cx="394" cy="244.7" r="7.7"/>
            <circle class="st1" cx="42.9" cy="284.2" r="7.7"/>
            <circle class="st1" cx="81.9" cy="284.2" r="7.7"/>
            <ellipse transform="matrix(0.9806 -0.1961 0.1961 0.9806 -53.3883 29.2284)" class="st1" cx="120.89" cy="284.19" rx="7.7" ry="7.7"/>
            <circle class="st1" cx="160" cy="284.2" r="7.7"/>
            <circle class="st1" cx="199" cy="284.2" r="7.7"/>
            <circle class="st1" cx="238" cy="284.2" r="7.7"/>
            <circle class="st1" cx="277" cy="284.2" r="7.7"/>
            <circle class="st1" cx="316" cy="284.2" r="7.7"/>
            <circle class="st1" cx="355" cy="284.2" r="7.7"/>
            <circle class="st1" cx="394" cy="284.2" r="7.7"/>
            <circle class="st1" cx="42.9" cy="323.7" r="7.7"/>
            <circle class="st1" cx="81.9" cy="323.7" r="7.7"/>
            <ellipse transform="matrix(0.9806 -0.1961 0.1961 0.9806 -61.1348 29.9953)" class="st1" cx="120.89" cy="323.69" rx="7.7" ry="7.7"/>
            <circle class="st1" cx="160" cy="323.7" r="7.7"/>
            <circle class="st1" cx="199" cy="323.7" r="7.7"/>
            <circle class="st1" cx="238" cy="323.7" r="7.7"/>
            <circle class="st1" cx="277" cy="323.7" r="7.7"/>
            <circle class="st1" cx="316" cy="323.7" r="7.7"/>
            <circle class="st1" cx="355" cy="323.7" r="7.7"/>
            <circle class="st1" cx="394" cy="323.7" r="7.7"/>
            <circle class="st1" cx="42.9" cy="363.2" r="7.7"/>
            <circle class="st1" cx="81.9" cy="363.2" r="7.7"/>
            <ellipse transform="matrix(0.9806 -0.1961 0.1961 0.9806 -68.8812 30.7623)" class="st1" cx="120.89" cy="363.19" rx="7.7" ry="7.7"/>
            <circle class="st1" cx="160" cy="363.2" r="7.7"/>
            <circle class="st1" cx="199" cy="363.2" r="7.7"/>
            <circle class="st1" cx="238" cy="363.2" r="7.7"/>
            <circle class="st1" cx="277" cy="363.2" r="7.7"/>
            <circle class="st1" cx="316" cy="363.2" r="7.7"/>
            <circle class="st1" cx="355" cy="363.2" r="7.7"/>
            <circle class="st1" cx="394" cy="363.2" r="7.7"/>
            <polygon class="st3" points="320.4,305.9 411.8,145.6 228.8,145.6 137.2,304.2 228.8,462.8 411.9,462.8 503.3,304.5 "/>
            <polygon class="st4" points="526.1,291 526.2,290.7 434.7,132.1 434.6,132.1 343.1,292.4 "/>
            <polygon class="st5" points="439.3,234.9 438.1,234.5 464,137.3 613.9,137.3 613.9,138.5 464.9,138.5 "/>
            <path class="st6" d="M626.2,150.8c-7.1,0-12.9-5.8-12.9-12.9c0-7.1,5.8-12.9,12.9-12.9c7.1,0,12.9,5.8,12.9,12.9
                C639,145,633.3,150.8,626.2,150.8z M626.2,126.3c-6.4,0-11.6,5.2-11.6,11.6s5.2,11.6,11.6,11.6c6.4,0,11.6-5.2,11.6-11.6l0,0
                C637.8,131.5,632.6,126.3,626.2,126.3z"/>
            <circle class="st7" cx="626.2" cy="137.9" r="4.9"/>
            <polygon class="st5" points="250,330.3 251.1,330.7 225.3,427.9 75.3,427.9 75.3,426.7 224.3,426.7 "/>
            <path class="st6" d="M63.1,414.4c7.1,0,12.9,5.8,12.9,12.9s-5.8,12.9-12.9,12.9s-12.9-5.8-12.9-12.9C50.2,420.2,56,414.4,63.1,414.4
                z M63.1,438.9c6.4,0,11.6-5.2,11.6-11.6s-5.2-11.6-11.6-11.6s-11.6,5.2-11.6,11.6l0,0C51.4,433.7,56.6,438.9,63.1,438.9L63.1,438.9z
                "/>
            <circle class="st7" cx="63.1" cy="427.3" r="4.9"/>
            <g class="st8">
                <rect x="719.2" y="621.3" class="st9" width="18.6" height="25.3"/>
                <rect x="813.7" y="621.3" class="st9" width="18.6" height="25.3"/>
                <path class="st9" d="M845.2,411.4L845.2,411.4c-6.1,0-11-4.9-11-11c0-0.6,0-1.1,0.1-1.7l3-19.4l0.9-5.8h14.1l0.7,8.2l2.9,16.8
                    c1.1,6-3,11.7-9,12.8C846.4,411.4,845.8,411.4,845.2,411.4z"/>
                <path class="st9" d="M706.8,409.2L706.8,409.2c-6.1,0-11-4.9-11-11c0-0.6,0-1.1,0.1-1.7l3-19.4l0.9-5.8h14.1l0.7,8.2l2.9,16.8
                    c1.1,6-3,11.7-9,12.8C708,409.1,707.4,409.2,706.8,409.2z"/>
                <polygon class="st10" points="834.5,626.5 812.2,625.7 775.7,405.5 739.2,626.5 717.7,625.7 711.7,371.2 836.7,371.2 	"/>
                <path class="st10" d="M737.3,664.1c-18.9,0.5-33.8-4.6-43.5-16.7c-2.1-2.6-2.3-6.3-0.6-9.1l0,0c1.6-2.7,4.7-4.2,7.8-3.8l6.2,0.7
                    l12.8-6.4c-2.6,15.2,4.5,15.5,21.6,10.4l3.1,15.8c0.8,4.2-1.9,8.3-6.1,9.1C738.1,664.1,737.7,664.1,737.3,664.1z"/>
                <path class="st10" d="M831.8,664.1c-18.9,0.5-33.8-4.6-43.5-16.7c-2.1-2.6-2.3-6.3-0.6-9.1l0,0c1.6-2.7,4.7-4.2,7.8-3.8l6.2,0.7
                    l12.7-5.4c-2.6,15.2,4.6,14.5,21.7,9.4l3.1,15.8c0.8,4.2-1.9,8.3-6.1,9.1C832.6,664.1,832.2,664.1,831.8,664.1z"/>
                <circle class="st9" cx="768.3" cy="108.6" r="29.8"/>
                <polygon class="st9" points="798,162.9 766,164.4 764.5,130.9 792.1,120.5 	"/>
                <path class="st10" d="M844.2,381.7c-43.6-8.3-93.4-11.2-126.5,0l10.4-218.8l35-10.4l2.6-4.1l29.4-4.8l14.1,4.5l8.9,13.4l38.7,21.6
                    C837.8,256.7,832.1,323.6,844.2,381.7z"/>
                <path class="st10" d="M865,380.2l-32-3.7c6.7-32.5,3.9-74.8,5.6-117.2c1-26.9,6.6-51.4,8.6-81.5l0,0c12.1,3.2,18.4,14.4,18.5,27.7
                    C866,268.5,871.9,327.5,865,380.2z"/>
                <path class="st10" d="M725.8,377.2l-31.3-2.2l18.6-105.7l6.3-87.9c-1-12.8,5.9-20.3,16-20.7l0,0c22.2,26.3,24.7,62.5,17.9,103.4
                    L725.8,377.2z"/>
                <path class="st10" d="M777.9,130.4l-3.8-10.9C769.7,107,758.8,98,745.7,96l0,0l-24.1-0.6l6.7-10.7c6.6-10.6,18.6-16.5,30.9-15.2
                    l24,2.4c11.9,1.2,20.6,11.8,19.5,23.7l-2.2,23.6c-0.8,8.2-8,14.2-16.2,13.4C782.1,132.4,779.9,131.7,777.9,130.4z"/>
            </g>
            </svg>