<?xml version="1.0" encoding="utf-8"?>
<!-- Generator: Adobe Illustrator 25.3.1, SVG Export Plug-In . SVG Version: 6.00 Build 0)  -->
<svg version="1.1" id="Layer_1" xmlns="http://www.w3.org/2000/svg" xmlns:xlink="http://www.w3.org/1999/xlink" x="0px" y="0px"
	 viewBox="0 0 1440 674.56" style="enable-background:new 0 0 1440 674.56;" xml:space="preserve">
<style type="text/css">
	.st0{fill:#000B76;}
</style>
<path class="st0" d="M0,514.56l34.3,10.7c34.3,10.3,102.7,32.3,171.7,10.6C274.3,514.56,349.18,413,417.18,407.7
	c69-5.7,177.52,32.26,245.52,58.56c68.7,26.7,108.95,42,177.95,47.3c68.4,5.7,103.61,2.25,177.95-42.8
	c87.85-40.54,86.01-72.75,130.64-155.42c37.73-55.19,90.97-90.71,126.14-139.65L1440,0v674.56h-34.3c-34.3,0-102.7,0-171.7,0
	c-68.3,0-137,0-205,0c-69,0-138,0-206,0c-68.7,0-137,0-206,0c-68.4,0-137,0-206,0c-68.1,0-137,0-205,0c-68.9,0-137,0-172,0H0V514.56
	z"/>
</svg>
